<svg xmlns="http://www.w3.org/2000/svg" xmlns:xlink="http://www.w3.org/1999/xlink" width="82.76" height="82.76" viewBox="0 0 82.76 82.76">
  <defs>
    <filter id="Trazado_874925" x="0" y="0" width="82.76" height="82.76" filterUnits="userSpaceOnUse">
      <feOffset dy="3" input="SourceAlpha"/>
      <feGaussianBlur stdDeviation="3" result="blur"/>
      <feFlood flood-opacity="0.161"/>
      <feComposite operator="in" in2="blur"/>
      <feComposite in="SourceGraphic"/>
    </filter>
  </defs>
  <g id="Grupo_1181807" data-name="Grupo 1181807" transform="translate(-276 -6091.407)">
    <g id="Grupo_1111314" data-name="Grupo 1111314" transform="translate(285 6097.407)">
      <g transform="matrix(1, 0, 0, 1, -9, -6)" filter="url(#Trazado_874925)">
        <g id="Trazado_874925-2" data-name="Trazado 874925" transform="translate(9 6)" fill="#ffd63c">
          <path d="M 32.37990951538086 63.26018142700195 C 28.21048927307129 63.26018142700195 24.16658020019531 62.44393157958984 20.36051940917969 60.83410263061523 C 16.68354034423828 59.27887344360352 13.38095951080322 57.0521125793457 10.54451942443848 54.21567153930664 C 7.708069324493408 51.37923431396484 5.481309413909912 48.07665252685547 3.926079511642456 44.39968109130859 C 2.31624960899353 40.59361267089844 1.499999523162842 36.54970169067383 1.499999523162842 32.38028335571289 C 1.499999523162842 28.21049308776855 2.31624960899353 24.16658210754395 3.926079511642456 20.36051177978516 C 5.481309413909912 16.68353271484375 7.708069324493408 13.38095283508301 10.54451942443848 10.54451274871826 C 13.38095951080322 7.708072662353516 16.68354034423828 5.48131275177002 20.36051940917969 3.926082611083984 C 24.16658020019531 2.316252708435059 28.21048927307129 1.50000262260437 32.37990951538086 1.50000262260437 C 36.5493278503418 1.50000262260437 40.59323883056641 2.316252708435059 44.39929962158203 3.926082611083984 C 48.07627868652344 5.48131275177002 51.37886047363281 7.708072662353516 54.21529769897461 10.54451274871826 C 57.05175018310547 13.38095283508301 59.27851104736328 16.68353271484375 60.833740234375 20.36051177978516 C 62.44356918334961 24.16658210754395 63.25981903076172 28.21049308776855 63.25981903076172 32.37991333007812 C 63.25981903076172 36.54970169067383 62.44356918334961 40.59361267089844 60.833740234375 44.39968109130859 C 59.27851104736328 48.07665252685547 57.05175018310547 51.37923431396484 54.21529769897461 54.21567153930664 C 51.37886047363281 57.0521125793457 48.07627868652344 59.27887344360352 44.39929962158203 60.83410263061523 C 40.59323883056641 62.44393157958984 36.5493278503418 63.26018142700195 32.37990951538086 63.26018142700195 Z" stroke="none"/>
          <path d="M 32.37990951538086 3.000003814697266 C 28.41231918334961 3.000003814697266 24.56501007080078 3.776393890380859 20.94484329223633 5.307594299316406 C 17.4466667175293 6.787193298339844 14.30434417724609 8.906013488769531 11.60517501831055 11.60518264770508 C 8.906009674072266 14.30434799194336 6.787185668945312 17.44667053222656 5.307586669921875 20.94484710693359 C 3.776386260986328 24.56501388549805 3 28.41232681274414 3 32.38028335571289 C 3 36.34786987304688 3.776386260986328 40.19518280029297 5.307586669921875 43.81534576416016 C 6.787185668945312 47.31352615356445 8.906009674072266 50.45584869384766 11.60517501831055 53.15501403808594 C 14.30434417724609 55.85417938232422 17.4466667175293 57.97299194335938 20.94484329223633 59.45259094238281 C 24.56501007080078 60.98379135131836 28.41231918334961 61.76018142700195 32.37990951538086 61.76018142700195 C 36.34748840332031 61.76018142700195 40.19479751586914 60.98379135131836 43.81497573852539 59.45259094238281 C 47.31315612792969 57.97299194335938 50.45547485351562 55.85417938232422 53.15464401245117 53.15501403808594 C 55.85380935668945 50.45584869384766 57.97262191772461 47.31352615356445 59.45223236083984 43.81534576416016 C 60.98343276977539 40.19518280029297 61.75981903076172 36.34786987304688 61.75981903076172 32.37991333007812 C 61.75981903076172 28.41232681274414 60.98343276977539 24.56501388549805 59.45223236083984 20.94484710693359 C 57.97262191772461 17.44667053222656 55.85380935668945 14.30434799194336 53.15464401245117 11.60518264770508 C 50.45547485351562 8.906013488769531 47.31315612792969 6.787193298339844 43.81497573852539 5.307594299316406 C 40.19479751586914 3.776393890380859 36.34748840332031 3.000003814697266 32.37990951538086 3.000003814697266 M 32.37990951538086 0 C 50.26283264160156 0 64.75981903076172 14.49698257446289 64.75981903076172 32.37991333007812 L 64.75981903076172 32.38028335571289 C 64.75981903076172 50.26321411132812 50.26283264160156 64.76018524169922 32.37990951538086 64.76018524169922 C 14.49697494506836 64.76018524169922 0 50.26321411132812 0 32.38028335571289 L 0 32.37991333007812 C 0 14.49698257446289 14.49697494506836 0 32.37990951538086 0 Z" stroke="none" fill="#fff"/>
        </g>
      </g>
    </g>
    <g id="biochemist_2317919" transform="translate(296.482 6109.012)">
      <path id="Trazado_1047900" data-name="Trazado 1047900" d="M33.953,43.09V42.063A4.164,4.164,0,0,0,31.168,41H29.775s-.7,4.18-2.09,6.27l-4.18-2.786-4.18,2.786c-1.393-2.09-2.09-6.27-2.09-6.27h-2.09a3.483,3.483,0,0,0-3.483,3.483v5.573L10.27,41H4L6.09,54.932H31.167A1.393,1.393,0,0,1,29.881,53Z" transform="translate(-2.607 -14.078)" fill="#fff"/>
      <path id="Trazado_1047901" data-name="Trazado 1047901" d="M9,26h4.18v9.056H9Z" transform="translate(-4.124 -9.527)" fill="#71caf0"/>
      <g id="Grupo_1181416" data-name="Grupo 1181416" transform="translate(10.449 5.327)">
        <path id="Trazado_1047902" data-name="Trazado 1047902" d="M44.045,23.483a1.742,1.742,0,1,0,0-3.483H43v3.483Z" transform="translate(-24.888 -13.033)" fill="#fce0b9"/>
        <path id="Trazado_1047903" data-name="Trazado 1047903" d="M18.742,20a1.742,1.742,0,0,0,0,3.483h1.045V20Z" transform="translate(-17 -13.033)" fill="#fce0b9"/>
        <path id="Trazado_1047904" data-name="Trazado 1047904" d="M35,11.94a3.085,3.085,0,0,0-4.657-1.365,3.085,3.085,0,0,1-3.428.106l-.3-.19A3.085,3.085,0,0,0,22,12.3l-1,4.671v4.876h.035a7.659,7.659,0,0,0,15.256,0h.035V16.966Z" transform="translate(-18.214 -10)" fill="#fce0b9"/>
      </g>
      <path id="Trazado_1047905" data-name="Trazado 1047905" d="M9,39v2.786a2.09,2.09,0,1,0,4.18,0V39Z" transform="translate(-4.124 -13.471)" fill="#78af4f"/>
      <path id="Trazado_1047906" data-name="Trazado 1047906" d="M54.823,49.363l-1.6-3.9-2.469-6.015V31.09H51.1a1.045,1.045,0,0,0,0-2.09H44.829a1.045,1.045,0,1,0,0,2.09h.348v8.359L41.1,49.363a1.393,1.393,0,0,0,1.286,1.929H53.537A1.393,1.393,0,0,0,54.823,49.363Z" transform="translate(-13.831 -10.437)" fill="#71caf0"/>
      <path id="Trazado_1047907" data-name="Trazado 1047907" d="M7.18,38.305V33.786h.7a1.393,1.393,0,0,0,0-2.786H3.7a.7.7,0,0,0-.7.7l.912,6.609Z" transform="translate(-2.303 -11.044)" fill="#fce0b9"/>
      <path id="Trazado_1047908" data-name="Trazado 1047908" d="M26.306,8.475l.3.19a3.085,3.085,0,0,0,3.428-.106A3.085,3.085,0,0,1,34.7,9.924l1.327,5.026L35.732,8a5.5,5.5,0,0,0-7.6-4.2L24.876,5.2A4.876,4.876,0,0,0,20,10.074l.7,4.876,1-4.671A3.085,3.085,0,0,1,26.306,8.475Z" transform="translate(-7.461 -2.657)" fill="#665642"/>
      <path id="Trazado_1047909" data-name="Trazado 1047909" d="M32,22.09a2.787,2.787,0,0,0,2.786,2.786H38.27a1.393,1.393,0,0,0,1.393-1.393V20H32Zm3.483-.7a.7.7,0,1,1-.7.7A.7.7,0,0,1,35.483,21.393Z" transform="translate(-11.101 -7.707)" fill="#71caf0"/>
      <circle id="Elipse_11893" data-name="Elipse 11893" cx="0.697" cy="0.697" r="0.697" transform="translate(23.685 13.686)" fill="#fff"/>
      <path id="Trazado_1047910" data-name="Trazado 1047910" d="M22.393,24.876h3.483a2.787,2.787,0,0,0,2.786-2.786V20H21v3.483A1.393,1.393,0,0,0,22.393,24.876Zm2.786-3.483a.7.7,0,1,1-.7.7A.7.7,0,0,1,25.18,21.393Z" transform="translate(-7.764 -7.707)" fill="#71caf0"/>
      <circle id="Elipse_11894" data-name="Elipse 11894" cx="0.697" cy="0.697" r="0.697" transform="translate(16.719 13.686)" fill="#fff"/>
      <path id="Trazado_1047911" data-name="Trazado 1047911" d="M51,37.393V40.18a1.393,1.393,0,0,0,1.393,1.393h2.788a.7.7,0,0,0,.7-.7V36.7a.7.7,0,0,0-.7-.7H52.391A1.393,1.393,0,0,0,51,37.393Z" transform="translate(-16.865 -12.561)" fill="#fce0b9"/>
      <path id="Trazado_1047912" data-name="Trazado 1047912" d="M12,32.393a1.393,1.393,0,0,0,1.393,1.393h2.09a.7.7,0,0,0,.7-.7V31.7a.7.7,0,0,0-.7-.7h-2.09A1.393,1.393,0,0,0,12,32.393Z" transform="translate(-5.034 -11.044)" fill="#fce0b9"/>
      <path id="Trazado_1047913" data-name="Trazado 1047913" d="M48.18,36.393A1.393,1.393,0,0,0,46.786,35H44.7a.7.7,0,0,0-.7.7V37.09a.7.7,0,0,0,.7.7h2.09A1.393,1.393,0,0,0,48.18,36.393Z" transform="translate(-14.742 -12.257)" fill="#fce0b9"/>
      <circle id="Elipse_11895" data-name="Elipse 11895" cx="1.393" cy="1.393" r="1.393" transform="translate(35.528 10.9)" fill="#fca947"/>
      <circle id="Elipse_11896" data-name="Elipse 11896" cx="1.393" cy="1.393" r="1.393" transform="translate(33.438 3.237)" fill="#fca947"/>
      <path id="Trazado_1047914" data-name="Trazado 1047914" d="M48.267,52.3a4.479,4.479,0,0,0-3.662-.594l-1.861.507L41.1,56.2a1.394,1.394,0,0,0,1.287,1.929H53.536A1.393,1.393,0,0,0,54.822,56.2l-1.6-3.9A4.478,4.478,0,0,1,48.267,52.3Z" transform="translate(-13.83 -17.276)" fill="#fca947"/>
      <path id="Trazado_1047915" data-name="Trazado 1047915" d="M42.391,58.4h8.334l-.387-.153A16.606,16.606,0,0,1,42.9,52.436l-.157.042L41.1,56.472a1.394,1.394,0,0,0,1.286,1.93Z" transform="translate(-13.831 -17.547)" fill="#e68f29"/>
      <path id="Trazado_1047916" data-name="Trazado 1047916" d="M30.483,36.635A7.62,7.62,0,0,1,27,35.8v2.927l3.483,4.18,3.483-4.18V35.8A7.62,7.62,0,0,1,30.483,36.635Z" transform="translate(-9.584 -12.5)" fill="#fce0b9"/>
      <path id="Trazado_1047917" data-name="Trazado 1047917" d="M24.876,6.344l3.255-1.4a5.5,5.5,0,0,1,7.6,4.2l.234,5.587.056.217L35.732,8a5.5,5.5,0,0,0-7.6-4.2L24.876,5.2A4.876,4.876,0,0,0,20,10.074l.06.42A4.874,4.874,0,0,1,24.876,6.344Z" transform="translate(-7.461 -2.657)" fill="#735f47"/>
      <path id="Trazado_1047918" data-name="Trazado 1047918" d="M28.842,36.3l4.333,4.044,1.35-1.62V35.8a7.563,7.563,0,0,1-5.683.5Z" transform="translate(-10.143 -12.5)" fill="#f5cba1"/>
      <path id="Trazado_1047919" data-name="Trazado 1047919" d="M35.055,41s-.7,4.18-2.09,6.27l-.051-.034c-.007.01-.013.024-.02.034L28.75,44.506h0s-4.156,2.738-4.163,2.728l-.05.033-.08-.247a21.272,21.272,0,0,1-1.932-5.985c0-.023-.006-.038-.006-.038H21.4c.4,2.053,1.073,5.668,2.213,7.711a.7.7,0,0,0,1,.244l4.1-2.731,4.1,2.731a.7.7,0,0,0,1-.245A33.4,33.4,0,0,0,36.3,41H35.055Z" transform="translate(-7.887 -14.077)" fill="#ccc"/>
      <path id="Trazado_1047920" data-name="Trazado 1047920" d="M38.27,40.09,35.483,38v1.393L32,43.573l4.18,2.786C37.573,44.27,38.27,40.09,38.27,40.09Z" transform="translate(-11.101 -13.168)" fill="#fff"/>
      <path id="Trazado_1047921" data-name="Trazado 1047921" d="M25.786,38,23,40.09s.7,4.18,2.09,6.27l4.18-2.786-3.483-4.18Z" transform="translate(-8.371 -13.168)" fill="#fff"/>
      <path id="Trazado_1047922" data-name="Trazado 1047922" d="M11.09,43.09A2.09,2.09,0,0,1,9,41v1.393a2.09,2.09,0,0,0,4.18,0V41A2.09,2.09,0,0,1,11.09,43.09Z" transform="translate(-4.124 -14.078)" fill="#619c35"/>
      <path id="Trazado_1047923" data-name="Trazado 1047923" d="M26.469,23.688a1.219,1.219,0,1,1,1.219-1.219A1.22,1.22,0,0,1,26.469,23.688Zm0-1.393a.174.174,0,0,0-.174.174c0,.192.348.192.348,0A.174.174,0,0,0,26.469,22.295Z" transform="translate(-9.054 -8.086)"/>
      <path id="Trazado_1047924" data-name="Trazado 1047924" d="M36.469,23.688a1.219,1.219,0,1,1,1.219-1.219A1.22,1.22,0,0,1,36.469,23.688Zm0-1.393a.174.174,0,0,0-.174.174c0,.192.348.192.348,0A.174.174,0,0,0,36.469,22.295Z" transform="translate(-12.087 -8.086)"/>
      <path id="Trazado_1047925" data-name="Trazado 1047925" d="M30.862,32.612A2.616,2.616,0,0,1,28.25,30h1.045a1.567,1.567,0,0,0,3.135,0h1.045A2.616,2.616,0,0,1,30.862,32.612Z" transform="translate(-9.964 -10.741)"/>
      <path id="Trazado_1047926" data-name="Trazado 1047926" d="M4.793,43.3a.7.7,0,0,0,.69.6H41.706a2.09,2.09,0,0,0,1.93-2.89l-3.675-8.952h.353a1.4,1.4,0,0,0,1.393-1.393v-4.18A1.4,1.4,0,0,0,40.314,25.1h-.7V23.668a1.742,1.742,0,0,0-.348-3.448H33a1.742,1.742,0,0,0-.348,3.448V24.4h-.7a1.4,1.4,0,0,0-1.393,1.393v1.393a1.4,1.4,0,0,0,1.393,1.393h.7v.472a4.869,4.869,0,0,0-2.088-.472H29.4l-2.322-1.742v-.783a8.357,8.357,0,0,0,4.18-7.229h.348a2.438,2.438,0,1,0,0-4.876H31.23l-.263-6.283a.614.614,0,0,0-.008-.079A6.2,6.2,0,0,0,22.4,2.858L19.268,4.2A5.579,5.579,0,0,0,13.843,9.77a.675.675,0,0,0,.007.1l.583,4.081h-.242a2.438,2.438,0,1,0,0,4.876h.348a8.358,8.358,0,0,0,4.18,7.229v.782L16.4,28.579H15.236a4.858,4.858,0,0,0-3.483,1.471V25.792h.7A1.4,1.4,0,0,0,13.843,24.4V23.006a1.4,1.4,0,0,0-1.393-1.393h-.7V18.826a.7.7,0,0,0-.7-.7H6.876a.7.7,0,0,0-.7.7v2.786H3.393A1.4,1.4,0,0,0,2,23.006a.622.622,0,0,0,.007.1Zm37.491-1.1a.684.684,0,0,1-.579.31H30.56a.7.7,0,0,1-.642-.968l1.51-3.676,1.53-.417a3.781,3.781,0,0,1,3.092.5,5.141,5.141,0,0,0,4.991.41l1.308,3.185A.681.681,0,0,1,42.285,42.2ZM40.316,30.669H37.526a.7.7,0,0,1-.7-.7V27.185a.7.7,0,0,1,.7-.7h2.788Zm-6.969-8.359H33a.348.348,0,1,1,0-.7h6.272a.348.348,0,0,1,0,.7H36.134V23.7h2.091V25.1h-.7A2.079,2.079,0,0,0,36,25.769a2.085,2.085,0,0,0-1.954-1.37h0V23.006a.7.7,0,0,0-.7-.7Zm-1.392,3.483h2.09a.7.7,0,0,1,0,1.393h-2.09Zm2.09,2.786a2.074,2.074,0,0,0,1.392-.543v1.936a2.092,2.092,0,0,0,2.09,2.09h.929l2.058,5.013a3.775,3.775,0,0,1-3.69-.282,5.183,5.183,0,0,0-4.231-.687l-.5.135L33.99,31.63a.69.69,0,0,0,.052-.265V28.579ZM32.65,30.686v.542l-4.02,9.783a2.086,2.086,0,0,0-.042,1.5H23.6V34.06l3.1,2.065a.7.7,0,0,0,.966-.193,19.075,19.075,0,0,0,2.088-5.96h.815A3.465,3.465,0,0,1,32.65,30.686ZM28.4,29.573a21.215,21.215,0,0,1-1.553,4.982l-2.92-1.946,2.986-3.584a.7.7,0,0,0,.162-.447ZM15.932,15.343H22.2v1.393a2.092,2.092,0,0,1-2.09,2.09H16.629a.7.7,0,0,1-.7-.7ZM16.1,13.95l.809-3.79a2.388,2.388,0,0,1,3.569-1.4l.305.19a3.77,3.77,0,0,0,4.2-.13,2.388,2.388,0,0,1,3.59,1.02l1.085,4.108H16.1Zm7.5,1.393h6.27v2.786a.7.7,0,0,1-.7.7H25.685a2.092,2.092,0,0,1-2.09-2.09Zm9.056,1.045a1.046,1.046,0,0,1-1.045,1.045h-.348v-2.09h.348A1.046,1.046,0,0,1,32.651,16.388ZM19.416,5.59a.686.686,0,0,0,.274-.056l3.255-1.4a4.805,4.805,0,0,1,6.632,3.629l.045,1.066a3.783,3.783,0,0,0-5.449-1.145,2.382,2.382,0,0,1-2.654.082l-.305-.19A3.78,3.78,0,0,0,15.553,9.83l-.181.845-.136-.952A4.185,4.185,0,0,1,19.416,5.59ZM14.191,17.433a1.045,1.045,0,0,1,0-2.09h.348v2.09Zm1.868,2.7a2.06,2.06,0,0,0,.57.089h3.483A3.471,3.471,0,0,0,22.9,18.8a3.471,3.471,0,0,0,2.786,1.415h3.483a2.06,2.06,0,0,0,.57-.089,6.962,6.962,0,0,1-13.679,0ZM22.9,27.185a8.305,8.305,0,0,0,2.786-.488v1.629L22.9,31.67l-2.786-3.344V26.7A8.305,8.305,0,0,0,22.9,27.185Zm-4.18,1.393a.7.7,0,0,0,.161.447l2.986,3.584-2.92,1.946a21.191,21.191,0,0,1-1.553-4.982ZM11.056,39.028a.7.7,0,0,0,.7-.7V33.455a3.487,3.487,0,0,1,3.483-3.483h.815a19.075,19.075,0,0,0,2.088,5.96.7.7,0,0,0,.966.193l3.1-2.065v8.451H16.629V39.725H15.236v2.786H6.09l-1.682-12.2H6.18v.357a2.789,2.789,0,0,0,2.786,2.786,2.754,2.754,0,0,0,1.413-.4c-.01.132-.02.264-.02.4v4.18H8.966v1.393ZM7.573,28.579h2.786v2.09a1.393,1.393,0,0,1-2.786,0Zm2.786-1.393H7.573V25.792a2.076,2.076,0,0,0,1.393-.543,2.073,2.073,0,0,0,1.393.543ZM12.451,24.4H10.359a.7.7,0,1,1,0-1.393h2.09ZM7.573,19.523h2.786v2.09a2.076,2.076,0,0,0-1.393.543,2.073,2.073,0,0,0-1.393-.543Zm0,3.483a.7.7,0,1,1,0,1.393H5.483v1.393h.7v3.126H4.215L3.4,23.006Z" transform="translate(-2 -2.353)"/>
      <path id="Trazado_1047927" data-name="Trazado 1047927" d="M54.09,21.18A2.09,2.09,0,1,0,52,19.09,2.092,2.092,0,0,0,54.09,21.18Zm0-2.786a.7.7,0,1,1-.7.7A.7.7,0,0,1,54.09,18.393Z" transform="translate(-17.169 -6.797)"/>
      <path id="Trazado_1047928" data-name="Trazado 1047928" d="M53.18,8.09a2.09,2.09,0,1,0-2.09,2.09A2.092,2.092,0,0,0,53.18,8.09Zm-2.09.7a.7.7,0,1,1,.7-.7A.7.7,0,0,1,51.09,8.786Z" transform="translate(-16.259 -3.459)"/>
    </g>
  </g>
</svg>
