<svg xmlns="http://www.w3.org/2000/svg" xmlns:xlink="http://www.w3.org/1999/xlink" width="98" height="98" viewBox="0 0 98 98">
  <defs>
    <filter id="Trazado_874925" x="0" y="0" width="98" height="98" filterUnits="userSpaceOnUse">
      <feOffset dy="3" input="SourceAlpha"/>
      <feGaussianBlur stdDeviation="3" result="blur"/>
      <feFlood flood-opacity="0.161"/>
      <feComposite operator="in" in2="blur"/>
      <feComposite in="SourceGraphic"/>
    </filter>
  </defs>
  <g id="Grupo_1181888" data-name="Grupo 1181888" transform="translate(-276 -6091.407)">
    <g id="Grupo_1111314" data-name="Grupo 1111314" transform="translate(-734.73 3020.407)">
      <g transform="matrix(1, 0, 0, 1, 1010.73, 3071)" filter="url(#Trazado_874925)">
        <g id="Trazado_874925-2" data-name="Trazado 874925" transform="translate(9 6)" fill="#ffd63c">
          <path d="M 39.99997329711914 78.50040435791016 C 34.80184936523438 78.50040435791016 29.76000595092773 77.48268127441406 25.01450729370117 75.47550201416016 C 20.43013954162598 73.53648376464844 16.3126392364502 70.76027679443359 12.7763843536377 67.22402191162109 C 9.240128517150879 63.68776702880859 6.463928699493408 59.57027053833008 4.524906635284424 54.98590087890625 C 2.517728805541992 50.24040222167969 1.500006675720215 45.19855880737305 1.500006675720215 40.00043487548828 C 1.500006675720215 34.80185699462891 2.517728805541992 29.76001358032227 4.524906635284424 25.01451301574707 C 6.463928699493408 20.43013572692871 9.240128517150879 16.31263542175293 12.7763843536377 12.77637958526611 C 16.3126392364502 9.240124702453613 20.43013954162598 6.463935375213623 25.01450729370117 4.52490234375 C 29.76000595092773 2.517724514007568 34.80184936523438 1.500002145767212 39.99997329711914 1.500002145767212 C 45.19809722900391 1.500002145767212 50.23994064331055 2.517724514007568 54.98543930053711 4.52490234375 C 59.56981658935547 6.463935375213623 63.68731689453125 9.240124702453613 67.22357177734375 12.77637958526611 C 70.75982666015625 16.31263542175293 73.53601837158203 20.43013572692871 75.47505187988281 25.01451301574707 C 77.48223114013672 29.76001358032227 78.49995422363281 34.80185699462891 78.49995422363281 39.99998092651367 C 78.49995422363281 45.19855880737305 77.48223114013672 50.24040222167969 75.47505187988281 54.98590087890625 C 73.53601837158203 59.57027053833008 70.75982666015625 63.68776702880859 67.22357177734375 67.22402191162109 C 63.68731689453125 70.76027679443359 59.56981658935547 73.53648376464844 54.98543930053711 75.47550201416016 C 50.23994064331055 77.48268127441406 45.19809722900391 78.50040435791016 39.99997329711914 78.50040435791016 Z" stroke="none"/>
          <path d="M 39.99997329711914 3 C 35.00369262695312 3 30.15843963623047 3.977851867675781 25.59883880615234 5.906417846679688 C 21.19326782226562 7.769813537597656 17.23602676391602 10.43805694580078 13.83704376220703 13.83704376220703 C 10.43805694580078 17.23601531982422 7.769813537597656 21.19325637817383 5.906410217285156 25.59882736206055 C 3.977851867675781 30.15844345092773 3 35.00368118286133 3 40.00042724609375 C 3 44.99672317504883 3.977851867675781 49.84196472167969 5.906410217285156 54.40157318115234 C 7.769813537597656 58.80714797973633 10.43805694580078 62.76438903808594 13.83704376220703 66.16336059570312 C 17.23602676391602 69.56234741210938 21.19326782226562 72.2305908203125 25.59883880615234 74.09398651123047 C 30.15843963623047 76.02255249023438 35.00369262695312 77.00040435791016 39.99997329711914 77.00040435791016 C 44.99625396728516 77.00040435791016 49.84150695800781 76.02255249023438 54.40110778808594 74.09398651123047 C 58.80667877197266 72.2305908203125 62.76391983032227 69.56234741210938 66.16290283203125 66.16336059570312 C 69.5618896484375 62.76438903808594 72.23013305664062 58.80714797973633 74.09353637695312 54.40157318115234 C 76.0220947265625 49.84196472167969 76.99994659423828 44.99672317504883 76.99994659423828 39.99997711181641 C 76.99994659423828 35.00368118286133 76.0220947265625 30.15844345092773 74.09353637695312 25.59882736206055 C 72.23013305664062 21.19325637817383 69.5618896484375 17.23601531982422 66.16290283203125 13.83704376220703 C 62.76391983032227 10.43805694580078 58.80667877197266 7.769813537597656 54.40110778808594 5.906417846679688 C 49.84150695800781 3.977851867675781 44.99625396728516 3 39.99997329711914 3 M 39.99997329711914 0 C 62.09134674072266 0 79.99994659423828 17.90858840942383 79.99994659423828 39.99997711181641 L 79.99994659423828 40.00042724609375 C 79.99994659423828 62.09181594848633 62.09134674072266 80.00040435791016 39.99997329711914 80.00040435791016 C 17.90859985351562 80.00040435791016 0 62.09181594848633 0 40.00042724609375 L 0 39.99997711181641 C 0 17.90858840942383 17.90859985351562 0 39.99997329711914 0 Z" stroke="none" fill="#fff"/>
        </g>
      </g>
    </g>
    <g id="ropa" transform="translate(294.103 6107.022)">
      <path id="Trazado_1049186" data-name="Trazado 1049186" d="M25.194,8l-9.1,2.1a5.745,5.745,0,0,0-4.252,4.087L7,33.855A1.915,1.915,0,0,0,8.915,35.77h4.219A1.915,1.915,0,0,0,15,34.283l3.047-13.3a.711.711,0,0,1,1.4.181V58.752a.958.958,0,0,0,.958.958h7.737a.958.958,0,0,0,.958-.878L30.556,39a.383.383,0,0,1,.758,0l1.463,19.829a.958.958,0,0,0,.958.878h7.737a.958.958,0,0,0,.958-.958V21.163a.711.711,0,0,1,1.4-.181l3.047,13.3a1.915,1.915,0,0,0,1.867,1.487h4.219a1.915,1.915,0,0,0,1.915-1.915L50.037,14.187A5.745,5.745,0,0,0,45.786,10.1L36.685,8Z" transform="translate(-0.042 -0.297)" fill="#404040"/>
      <rect id="Rectángulo_407515" data-name="Rectángulo 407515" width="14" height="6" rx="1" transform="translate(23.897 1.685)" fill="#494949"/>
      <path id="Trazado_1049187" data-name="Trazado 1049187" d="M32.664,44H43.519v3.83H32.946Z" transform="translate(-1.131 -1.824)" fill="#ffd55d"/>
      <path id="Trazado_1049188" data-name="Trazado 1049188" d="M30.855,44H20v3.83H30.573Z" transform="translate(-0.594 -1.824)" fill="#ffd55d"/>
      <path id="Trazado_1049189" data-name="Trazado 1049189" d="M20,26H42.982v5.745H20Z" transform="translate(-0.594 -1.061)" fill="#ffd55d"/>
      <path id="Trazado_1049190" data-name="Trazado 1049190" d="M37.533,2H27V3.106A2.724,2.724,0,0,0,29.724,5.83h8.767V2.958A.958.958,0,0,0,37.533,2Z" transform="translate(-0.891 -0.042)" fill="#fff" opacity="0.05"/>
      <g id="Grupo_1181889" data-name="Grupo 1181889" transform="translate(6.958 20.152)">
        <path id="Trazado_1049191" data-name="Trazado 1049191" d="M20.958,61.83h7.737a.958.958,0,0,0,.958-.878L29.863,58H20v2.873A.958.958,0,0,0,20.958,61.83Z" transform="translate(-7.552 -22.57)" fill="#ffd55d"/>
        <path id="Trazado_1049192" data-name="Trazado 1049192" d="M33.914,60.952a.958.958,0,0,0,.958.878h7.733a.958.958,0,0,0,.958-.958V58H33.7Z" transform="translate(-8.133 -22.57)" fill="#ffd55d"/>
        <path id="Trazado_1049193" data-name="Trazado 1049193" d="M54.123,24.83,53.181,21H44.754v.011a.676.676,0,0,1,.67.522l.763,3.3Z" transform="translate(-8.602 -21)" fill="#ffd55d"/>
        <path id="Trazado_1049194" data-name="Trazado 1049194" d="M9.462,24.83H17.4l.756-3.3a.69.69,0,0,1,.656-.524V21H10.4Z" transform="translate(-7.104 -21)" fill="#ffd55d"/>
        <path id="Trazado_1049195" data-name="Trazado 1049195" d="M56.151,33H48.084l.536,2.343a1.915,1.915,0,0,0,1.867,1.487h4.219a1.915,1.915,0,0,0,1.915-1.915Z" transform="translate(-8.743 -21.509)" fill="#ffd55d"/>
        <path id="Trazado_1049196" data-name="Trazado 1049196" d="M7,34.915A1.915,1.915,0,0,0,8.915,36.83h4.219A1.915,1.915,0,0,0,15,35.343L15.538,33H7.471Z" transform="translate(-7 -21.509)" fill="#ffd55d"/>
        <path id="Trazado_1049197" data-name="Trazado 1049197" d="M20.958,61.83h7.737a.958.958,0,0,0,.958-.878L29.863,58H20v2.873A.958.958,0,0,0,20.958,61.83Z" transform="translate(-7.552 -22.57)" fill="#ffd55d"/>
        <path id="Trazado_1049198" data-name="Trazado 1049198" d="M33.914,60.952a.958.958,0,0,0,.958.878h7.733a.958.958,0,0,0,.958-.958V58H33.7Z" transform="translate(-8.133 -22.57)" fill="#ffd55d"/>
      </g>
      <path id="Trazado_1049199" data-name="Trazado 1049199" d="M20,21V59.3a.958.958,0,0,0,.958.958H23.83V24.83A3.83,3.83,0,0,0,20,21Z" transform="translate(-0.594 -0.848)" fill="#303030" opacity="0.3"/>
      <path id="Trazado_1049200" data-name="Trazado 1049200" d="M34.873,40H32v.007a.367.367,0,0,1,.383.352l1.463,19.829a.958.958,0,0,0,.958.878h1.832Z" transform="translate(-1.103 -1.655)" fill="#303030" opacity="0.3"/>
      <path id="Trazado_1049201" data-name="Trazado 1049201" d="M9.873,33.855l4.842-19.668A5.745,5.745,0,0,1,18.966,10.1l9.1-2.1H25.194l-9.1,2.1a5.745,5.745,0,0,0-4.252,4.087L7,33.855A1.915,1.915,0,0,0,8.915,35.77h2.873A1.915,1.915,0,0,1,9.873,33.855Z" transform="translate(-0.042 -0.297)" fill="#303030" opacity="0.3"/>
      <path id="Trazado_1049202" data-name="Trazado 1049202" d="M47.486,21h-2.88v.02a.688.688,0,0,1,.818.513l3.047,13.3a1.915,1.915,0,0,0,1.869,1.487H51.3Z" transform="translate(-1.638 -0.848)" fill="#303030" opacity="0.3"/>
      <path id="Trazado_1049203" data-name="Trazado 1049203" d="M8.873,36.43h4.219a2.857,2.857,0,0,0,2.8-2.231l2.557-11.159V58.455a1.915,1.915,0,0,0,1.915,1.915H28.1A1.928,1.928,0,0,0,30.009,58.6l.888-12.03.888,12.039a1.927,1.927,0,0,0,1.908,1.756H41.43a1.915,1.915,0,0,0,1.915-1.915V23.042L45.9,34.2a2.857,2.857,0,0,0,2.8,2.231h4.219a2.873,2.873,0,0,0,2.873-2.873.966.966,0,0,0-.028-.229L50.919,13.64a6.7,6.7,0,0,0-4.96-4.767L38.513,7.151a1.954,1.954,0,0,0,.045-.406V2.915A1.915,1.915,0,0,0,36.642,1H25.152a1.915,1.915,0,0,0-1.915,1.915v3.83a1.953,1.953,0,0,0,.045.406L15.835,8.87a6.7,6.7,0,0,0-4.966,4.788L6.028,33.329A.966.966,0,0,0,6,33.558,2.873,2.873,0,0,0,8.873,36.43Zm4.219-1.915H8.873a.958.958,0,0,1-.953-.862l.26-1.053h6.114l-.268,1.172A.958.958,0,0,1,13.092,34.515Zm1.641-3.83H8.651l1.414-5.745h5.984Zm-4.2-7.661.472-1.915h5.919l-.439,1.915ZM20.364,25.9H41.43v3.83H20.364Zm0,17.236h8.867l-.142,1.915H20.364Zm0,3.83h8.585l-.565,7.661h-8.02Zm0,11.491V56.539h7.879L28.1,58.455Zm9.2-19.822-.192,2.585H20.364V31.642H41.43v9.576H32.422l-.192-2.585a1.341,1.341,0,0,0-2.67,0Zm3.284,8.331H41.43v7.661h-8.02ZM32.7,45.048l-.142-1.915H41.43v1.915Zm.989,13.415-.142-1.924H41.43v1.915ZM51.258,23.024H45.306l-.439-1.915h5.92Zm-5.514,1.915h5.985l1.414,5.745H47.061Zm7.177,9.576H48.7a.958.958,0,0,1-.934-.743L47.5,32.6h6.114l.264,1.053a.958.958,0,0,1-.958.862Zm-27.77-31.6H36.642v3.83H25.152ZM12.723,14.143a4.779,4.779,0,0,1,3.543-3.406l9-2.076H36.532l9,2.076a4.775,4.775,0,0,1,3.532,3.382l1.245,5.075h-7.2V19.2a1.615,1.615,0,0,0-.225.01,1.653,1.653,0,0,0-1.456,1.656v3.116H20.364V20.866a1.628,1.628,0,0,0-1.436-1.659,1.827,1.827,0,0,0-.261-.013H11.479Z"/>
    </g>
  </g>
</svg>
