<svg xmlns="http://www.w3.org/2000/svg" width="76.345" height="76.345" viewBox="0 0 76.345 76.345">
  <g id="Grupo_1178877" data-name="Grupo 1178877" transform="translate(-1025.037 -3092.655)">
    <g id="Grupo_1111311" data-name="Grupo 1111311">
      <g id="Grupo_1098742" data-name="Grupo 1098742" transform="translate(1025.482 3093.101)">
        <g id="Rect치ngulo_400898" data-name="Rect치ngulo 400898" transform="translate(-0.445 -0.445)" fill="#f58d17" stroke="#c47112" stroke-width="2" opacity="0.859">
          <rect width="76.345" height="76.345" rx="38.172" stroke="none"/>
          <rect x="1" y="1" width="74.345" height="74.345" rx="37.172" fill="none"/>
        </g>
        <g id="Rect치ngulo_400907" data-name="Rect치ngulo 400907" transform="translate(-0.446 -0.445)" fill="none" stroke="#c47112" stroke-width="2">
          <rect width="76.345" height="76.345" rx="38.172" stroke="none"/>
          <rect x="1" y="1" width="74.345" height="74.345" rx="37.172" fill="none"/>
        </g>
      </g>
    </g>
    <g id="biochemist_2317919" transform="translate(1035.239 3100.926)">
      <path id="Trazado_1047900" data-name="Trazado 1047900" d="M41.225,43.6V42.321A5.174,5.174,0,0,0,37.764,41H36.032s-.866,5.194-2.6,7.792L28.24,45.329l-5.194,3.463c-1.731-2.6-2.6-7.792-2.6-7.792h-2.6a4.329,4.329,0,0,0-4.329,4.329v6.926L11.792,41H4L6.6,58.315H37.762a1.731,1.731,0,0,1-1.6-2.4Z" transform="translate(-0.269 -5.189)" fill="#fff"/>
      <path id="Trazado_1047901" data-name="Trazado 1047901" d="M9,26h5.194V37.255H9Z" transform="translate(-0.94 -3.175)" fill="#71caf0"/>
      <g id="Grupo_1181416" data-name="Grupo 1181416" transform="translate(14.986 8.973)">
        <path id="Trazado_1047902" data-name="Trazado 1047902" d="M44.3,24.329A2.164,2.164,0,1,0,44.3,20H43v4.329Z" transform="translate(-20.491 -11.342)" fill="#fce0b9"/>
        <path id="Trazado_1047903" data-name="Trazado 1047903" d="M19.164,20a2.164,2.164,0,0,0,0,4.329h1.3V20Z" transform="translate(-17 -11.342)" fill="#fce0b9"/>
        <path id="Trazado_1047904" data-name="Trazado 1047904" d="M38.4,12.411a3.833,3.833,0,0,0-5.787-1.7,3.833,3.833,0,0,1-4.26.132l-.378-.236a3.834,3.834,0,0,0-5.73,2.242L21,18.657v6.06h.043a9.519,9.519,0,0,0,18.96,0h.043v-6.06Z" transform="translate(-17.537 -10)" fill="#fce0b9"/>
      </g>
      <path id="Trazado_1047905" data-name="Trazado 1047905" d="M9,39v3.463a2.6,2.6,0,1,0,5.194,0V39Z" transform="translate(-0.94 -4.921)" fill="#78af4f"/>
      <path id="Trazado_1047906" data-name="Trazado 1047906" d="M58.179,54.306,56.19,49.461l-3.068-7.475V31.6h.433a1.3,1.3,0,0,0,0-2.6h-7.8a1.3,1.3,0,0,0,0,2.6h.433V41.986l-5.061,12.32a1.731,1.731,0,0,0,1.6,2.4H56.581A1.731,1.731,0,0,0,58.179,54.306Z" transform="translate(-5.236 -3.578)" fill="#71caf0"/>
      <path id="Trazado_1047907" data-name="Trazado 1047907" d="M8.194,40.079V34.463H9.06A1.731,1.731,0,1,0,9.06,31H3.866A.866.866,0,0,0,3,31.866l1.133,8.213Z" transform="translate(-0.134 -3.846)" fill="#fce0b9"/>
      <path id="Trazado_1047908" data-name="Trazado 1047908" d="M27.837,9.718l.378.236a3.833,3.833,0,0,0,4.26-.132,3.833,3.833,0,0,1,5.787,1.7l1.649,6.246-.361-8.637a6.836,6.836,0,0,0-9.445-5.217L26.06,5.645A6.06,6.06,0,0,0,20,11.7l.866,6.06,1.241-5.8A3.834,3.834,0,0,1,27.837,9.718Z" transform="translate(-2.417 -0.134)" fill="#665642"/>
      <path id="Trazado_1047909" data-name="Trazado 1047909" d="M32,22.6a3.463,3.463,0,0,0,3.463,3.463h4.329a1.731,1.731,0,0,0,1.731-1.731V20H32Zm4.329-.866a.866.866,0,1,1-.866.866A.866.866,0,0,1,36.329,21.731Z" transform="translate(-4.028 -2.369)" fill="#71caf0"/>
      <circle id="Elipse_11893" data-name="Elipse 11893" cx="0.866" cy="0.866" r="0.866" transform="translate(31.435 19.362)" fill="#fff"/>
      <path id="Trazado_1047910" data-name="Trazado 1047910" d="M22.731,26.06H27.06A3.463,3.463,0,0,0,30.523,22.6V20H21v4.329A1.731,1.731,0,0,0,22.731,26.06Zm3.463-4.329a.866.866,0,1,1-.866.866A.866.866,0,0,1,26.194,21.731Z" transform="translate(-2.551 -2.369)" fill="#71caf0"/>
      <circle id="Elipse_11894" data-name="Elipse 11894" cx="0.866" cy="0.866" r="0.866" transform="translate(22.778 19.362)" fill="#fff"/>
      <path id="Trazado_1047911" data-name="Trazado 1047911" d="M51,37.731v3.463a1.731,1.731,0,0,0,1.731,1.731h3.465a.866.866,0,0,0,.866-.866V36.866A.866.866,0,0,0,56.194,36H52.729A1.731,1.731,0,0,0,51,37.731Z" transform="translate(-6.579 -4.518)" fill="#fce0b9"/>
      <path id="Trazado_1047912" data-name="Trazado 1047912" d="M12,32.731a1.731,1.731,0,0,0,1.731,1.731h2.6a.866.866,0,0,0,.866-.866V31.866A.866.866,0,0,0,16.329,31h-2.6A1.731,1.731,0,0,0,12,32.731Z" transform="translate(-1.343 -3.846)" fill="#fce0b9"/>
      <path id="Trazado_1047913" data-name="Trazado 1047913" d="M49.194,36.731A1.731,1.731,0,0,0,47.463,35h-2.6a.866.866,0,0,0-.866.866V37.6a.866.866,0,0,0,.866.866h2.6A1.731,1.731,0,0,0,49.194,36.731Z" transform="translate(-5.639 -4.383)" fill="#fce0b9"/>
      <circle id="Elipse_11895" data-name="Elipse 11895" cx="1.731" cy="1.731" r="1.731" transform="translate(46.152 15.899)" fill="#fca947"/>
      <circle id="Elipse_11896" data-name="Elipse 11896" cx="1.731" cy="1.731" r="1.731" transform="translate(43.555 6.376)" fill="#fca947"/>
      <path id="Trazado_1047914" data-name="Trazado 1047914" d="M50.032,52.478a5.566,5.566,0,0,0-4.551-.738l-2.312.63L41.13,57.333a1.732,1.732,0,0,0,1.6,2.4H56.581a1.731,1.731,0,0,0,1.6-2.4L56.19,52.488A5.565,5.565,0,0,1,50.032,52.478Z" transform="translate(-5.236 -6.605)" fill="#fca947"/>
      <path id="Trazado_1047915" data-name="Trazado 1047915" d="M42.729,59.85H53.086l-.481-.19a20.637,20.637,0,0,1-9.24-7.225l-.195.053-2.039,4.963a1.732,1.732,0,0,0,1.6,2.4Z" transform="translate(-5.236 -6.725)" fill="#e68f29"/>
      <path id="Trazado_1047916" data-name="Trazado 1047916" d="M31.329,36.839A9.47,9.47,0,0,1,27,35.8v3.638l4.329,5.194,4.329-5.194V35.8A9.47,9.47,0,0,1,31.329,36.839Z" transform="translate(-3.357 -4.491)" fill="#fce0b9"/>
      <path id="Trazado_1047917" data-name="Trazado 1047917" d="M26.06,7.07l4.046-1.734a6.836,6.836,0,0,1,9.445,5.217l.291,6.943.07.269-.361-8.637a6.836,6.836,0,0,0-9.445-5.217L26.06,5.645A6.06,6.06,0,0,0,20,11.7l.074.522A6.057,6.057,0,0,1,26.06,7.07Z" transform="translate(-2.417 -0.134)" fill="#735f47"/>
      <path id="Trazado_1047918" data-name="Trazado 1047918" d="M28.842,36.423l5.385,5.026L35.9,39.436V35.8a9.4,9.4,0,0,1-7.063.625Z" transform="translate(-3.604 -4.491)" fill="#f5cba1"/>
      <path id="Trazado_1047919" data-name="Trazado 1047919" d="M38.369,41s-.866,5.194-2.6,7.792l-.063-.042c-.009.013-.016.029-.025.042l-5.15-3.433,0,0s-5.165,3.4-5.174,3.39l-.062.042-.1-.307c-1.522-2.539-2.324-6.986-2.4-7.437,0-.029-.008-.047-.008-.047H21.4c.5,2.551,1.333,7.044,2.75,9.583a.869.869,0,0,0,1.243.3l5.09-3.394,5.09,3.394a.87.87,0,0,0,1.243-.3C38.24,48.043,39.351,43.55,39.913,41H38.369Z" transform="translate(-2.605 -5.189)" fill="#ccc"/>
      <path id="Trazado_1047920" data-name="Trazado 1047920" d="M39.792,40.6,36.329,38v1.731L32,44.926l5.194,3.463C38.926,45.792,39.792,40.6,39.792,40.6Z" transform="translate(-4.028 -4.786)" fill="#fff"/>
      <path id="Trazado_1047921" data-name="Trazado 1047921" d="M26.463,38,23,40.6s.866,5.194,2.6,7.792l5.194-3.463-4.329-5.194Z" transform="translate(-2.82 -4.786)" fill="#fff"/>
      <path id="Trazado_1047922" data-name="Trazado 1047922" d="M11.6,43.6A2.6,2.6,0,0,1,9,41v1.731a2.6,2.6,0,1,0,5.194,0V41A2.6,2.6,0,0,1,11.6,43.6Z" transform="translate(-0.94 -5.189)" fill="#619c35"/>
      <path id="Trazado_1047923" data-name="Trazado 1047923" d="M26.765,24.28a1.515,1.515,0,1,1,1.515-1.515A1.517,1.517,0,0,1,26.765,24.28Zm0-1.731a.217.217,0,0,0-.216.216c0,.238.433.238.433,0A.217.217,0,0,0,26.765,22.549Z" transform="translate(-3.122 -2.537)"/>
      <path id="Trazado_1047924" data-name="Trazado 1047924" d="M36.765,24.28a1.515,1.515,0,1,1,1.515-1.515A1.517,1.517,0,0,1,36.765,24.28Zm0-1.731a.217.217,0,0,0-.216.216c0,.238.433.238.433,0A.217.217,0,0,0,36.765,22.549Z" transform="translate(-4.464 -2.537)"/>
      <path id="Trazado_1047925" data-name="Trazado 1047925" d="M31.5,33.246A3.251,3.251,0,0,1,28.25,30h1.3a1.948,1.948,0,0,0,3.9,0h1.3A3.251,3.251,0,0,1,31.5,33.246Z" transform="translate(-3.525 -3.712)"/>
      <path id="Trazado_1047926" data-name="Trazado 1047926" d="M5.472,53.244a.864.864,0,0,0,.857.747H51.345a2.6,2.6,0,0,0,2.4-3.592L49.176,39.274h.439a1.733,1.733,0,0,0,1.731-1.731V32.348a1.733,1.733,0,0,0-1.731-1.731h-.864V28.842a2.165,2.165,0,0,0-.433-4.285h-7.8a2.165,2.165,0,0,0-.433,4.285v.909h-.864a1.733,1.733,0,0,0-1.731,1.731v1.731a1.733,1.733,0,0,0,1.731,1.731h.864v.587a6.051,6.051,0,0,0-2.6-.587H36.052l-2.885-2.164v-.973a10.386,10.386,0,0,0,5.194-8.984h.433a3.03,3.03,0,1,0,0-6.059h-.468L38,8.957a.763.763,0,0,0-.01-.1A7.7,7.7,0,0,0,27.348,2.981L23.46,4.647a6.933,6.933,0,0,0-6.742,6.923.839.839,0,0,0,.009.123l.725,5.071h-.3a3.03,3.03,0,1,0,0,6.06h.433a10.387,10.387,0,0,0,5.194,8.984v.972l-2.885,2.164H18.449a6.037,6.037,0,0,0-4.329,1.828v-5.29h.866a1.733,1.733,0,0,0,1.731-1.731V28.019a1.733,1.733,0,0,0-1.731-1.731H14.12V22.825a.865.865,0,0,0-.866-.866H8.06a.865.865,0,0,0-.866.866v3.463H3.731A1.733,1.733,0,0,0,2,28.019a.773.773,0,0,0,.009.119Zm46.593-1.37a.85.85,0,0,1-.719.385H37.493a.866.866,0,0,1-.8-1.2l1.877-4.568,1.9-.519a4.7,4.7,0,0,1,3.842.624,6.388,6.388,0,0,0,6.2.509l1.625,3.958a.847.847,0,0,1-.079.813ZM49.617,37.542H46.151a.866.866,0,0,1-.866-.866V33.214a.866.866,0,0,1,.866-.866h3.465ZM40.956,27.154h-.433a.433.433,0,0,1,0-.866h7.8a.433.433,0,0,1,0,.866h-3.9v1.731h2.6v1.731h-.869a2.584,2.584,0,0,0-1.9.837,2.592,2.592,0,0,0-2.428-1.7h0V28.019A.865.865,0,0,0,40.956,27.154Zm-1.73,4.329h2.6a.866.866,0,1,1,0,1.731h-2.6Zm2.6,3.463a2.577,2.577,0,0,0,1.73-.674v2.406a2.6,2.6,0,0,0,2.6,2.6h1.155l2.557,6.23a4.692,4.692,0,0,1-4.586-.351,6.441,6.441,0,0,0-5.258-.854l-.616.168,2.354-5.73a.857.857,0,0,0,.065-.329V34.945ZM40.09,37.564v.674L35.1,50.4a2.593,2.593,0,0,0-.052,1.865H28.838v-10.5l3.848,2.566a.867.867,0,0,0,1.2-.24c1.436-2.155,2.286-5.85,2.6-7.406h1.013A4.306,4.306,0,0,1,40.09,37.564Zm-5.277-1.383a26.365,26.365,0,0,1-1.931,6.192l-3.629-2.419L32.965,35.5a.867.867,0,0,0,.2-.555ZM19.315,18.5h7.792v1.731a2.6,2.6,0,0,1-2.6,2.6H20.18a.866.866,0,0,1-.866-.866Zm.2-1.731,1.006-4.71a2.968,2.968,0,0,1,4.436-1.737l.379.236a4.686,4.686,0,0,0,5.222-.162,2.967,2.967,0,0,1,4.461,1.267l1.348,5.105H19.519ZM28.838,18.5h7.792v3.463a.866.866,0,0,1-.866.866H31.435a2.6,2.6,0,0,1-2.6-2.6Zm11.255,1.3a1.3,1.3,0,0,1-1.3,1.3h-.433V18.5h.433A1.3,1.3,0,0,1,40.092,19.795ZM23.643,6.376a.853.853,0,0,0,.341-.07L28.03,4.572a5.972,5.972,0,0,1,8.242,4.51l.055,1.325a4.7,4.7,0,0,0-6.772-1.422,2.96,2.96,0,0,1-3.3.1l-.379-.236a4.7,4.7,0,0,0-7.035,2.8l-.225,1.05-.169-1.183A5.2,5.2,0,0,1,23.643,6.376ZM17.15,21.093a1.3,1.3,0,1,1,0-2.6h.433v2.6Zm2.322,3.352a2.56,2.56,0,0,0,.708.111h4.329A4.313,4.313,0,0,0,27.972,22.8a4.313,4.313,0,0,0,3.463,1.758h4.329a2.56,2.56,0,0,0,.708-.111,8.652,8.652,0,0,1-17,0Zm8.5,8.768a10.321,10.321,0,0,0,3.463-.606v2.024l-3.463,4.156-3.463-4.156V32.608A10.321,10.321,0,0,0,27.972,33.214Zm-5.194,1.731a.869.869,0,0,0,.2.555l3.711,4.454L23.06,42.373a26.336,26.336,0,0,1-1.931-6.192ZM13.255,47.931a.865.865,0,0,0,.866-.866v-6.06a4.334,4.334,0,0,1,4.329-4.329h1.013c.31,1.557,1.159,5.252,2.6,7.406a.866.866,0,0,0,1.2.24l3.848-2.566v10.5H20.18V48.8H18.449V52.26H7.083L4.992,37.1h2.2v.444a3.466,3.466,0,0,0,3.463,3.463,3.422,3.422,0,0,0,1.757-.5c-.013.164-.025.328-.025.5V46.2H10.657v1.731ZM8.926,34.945h3.463v2.6a1.731,1.731,0,1,1-3.463,0Zm3.463-1.731H8.926V31.482a2.58,2.58,0,0,0,1.731-.675,2.576,2.576,0,0,0,1.731.675Zm2.6-3.463h-2.6a.866.866,0,1,1,0-1.731h2.6Zm-6.062-6.06h3.463v2.6a2.58,2.58,0,0,0-1.731.675,2.576,2.576,0,0,0-1.731-.675Zm0,4.329a.866.866,0,1,1,0,1.731h-2.6v1.731h.866v3.885H4.753L3.74,28.019Z" transform="translate(0 0)"/>
      <path id="Trazado_1047927" data-name="Trazado 1047927" d="M54.6,22.194A2.6,2.6,0,1,0,52,19.6,2.6,2.6,0,0,0,54.6,22.194Zm0-3.463a.866.866,0,1,1-.866.866A.866.866,0,0,1,54.6,18.731Z" transform="translate(-6.713 -1.967)"/>
      <path id="Trazado_1047928" data-name="Trazado 1047928" d="M54.194,8.6a2.6,2.6,0,1,0-2.6,2.6A2.6,2.6,0,0,0,54.194,8.6Zm-2.6.866a.866.866,0,1,1,.866-.866A.866.866,0,0,1,51.6,9.463Z" transform="translate(-6.311 -0.49)"/>
    </g>
  </g>
</svg>
