<svg xmlns="http://www.w3.org/2000/svg" xmlns:xlink="http://www.w3.org/1999/xlink" width="74.235" height="74.235" viewBox="0 0 74.235 74.235">
  <defs>
    <clipPath id="clip-path">
      <path id="path1659" d="M0-682.665H74.235v74.235H0Z" transform="translate(0 682.665)"/>
    </clipPath>
  </defs>
  <g id="g1653" transform="translate(-37 623.128)">
    <g id="g1655" transform="translate(37 -623.128)">
      <g id="g1657" clip-path="url(#clip-path)">
        <g id="g1663" transform="translate(11.851 21.885)">
          <path id="path1665" d="M-52.818,0l-6.444,2.49,6.444,9.52V48.333a2.929,2.929,0,0,0,2.929,2.929h35.151a2.929,2.929,0,0,0,2.929-2.929V0Z" transform="translate(59.263)" fill="#eff3f5"/>
        </g>
        <g id="g1667" transform="translate(51.982 21.885)">
          <path id="path1669" d="M-24.008,0V48.333a2.929,2.929,0,0,1-2.929,2.929h4.394a2.929,2.929,0,0,0,2.929-2.929V0Z" transform="translate(26.937)" fill="#c9e2e7"/>
        </g>
        <g id="g1671" transform="translate(22.689 35.376)">
          <path id="path1673" d="M0-15.472v31.49H32.222v-31.49s-5.739,4.931-16.111,0A17.958,17.958,0,0,0,0-15.472" transform="translate(0 17.36)" fill="#97e4f9"/>
        </g>
        <g id="g1675" transform="translate(50.957 37.264)">
          <path id="path1677" d="M0-14.745V14.946H3.954v-31.49A10.143,10.143,0,0,1,0-14.745" transform="translate(0 16.544)" fill="#0acefa"/>
        </g>
        <g id="g1679" transform="translate(35.431 1.087)">
          <path id="path1681" d="M-60.8-385.416l10.74-44.315a2.2,2.2,0,0,0-1.624-2.649,2.2,2.2,0,0,0-2.649,1.624l-10.74,44.315a4.391,4.391,0,0,0-3.084,3.48,4.412,4.412,0,0,0,3.028,4.928,4.394,4.394,0,0,0,5.577-3.171,4.39,4.39,0,0,0-1.249-4.212" transform="translate(68.221 432.441)" fill="#eaeaea"/>
        </g>
        <g id="g1683" transform="translate(35.431 38.101)">
          <path id="path1685" d="M-25.326-142.568a4.394,4.394,0,0,0,5.577-3.171A4.391,4.391,0,0,0-21-149.951l2.148-8.863a21.05,21.05,0,0,1-4.243-1.148l-2.178,8.986a4.391,4.391,0,0,0-3.084,3.48,4.412,4.412,0,0,0,3.028,4.928" transform="translate(28.416 159.962)" fill="#cbcbcb"/>
        </g>
        <g id="g1687" transform="translate(22.689 43.269)">
          <path id="path1689" d="M0,0H4.687" fill="none" stroke="#000" stroke-linecap="round" stroke-linejoin="round" stroke-miterlimit="10" stroke-width="2"/>
        </g>
        <g id="g1691" transform="translate(22.689 47.663)">
          <path id="path1693" d="M0,0H4.687" fill="none" stroke="#000" stroke-linecap="round" stroke-linejoin="round" stroke-miterlimit="10" stroke-width="2"/>
        </g>
        <g id="g1695" transform="translate(22.689 52.057)">
          <path id="path1697" d="M0,0H4.687" fill="none" stroke="#000" stroke-linecap="round" stroke-linejoin="round" stroke-miterlimit="10" stroke-width="2"/>
        </g>
        <g id="g1699" transform="translate(22.689 56.451)">
          <path id="path1701" d="M0,0H4.687" fill="none" stroke="#000" stroke-linecap="round" stroke-linejoin="round" stroke-miterlimit="10" stroke-width="2"/>
        </g>
        <g id="g1703" transform="translate(22.689 60.845)">
          <path id="path1705" d="M0,0H4.687" fill="none" stroke="#000" stroke-linecap="round" stroke-linejoin="round" stroke-miterlimit="10" stroke-width="2"/>
        </g>
        <g id="g1707" transform="translate(35.431 1.087)">
          <path id="path1709" d="M-60.8-385.416l10.74-44.315a2.2,2.2,0,0,0-1.624-2.649,2.2,2.2,0,0,0-2.649,1.624l-10.74,44.315a4.391,4.391,0,0,0-3.084,3.48,4.412,4.412,0,0,0,3.028,4.928,4.394,4.394,0,0,0,5.577-3.171A4.39,4.39,0,0,0-60.8-385.416Z" transform="translate(68.221 432.441)" fill="none" stroke="#000" stroke-linecap="round" stroke-linejoin="round" stroke-miterlimit="10" stroke-width="2"/>
        </g>
        <g id="g1711" transform="translate(36.02 9.754)">
          <path id="path1713" d="M-170.813-5.149c3.343.638,5.522,1.682,5.522,2.861,0,1.941-5.9,3.515-13.182,3.515s-13.182-1.574-13.182-3.515c0-1.8,5.056-3.279,11.582-3.489" transform="translate(191.654 5.777)" fill="none" stroke="#000" stroke-linecap="round" stroke-linejoin="round" stroke-miterlimit="10" stroke-width="2"/>
        </g>
        <g id="g1715" transform="translate(22.689 35.376)">
          <path id="path1717" d="M-73.308-273.562H-50.03v-31.49s-5.739,4.931-16.111,0a17.958,17.958,0,0,0-16.111,0v31.49h3.828" transform="translate(82.252 306.939)" fill="none" stroke="#000" stroke-linecap="round" stroke-linejoin="round" stroke-miterlimit="10" stroke-width="2"/>
        </g>
        <g id="g1719" transform="translate(11.852 21.885)">
          <path id="path1721" d="M-388.932-121.961v33.453a2.93,2.93,0,0,1-2.929,2.929h-35.151a2.93,2.93,0,0,1-2.93-2.929V-124.83l-6.443-9.52,6.443-2.491h41.011v9.777" transform="translate(436.386 136.841)" fill="none" stroke="#000" stroke-linecap="round" stroke-linejoin="round" stroke-miterlimit="10" stroke-width="2"/>
        </g>
      </g>
    </g>
  </g>
</svg>
