<svg xmlns="http://www.w3.org/2000/svg" width="62.065" height="73.559" viewBox="0 0 62.065 73.559">
  <g id="Grupo_1181649" data-name="Grupo 1181649" transform="translate(-818.873 -1985.179)">
    <g id="Grupo_1181605" data-name="Grupo 1181605" transform="translate(-1 -1)">
      <g id="beaker_16350675" transform="translate(443.873 1730.182)">
        <g id="XMLID_10_" transform="translate(376 255.997)">
          <g id="Grupo_1181632" data-name="Grupo 1181632" transform="translate(1.149 1.149)">
            <g id="Grupo_1181624" data-name="Grupo 1181624" transform="translate(36.903 53.746)">
              <ellipse id="Elipse_12010" data-name="Elipse 12010" cx="2.183" cy="2.495" rx="2.183" ry="2.495" transform="translate(0 0)" fill="#199dfb"/>
            </g>
            <g id="Grupo_1181625" data-name="Grupo 1181625" transform="translate(41.27 38.775)">
              <circle id="Elipse_12011" data-name="Elipse 12011" cx="2.495" cy="2.495" r="2.495" transform="translate(0 0)" fill="#199dfb"/>
            </g>
            <g id="Grupo_1181626" data-name="Grupo 1181626" transform="translate(24.427 42.517)">
              <circle id="Elipse_12012" data-name="Elipse 12012" cx="3.431" cy="3.431" r="3.431" transform="translate(0 0)" fill="#199dfb"/>
            </g>
            <g id="Grupo_1181627" data-name="Grupo 1181627" transform="translate(11.494 29.884)">
              <path id="Trazado_1048625" data-name="Trazado 1048625" d="M640,936.182V904h43.676v36.78H640Zm34.481-20.689a2.3,2.3,0,1,0-2.3,2.3A2.3,2.3,0,0,0,674.481,915.494Zm-4.6,14.942a2.3,2.3,0,1,0-2.3,2.3A2.3,2.3,0,0,0,669.884,930.435Zm-10.344-10.344a3.448,3.448,0,1,0-3.448,3.448A3.448,3.448,0,0,0,659.539,920.091Z" transform="translate(-640 -904)" fill="#52b1fc"/>
            </g>
            <g id="Grupo_1181628" data-name="Grupo 1181628" transform="translate(46.26 2.593)">
              <circle id="Elipse_12013" data-name="Elipse 12013" cx="2.183" cy="2.183" r="2.183" transform="translate(0)" fill="#bedfff"/>
            </g>
            <g id="Grupo_1181629" data-name="Grupo 1181629" transform="translate(26.729)">
              <path id="Trazado_1048626" data-name="Trazado 1048626" d="M964.424,282.894a3.155,3.155,0,1,1-3.4-2.886A3.155,3.155,0,0,1,964.424,282.894Z" transform="translate(-958.125 -279.997)" fill="#bedfff"/>
            </g>
            <g id="Grupo_1181630" data-name="Grupo 1181630" transform="translate(20.684 19.436)">
              <ellipse id="Elipse_12014" data-name="Elipse 12014" cx="2.183" cy="2.495" rx="2.183" ry="2.495" transform="translate(0 0)" fill="#bedfff"/>
            </g>
            <g id="Grupo_1181631" data-name="Grupo 1181631" transform="translate(0 11.494)">
              <path id="Trazado_1048627" data-name="Trazado 1048627" d="M459.767,520v54.865a4.9,4.9,0,0,1-4.9,4.9H411.8a4.9,4.9,0,0,1-4.9-4.9V530.344L400,520Zm-4.6,55.17V538.39H411.494v36.78Zm-29.883-44.825a2.3,2.3,0,1,0-2.3,2.3A2.3,2.3,0,0,0,425.286,530.344Z" transform="translate(-400 -520)" fill="#d5eafd"/>
            </g>
          </g>
          <g id="Grupo_1181648" data-name="Grupo 1181648" transform="translate(0)">
            <g id="Grupo_1181633" data-name="Grupo 1181633" transform="translate(0 11.494)">
              <path id="Trazado_1048628" data-name="Trazado 1048628" d="M432.015,558.066H388.948a6.058,6.058,0,0,1-6.051-6.051V507.842l-6.7-10.055A1.149,1.149,0,0,1,377.15,496h59.767a1.149,1.149,0,0,1,1.149,1.149v54.865A6.058,6.058,0,0,1,432.015,558.066ZM379.3,498.3l5.7,8.557a1.15,1.15,0,0,1,.193.638v44.521a3.757,3.757,0,0,0,3.753,3.753h43.067a3.757,3.757,0,0,0,3.753-3.753V498.3Z" transform="translate(-376 -496)" fill="#333"/>
            </g>
            <g id="Grupo_1181634" data-name="Grupo 1181634" transform="translate(11.494 29.884)">
              <path id="Trazado_1048629" data-name="Trazado 1048629" d="M660.825,919.078H617.149A1.149,1.149,0,0,1,616,917.929v-36.78A1.149,1.149,0,0,1,617.149,880h43.676a1.149,1.149,0,0,1,1.149,1.149v36.78A1.149,1.149,0,0,1,660.825,919.078Zm-42.526-2.3h41.377V882.3H618.3Z" transform="translate(-616 -880)" fill="#333"/>
            </g>
            <g id="Grupo_1181635" data-name="Grupo 1181635" transform="translate(11.494 34.481)">
              <path id="Trazado_1048630" data-name="Trazado 1048630" d="M621.747,978.3h-4.6a1.149,1.149,0,1,1,0-2.3h4.6a1.149,1.149,0,0,1,0,2.3Z" transform="translate(-616 -976)" fill="#333"/>
            </g>
            <g id="Grupo_1181636" data-name="Grupo 1181636" transform="translate(11.494 39.079)">
              <path id="Trazado_1048631" data-name="Trazado 1048631" d="M622.9,1074.3h-5.747a1.149,1.149,0,1,1,0-2.3H622.9a1.149,1.149,0,1,1,0,2.3Z" transform="translate(-616 -1072)" fill="#333"/>
            </g>
            <g id="Grupo_1181637" data-name="Grupo 1181637" transform="translate(11.494 43.676)">
              <path id="Trazado_1048632" data-name="Trazado 1048632" d="M621.747,1170.3h-4.6a1.149,1.149,0,0,1,0-2.3h4.6a1.149,1.149,0,0,1,0,2.3Z" transform="translate(-616 -1168)" fill="#333"/>
            </g>
            <g id="Grupo_1181638" data-name="Grupo 1181638" transform="translate(11.494 48.273)">
              <path id="Trazado_1048633" data-name="Trazado 1048633" d="M622.9,1266.3h-5.747a1.149,1.149,0,0,1,0-2.3H622.9a1.149,1.149,0,0,1,0,2.3Z" transform="translate(-616 -1264)" fill="#333"/>
            </g>
            <g id="Grupo_1181639" data-name="Grupo 1181639" transform="translate(11.494 52.871)">
              <path id="Trazado_1048634" data-name="Trazado 1048634" d="M621.747,1362.3h-4.6a1.149,1.149,0,0,1,0-2.3h4.6a1.149,1.149,0,0,1,0,2.3Z" transform="translate(-616 -1360)" fill="#333"/>
            </g>
            <g id="Grupo_1181640" data-name="Grupo 1181640" transform="translate(11.494 57.468)">
              <path id="Trazado_1048635" data-name="Trazado 1048635" d="M622.9,1458.3h-5.747a1.149,1.149,0,0,1,0-2.3H622.9a1.149,1.149,0,0,1,0,2.3Z" transform="translate(-616 -1456)" fill="#333"/>
            </g>
            <g id="Grupo_1181641" data-name="Grupo 1181641" transform="translate(11.494 62.066)">
              <path id="Trazado_1048636" data-name="Trazado 1048636" d="M621.747,1554.3h-4.6a1.149,1.149,0,0,1,0-2.3h4.6a1.149,1.149,0,0,1,0,2.3Z" transform="translate(-616 -1552)" fill="#333"/>
            </g>
            <g id="Grupo_1181642" data-name="Grupo 1181642" transform="translate(24.137 42.527)">
              <path id="Trazado_1048637" data-name="Trazado 1048637" d="M884.6,1153.195a4.6,4.6,0,1,1,4.6-4.6A4.6,4.6,0,0,1,884.6,1153.195Zm0-6.9a2.3,2.3,0,1,0,2.3,2.3A2.3,2.3,0,0,0,884.6,1146.3Z" transform="translate(-880 -1144)" fill="#333"/>
            </g>
            <g id="Grupo_1181643" data-name="Grupo 1181643" transform="translate(41.377 39.079)">
              <path id="Trazado_1048638" data-name="Trazado 1048638" d="M1243.448,1078.9a3.448,3.448,0,1,1,3.448-3.448A3.452,3.452,0,0,1,1243.448,1078.9Zm0-4.6a1.149,1.149,0,1,0,1.149,1.149A1.151,1.151,0,0,0,1243.448,1074.3Z" transform="translate(-1240 -1072)" fill="#333"/>
            </g>
            <g id="Grupo_1181644" data-name="Grupo 1181644" transform="translate(36.78 54.02)">
              <path id="Trazado_1048639" data-name="Trazado 1048639" d="M1147.448,1390.9a3.448,3.448,0,1,1,3.448-3.448A3.452,3.452,0,0,1,1147.448,1390.9Zm0-4.6a1.149,1.149,0,1,0,1.149,1.149A1.151,1.151,0,0,0,1147.448,1386.3Z" transform="translate(-1144 -1384)" fill="#333"/>
            </g>
            <g id="Grupo_1181645" data-name="Grupo 1181645" transform="translate(20.689 19.539)">
              <path id="Trazado_1048640" data-name="Trazado 1048640" d="M811.448,670.9a3.448,3.448,0,1,1,3.448-3.448A3.452,3.452,0,0,1,811.448,670.9Zm0-4.6a1.149,1.149,0,1,0,1.149,1.149A1.151,1.151,0,0,0,811.448,666.3Z" transform="translate(-808 -664)" fill="#333"/>
            </g>
            <g id="Grupo_1181646" data-name="Grupo 1181646" transform="translate(45.975 2.299)">
              <path id="Trazado_1048641" data-name="Trazado 1048641" d="M1339.448,310.9a3.448,3.448,0,1,1,3.448-3.448A3.452,3.452,0,0,1,1339.448,310.9Zm0-4.6a1.149,1.149,0,1,0,1.149,1.149A1.151,1.151,0,0,0,1339.448,306.3Z" transform="translate(-1336 -304)" fill="#333"/>
            </g>
            <g id="Grupo_1181647" data-name="Grupo 1181647" transform="translate(26.729)">
              <path id="Trazado_1048642" data-name="Trazado 1048642" d="M938.419,264.606a4.315,4.315,0,1,1,.359-.015Q938.6,264.606,938.419,264.606Zm.009-6.31q-.082,0-.165.007a2.005,2.005,0,1,0,2.162,1.835h0A2.008,2.008,0,0,0,938.428,258.3Z" transform="translate(-934.122 -255.997)" fill="#333"/>
            </g>
          </g>
        </g>
      </g>
    </g>
  </g>
</svg>
