<svg xmlns="http://www.w3.org/2000/svg" width="51.089" height="73.667" viewBox="0 0 51.089 73.667">
  <g id="Grupo_1181652" data-name="Grupo 1181652" transform="translate(-827.257 -1978.125)">
    <g id="Grupo_1181597" data-name="Grupo 1181597" transform="translate(-20 -1)">
      <g id="stir_10308938" transform="translate(760.757 1970.125)">
        <g id="Grupo_1181650" data-name="Grupo 1181650" transform="translate(87.5 26.602)">
          <path id="Trazado_1048643" data-name="Trazado 1048643" d="M131.843,133.356l4.746-9.381H87.5v20.311h44.343Z" transform="translate(-87.5 -123.975)" fill="#fff"/>
          <path id="Trazado_1048644" data-name="Trazado 1048644" d="M92.667,298.164h34.008A5.167,5.167,0,0,0,131.843,293V263.41H87.5V293A5.168,5.168,0,0,0,92.667,298.164Z" transform="translate(-87.5 -243.099)" fill="#66e0f7"/>
        </g>
        <path id="Trazado_1048645" data-name="Trazado 1048645" d="M167.5,79.3,154.094,10H147.82l13.86,71.667Z" transform="translate(-51.534)" fill="#ffcd69"/>
        <path id="Trazado_1048646" data-name="Trazado 1048646" d="M167.5,79.3,154.094,10H147.82l13.86,71.667Z" transform="translate(-51.534)" fill="none" stroke="#000" stroke-linecap="round" stroke-linejoin="round" stroke-miterlimit="10" stroke-width="2"/>
        <path id="Trazado_1048647" data-name="Trazado 1048647" d="M113.4,123.974H87.5v49.9a5.167,5.167,0,0,0,5.167,5.167h34.008a5.167,5.167,0,0,0,5.167-5.167V133.355l4.746-9.381H126.508" transform="translate(0 -97.372)" fill="none" stroke="#000" stroke-linecap="round" stroke-linejoin="round" stroke-miterlimit="10" stroke-width="2"/>
        <g id="Grupo_1181651" data-name="Grupo 1181651" transform="translate(87.816 33.011)">
          <line id="Línea_566" data-name="Línea 566" x2="4.241" fill="none" stroke="#000" stroke-linecap="round" stroke-linejoin="round" stroke-miterlimit="10" stroke-width="2"/>
          <line id="Línea_567" data-name="Línea 567" x2="6.356" transform="translate(0 6.951)" fill="none" stroke="#000" stroke-linecap="round" stroke-linejoin="round" stroke-miterlimit="10" stroke-width="2"/>
          <line id="Línea_568" data-name="Línea 568" x2="4.241" transform="translate(0 27.803)" fill="none" stroke="#000" stroke-linecap="round" stroke-linejoin="round" stroke-miterlimit="10" stroke-width="2"/>
          <line id="Línea_569" data-name="Línea 569" x2="6.356" transform="translate(0 20.852)" fill="none" stroke="#000" stroke-linecap="round" stroke-linejoin="round" stroke-miterlimit="10" stroke-width="2"/>
          <line id="Línea_570" data-name="Línea 570" x2="44.027" transform="translate(0 13.901)" fill="none" stroke="#000" stroke-linecap="round" stroke-linejoin="round" stroke-miterlimit="10" stroke-width="2"/>
          <line id="Línea_571" data-name="Línea 571" x2="6.356" transform="translate(0 34.754)" fill="none" stroke="#000" stroke-linecap="round" stroke-linejoin="round" stroke-miterlimit="10" stroke-width="2"/>
          <line id="Línea_572" data-name="Línea 572" x2="4.241" transform="translate(0 41.705)" fill="none" stroke="#000" stroke-linecap="round" stroke-linejoin="round" stroke-miterlimit="10" stroke-width="2"/>
        </g>
        <line id="Línea_573" data-name="Línea 573" transform="translate(119.953 26.602)" fill="none" stroke="#000" stroke-linecap="round" stroke-linejoin="round" stroke-miterlimit="10" stroke-width="2"/>
      </g>
    </g>
  </g>
</svg>
