<svg xmlns="http://www.w3.org/2000/svg" width="54.056" height="70.701" viewBox="0 0 54.056 70.701">
  <g id="Grupo_1181655" data-name="Grupo 1181655" transform="translate(-826.873 -1978.759)">
    <g id="Grupo_1181617" data-name="Grupo 1181617" transform="translate(-20 -1)">
      <g id="jar_6167442" transform="translate(779.017 1969.842)">
        <path id="Trazado_1048660" data-name="Trazado 1048660" d="M118.621,99.56H74.969a1.107,1.107,0,0,0-.783,1.89l3.106,3.106v47.708a4.258,4.258,0,0,0,4.258,4.258h31.609a4.258,4.258,0,0,0,4.258-4.258V106.076a1.8,1.8,0,0,1,1.5-1.77,1.794,1.794,0,0,0,1.5-1.77v-1.182a1.8,1.8,0,0,0-1.794-1.794Z" transform="translate(-5.143 -76.765)" fill="#80aaff"/>
        <path id="Trazado_1048661" data-name="Trazado 1048661" d="M81.6,152.265V104.556L78.5,101.45a1.107,1.107,0,0,1,.783-1.89h-4.31a1.107,1.107,0,0,0-.783,1.89l3.106,3.106v47.708a4.258,4.258,0,0,0,4.258,4.258h4.31a4.258,4.258,0,0,1-4.258-4.258Z" transform="translate(-5.143 -76.765)" fill="#6a92d3"/>
        <path id="Trazado_1048662" data-name="Trazado 1048662" d="M117.1,294.34v23.119a2.865,2.865,0,0,0,2.864,2.864h28.4a2.864,2.864,0,0,0,2.863-2.864V294.34Z" transform="translate(-42.17 -243.565)" fill="#5fa8ed"/>
        <path id="Trazado_1048663" data-name="Trazado 1048663" d="M137.761,99.56l5.47,27.981H138.14L132.67,99.56Z" transform="translate(-55.503 -76.765)" fill="#c79a83"/>
        <path id="Trazado_1048664" data-name="Trazado 1048664" d="M124.851,17.815l1.977,10.113h-5.091l-1.79-9.154a2.356,2.356,0,0,1,1.859-2.764l.282-.055a2.356,2.356,0,0,1,2.764,1.859Z" transform="translate(-44.57 -5.134)" fill="#e1b7a3"/>
        <path id="Trazado_1048665" data-name="Trazado 1048665" d="M178.8,309.49a2.356,2.356,0,0,1-1.859,2.764l-.282.055a2.353,2.353,0,0,1-2.762-1.859l-3.15-16.109h5.091Z" transform="translate(-88.113 -243.565)" fill="#a37b6a"/>
        <path id="Trazado_1048666" data-name="Trazado 1048666" d="M121.41,317.459V294.34H117.1v23.119a2.865,2.865,0,0,0,2.864,2.864h4.31a2.865,2.865,0,0,1-2.864-2.864Z" transform="translate(-42.17 -243.565)" fill="#4d88ba"/>
        <g id="Grupo_1181654" data-name="Grupo 1181654" transform="translate(67.856 9.918)">
          <path id="Trazado_1048667" data-name="Trazado 1048667" d="M137.425,355.858a.862.862,0,0,0-.862.862v.744a.862.862,0,0,0,1.724,0v-.744a.862.862,0,0,0-.862-.862Z" transform="translate(-126.693 -306.163)" fill="#284268"/>
          <path id="Trazado_1048668" data-name="Trazado 1048668" d="M137.425,381.15a.862.862,0,0,0-.862.862v7.919a.862.862,0,1,0,1.724,0v-7.919a.862.862,0,0,0-.862-.862Z" transform="translate(-126.693 -327.822)" fill="#284268"/>
          <path id="Trazado_1048669" data-name="Trazado 1048669" d="M400.9,166.6h-5.387a.862.862,0,1,0,0,1.724H400.9a.862.862,0,0,0,0-1.724Z" transform="translate(-347.707 -144.092)" fill="#284268"/>
          <path id="Trazado_1048670" data-name="Trazado 1048670" d="M395.509,198.472H398.9a.862.862,0,1,0,0-1.724h-3.389a.862.862,0,0,0,0,1.724Z" transform="translate(-347.703 -169.909)" fill="#284268"/>
          <path id="Trazado_1048671" data-name="Trazado 1048671" d="M400.9,226.894h-5.387a.862.862,0,1,0,0,1.724H400.9a.862.862,0,0,0,0-1.724Z" transform="translate(-347.707 -195.725)" fill="#284268"/>
          <path id="Trazado_1048672" data-name="Trazado 1048672" d="M395.509,258.763H398.9a.862.862,0,1,0,0-1.724h-3.389a.862.862,0,1,0,0,1.724Z" transform="translate(-347.703 -221.539)" fill="#284268"/>
          <path id="Trazado_1048673" data-name="Trazado 1048673" d="M400.9,287.185h-5.387a.862.862,0,1,0,0,1.724H400.9a.862.862,0,0,0,0-1.724Z" transform="translate(-347.707 -247.355)" fill="#284268"/>
          <path id="Trazado_1048674" data-name="Trazado 1048674" d="M395.509,319.054H398.9a.862.862,0,1,0,0-1.724h-3.389a.862.862,0,0,0,0,1.724Z" transform="translate(-347.703 -273.17)" fill="#284268"/>
          <path id="Trazado_1048675" data-name="Trazado 1048675" d="M400.9,347.476h-5.387a.862.862,0,1,0,0,1.724H400.9a.862.862,0,0,0,0-1.724Z" transform="translate(-347.707 -298.985)" fill="#284268"/>
          <path id="Trazado_1048676" data-name="Trazado 1048676" d="M395.509,379.345H398.9a.862.862,0,1,0,0-1.724h-3.389a.862.862,0,0,0,0,1.724Z" transform="translate(-347.703 -324.8)" fill="#284268"/>
          <path id="Trazado_1048677" data-name="Trazado 1048677" d="M401.763,408.629a.862.862,0,0,0-.862-.862h-5.387a.862.862,0,1,0,0,1.724H400.9A.862.862,0,0,0,401.763,408.629Z" transform="translate(-347.707 -350.615)" fill="#284268"/>
          <path id="Trazado_1048678" data-name="Trazado 1048678" d="M395.509,437.911a.862.862,0,1,0,0,1.724H398.9a.862.862,0,1,0,0-1.724Z" transform="translate(-347.703 -376.429)" fill="#284268"/>
          <path id="Trazado_1048679" data-name="Trazado 1048679" d="M68.078,23a1.964,1.964,0,0,0,.356,2.3l2.854,2.854v5.915a.862.862,0,1,0,1.724,0V27.791a.862.862,0,0,0-.252-.609l-3.107-3.107a.245.245,0,0,1,.174-.419h6.63L81.59,49.914H74.93a.862.862,0,0,0-.862.862V73.9a3.73,3.73,0,0,0,3.725,3.726h28.4a3.73,3.73,0,0,0,3.725-3.726V50.776a.862.862,0,0,0-.862-.862H88.438L83.3,23.656h30.172a.932.932,0,0,1,.932.932v1.183a.923.923,0,0,1-.763.917,2.648,2.648,0,0,0-2.235,2.622V75.5a3.4,3.4,0,0,1-3.4,3.4H76.407a3.4,3.4,0,0,1-3.4-3.4V41.246a.862.862,0,1,0-1.724,0V75.5a5.119,5.119,0,0,0,5.119,5.119h31.609a5.119,5.119,0,0,0,5.119-5.119V29.311a.923.923,0,0,1,.763-.917,2.648,2.648,0,0,0,2.235-2.622V24.588a2.656,2.656,0,0,0-2.656-2.656H82.967l-1.841-9.416a3.221,3.221,0,0,0-3.774-2.54l-.282.055a3.221,3.221,0,0,0-2.54,3.774l1.589,8.126H69.886A2.023,2.023,0,0,0,68.078,23ZM108.2,51.638V73.9a2,2,0,0,1-2,2h-28.4a2,2,0,0,1-2-2V51.638h6.135L84.94,67.049a3.212,3.212,0,0,0,3.774,2.539L89,69.534a3.217,3.217,0,0,0,2.54-3.774L88.775,51.637ZM89.844,66.091a1.493,1.493,0,0,1-1.179,1.752l-.282.055a1.5,1.5,0,0,1-1.753-1.179L83.684,51.638h3.335ZM86.682,49.914H83.347L78.213,23.656h3.335ZM77.4,11.724l.282-.055a1.492,1.492,0,0,1,1.752,1.179l1.776,9.085H77.876l-1.653-8.457A1.494,1.494,0,0,1,77.4,11.724Z" transform="translate(-67.856 -9.918)" fill="#284268"/>
        </g>
      </g>
    </g>
  </g>
</svg>
