<svg xmlns="http://www.w3.org/2000/svg" width="56.912" height="69.286" viewBox="0 0 56.912 69.286">
  <g id="Grupo_1181676" data-name="Grupo 1181676" transform="translate(-824.835 -1984.454)">
    <g id="Grupo_1181609" data-name="Grupo 1181609" transform="translate(825.341 1984.454)">
      <g id="experiment_14669682" transform="translate(0 0)">
        <g id="Grupo_1181670" data-name="Grupo 1181670" transform="translate(0 0)">
          <g id="Grupo_1181656" data-name="Grupo 1181656" transform="translate(24.696)">
            <path id="Trazado_1048680" data-name="Trazado 1048680" d="M45.214,4.322a2.166,2.166,0,0,1-.064.518L35.983,43.849a2.317,2.317,0,0,1-4.51-1.069l9.168-39a2.317,2.317,0,0,1,4.573.54Z" transform="translate(-30.88 -1.467)" fill="#304056"/>
            <path id="Trazado_1048681" data-name="Trazado 1048681" d="M33.763,46.187a2.84,2.84,0,0,1-2.775-3.5l9.167-39a2.847,2.847,0,0,1,5.618.661,2.689,2.689,0,0,1-.08.647L36.527,44A2.851,2.851,0,0,1,33.763,46.187ZM42.929,2.555A1.787,1.787,0,0,0,41.186,3.93l-9.168,39a1.788,1.788,0,0,0,3.48.825L44.664,4.749a1.645,1.645,0,0,0,.05-.4,1.782,1.782,0,0,0-1.785-1.8Z" transform="translate(-30.909 -1.497)"/>
          </g>
          <g id="Grupo_1181657" data-name="Grupo 1181657" transform="translate(0 10.9)">
            <path id="Trazado_1048682" data-name="Trazado 1048682" d="M62.957,16.21V60.946a8.2,8.2,0,0,1-8.193,8.2H23.524a8.2,8.2,0,0,1-8.2-8.2V34.989a3.792,3.792,0,0,0-.3-1.493L8.387,17.713a3.906,3.906,0,0,1,3.6-5.42H59.051A3.919,3.919,0,0,1,62.957,16.21Z" transform="translate(-7.551 -11.764)" fill="#dbdbdb" stroke="#000" stroke-width="2"/>
            <path id="Trazado_1048683" data-name="Trazado 1048683" d="M54.792,69.709H23.554a8.744,8.744,0,0,1-8.733-8.733V35.019a3.237,3.237,0,0,0-.255-1.287L7.928,17.948a4.436,4.436,0,0,1,4.088-6.155H59.08a4.445,4.445,0,0,1,4.435,4.446V60.975A8.738,8.738,0,0,1,54.792,69.709ZM12.015,12.852a3.323,3.323,0,0,0-2.81,1.506,3.374,3.374,0,0,0-.3,3.18l6.637,15.783a4.331,4.331,0,0,1,.338,1.7V60.975a7.684,7.684,0,0,0,7.675,7.675H54.792a7.678,7.678,0,0,0,7.664-7.675V16.239a3.386,3.386,0,0,0-3.377-3.387Z" transform="translate(-7.58 -11.793)"/>
          </g>
          <g id="Grupo_1181658" data-name="Grupo 1181658" transform="translate(13.211 27.032)">
            <path id="Trazado_1048684" data-name="Trazado 1048684" d="M56.255,30.666V57a5.277,5.277,0,0,1-5.282,5.282H25.853A5.292,5.292,0,0,1,20.56,57V32.742a3.039,3.039,0,0,1,3.768-2.964c7.315,1.821,18.229-2.89,29.037-2.17A3.079,3.079,0,0,1,56.255,30.666Z" transform="translate(-20.03 -27.003)" fill="#488ff7" stroke="#000" stroke-width="1"/>
            <path id="Trazado_1048685" data-name="Trazado 1048685" d="M51,62.845H25.882a5.824,5.824,0,0,1-5.822-5.811V32.771a3.572,3.572,0,0,1,1.387-2.839,3.508,3.508,0,0,1,3.04-.638c3.709.923,8.537.089,13.649-.795,4.716-.815,10.063-1.74,15.293-1.39A3.615,3.615,0,0,1,56.814,30.7V57.034A5.818,5.818,0,0,1,51,62.845Zm-27.387-32.6a2.463,2.463,0,0,0-1.518.525,2.52,2.52,0,0,0-.979,2V57.034a4.764,4.764,0,0,0,4.764,4.753H51a4.758,4.758,0,0,0,4.753-4.753V30.7a2.554,2.554,0,0,0-2.4-2.531c-5.1-.342-10.157.533-15.043,1.377-5.226.9-10.162,1.755-14.087.778A2.476,2.476,0,0,0,23.615,30.243Z" transform="translate(-20.06 -27.033)" stroke="#000" stroke-width="1"/>
          </g>
          <g id="Grupo_1181669" data-name="Grupo 1181669" transform="translate(51.071 17.937)">
            <g id="Grupo_1181659" data-name="Grupo 1181659" transform="translate(0)">
              <path id="Trazado_1048686" data-name="Trazado 1048686" d="M60.084,19.5h-3.73a.529.529,0,1,1,0-1.059h3.73a.529.529,0,0,1,0,1.059Z" transform="translate(-55.824 -18.441)"/>
            </g>
            <g id="Grupo_1181660" data-name="Grupo 1181660" transform="translate(0.957 4.751)">
              <path id="Trazado_1048687" data-name="Trazado 1048687" d="M60.031,23.988H57.258a.529.529,0,0,1,0-1.059h2.773a.529.529,0,0,1,0,1.059Z" transform="translate(-56.729 -22.929)"/>
            </g>
            <g id="Grupo_1181661" data-name="Grupo 1181661" transform="translate(0 9.502)">
              <path id="Trazado_1048688" data-name="Trazado 1048688" d="M60.084,28.476h-3.73a.529.529,0,1,1,0-1.059h3.73a.529.529,0,0,1,0,1.059Z" transform="translate(-55.824 -27.417)"/>
            </g>
            <g id="Grupo_1181662" data-name="Grupo 1181662" transform="translate(0.957 14.253)">
              <path id="Trazado_1048689" data-name="Trazado 1048689" d="M60.031,32.964H57.258a.529.529,0,1,1,0-1.059h2.773a.529.529,0,1,1,0,1.059Z" transform="translate(-56.729 -31.905)"/>
            </g>
            <g id="Grupo_1181663" data-name="Grupo 1181663" transform="translate(0 19.004)">
              <path id="Trazado_1048690" data-name="Trazado 1048690" d="M60.084,37.452h-3.73a.529.529,0,1,1,0-1.059h3.73a.529.529,0,0,1,0,1.059Z" transform="translate(-55.824 -36.394)"/>
            </g>
            <g id="Grupo_1181664" data-name="Grupo 1181664" transform="translate(0.957 23.755)">
              <path id="Trazado_1048691" data-name="Trazado 1048691" d="M60.031,41.94H57.258a.529.529,0,0,1,0-1.059h2.773a.529.529,0,0,1,0,1.059Z" transform="translate(-56.729 -40.881)"/>
            </g>
            <g id="Grupo_1181665" data-name="Grupo 1181665" transform="translate(0 28.506)">
              <path id="Trazado_1048692" data-name="Trazado 1048692" d="M60.084,46.428h-3.73a.529.529,0,1,1,0-1.059h3.73a.529.529,0,0,1,0,1.059Z" transform="translate(-55.824 -45.37)"/>
            </g>
            <g id="Grupo_1181666" data-name="Grupo 1181666" transform="translate(0.957 33.257)">
              <path id="Trazado_1048693" data-name="Trazado 1048693" d="M60.031,50.916H57.258a.529.529,0,0,1,0-1.059h2.773a.529.529,0,0,1,0,1.059Z" transform="translate(-56.729 -49.857)"/>
            </g>
            <g id="Grupo_1181667" data-name="Grupo 1181667" transform="translate(0 38.008)">
              <path id="Trazado_1048694" data-name="Trazado 1048694" d="M60.084,55.4h-3.73a.529.529,0,1,1,0-1.059h3.73a.529.529,0,1,1,0,1.059Z" transform="translate(-55.824 -54.346)"/>
            </g>
            <g id="Grupo_1181668" data-name="Grupo 1181668" transform="translate(0.957 42.759)">
              <path id="Trazado_1048695" data-name="Trazado 1048695" d="M60.031,59.892H57.258a.529.529,0,1,1,0-1.059h2.773a.529.529,0,0,1,0,1.059Z" transform="translate(-56.729 -58.833)"/>
            </g>
          </g>
        </g>
        <g id="Grupo_1181671" data-name="Grupo 1181671" transform="translate(19.091 33.268)">
          <circle id="Elipse_12015" data-name="Elipse 12015" cx="2.249" cy="2.249" r="2.249" transform="translate(0.53 0.529)" fill="#3275c6"/>
          <path id="Trazado_1048696" data-name="Trazado 1048696" d="M28.393,38.481A2.779,2.779,0,1,1,31.172,35.7,2.782,2.782,0,0,1,28.393,38.481Zm0-4.5a1.72,1.72,0,1,0,1.72,1.72A1.722,1.722,0,0,0,28.393,33.982Z" transform="translate(-25.614 -32.923)"/>
        </g>
        <g id="Grupo_1181672" data-name="Grupo 1181672" transform="translate(36.293 50.735)">
          <circle id="Elipse_12016" data-name="Elipse 12016" cx="2.249" cy="2.249" r="2.249" transform="translate(0.53 0.529)" fill="#3275c6"/>
          <path id="Trazado_1048697" data-name="Trazado 1048697" d="M44.643,54.981A2.779,2.779,0,1,1,47.422,52.2,2.782,2.782,0,0,1,44.643,54.981Zm0-4.5a1.72,1.72,0,1,0,1.72,1.72A1.722,1.722,0,0,0,44.643,50.482Z" transform="translate(-41.864 -49.423)"/>
        </g>
        <g id="Grupo_1181673" data-name="Grupo 1181673" transform="translate(39.204 32.19)">
          <circle id="Elipse_12017" data-name="Elipse 12017" cx="2.073" cy="2.073" r="2.073" transform="translate(0.53 0.53)" fill="#3275c6"/>
          <path id="Trazado_1048698" data-name="Trazado 1048698" d="M47.217,37.11a2.6,2.6,0,1,1,2.6-2.6A2.605,2.605,0,0,1,47.217,37.11Zm0-4.146a1.544,1.544,0,1,0,1.544,1.544A1.546,1.546,0,0,0,47.217,32.964Z" transform="translate(-44.614 -31.905)"/>
        </g>
        <g id="Grupo_1181674" data-name="Grupo 1181674" transform="translate(19.797 50.161)">
          <circle id="Elipse_12018" data-name="Elipse 12018" cx="2.073" cy="2.073" r="2.073" transform="translate(0.53 0.53)" fill="#3275c6"/>
          <path id="Trazado_1048699" data-name="Trazado 1048699" d="M28.883,54.086a2.6,2.6,0,1,1,2.6-2.6A2.605,2.605,0,0,1,28.883,54.086Zm0-4.146a1.544,1.544,0,1,0,1.544,1.544A1.546,1.546,0,0,0,28.883,49.94Z" transform="translate(-26.281 -48.881)"/>
        </g>
        <g id="Grupo_1181675" data-name="Grupo 1181675" transform="translate(30.096 42.531)">
          <circle id="Elipse_12019" data-name="Elipse 12019" cx="1.5" cy="1.5" r="1.5" transform="translate(0.529 0.529)" fill="#3275c6"/>
          <path id="Trazado_1048700" data-name="Trazado 1048700" d="M38.039,45.731A2.029,2.029,0,1,1,40.069,43.7,2.031,2.031,0,0,1,38.039,45.731Zm0-3a.97.97,0,1,0,.971.97A.971.971,0,0,0,38.039,42.732Z" transform="translate(-36.01 -41.673)"/>
        </g>
      </g>
    </g>
  </g>
</svg>
