<svg xmlns="http://www.w3.org/2000/svg" width="90.59" height="59.341" viewBox="0 0 90.59 59.341">
  <g id="Grupo_1181683" data-name="Grupo 1181683" transform="translate(-817.322 -1991.118)">
    <g id="Grupo_1181613" data-name="Grupo 1181613" transform="translate(-15 -1)">
      <g id="liter_6709546" transform="translate(825.842 1897.913)">
        <g id="Grupo_1181680" data-name="Grupo 1181680" transform="translate(7.499 95.205)">
          <path id="Trazado_1048701" data-name="Trazado 1048701" d="M96.042,140.233l-8.957-40.49a5.786,5.786,0,0,0-5.65-4.537H8.148a.649.649,0,0,0-.516,1.04l4.423,5.851,5.5,37.753,2.768,5.061H61.789l7.243-5.061,5.288-36.3a.757.757,0,0,1,.751-.648h4.395a.756.756,0,0,1,.726.541l11.143,37.274a.962.962,0,0,0,.922.685H95.1A.962.962,0,0,0,96.042,140.233Z" transform="translate(-7.499 -95.205)" fill="#cfeffc"/>
          <g id="Grupo_1181679" data-name="Grupo 1181679">
            <g id="Grupo_1181677" data-name="Grupo 1181677">
              <path id="Trazado_1048702" data-name="Trazado 1048702" d="M24.747,140.91,18.9,103.065a12.264,12.264,0,0,0-2.55-5.8L14.7,95.205H8.147a.649.649,0,0,0-.516,1.04l4.423,5.851,5.5,37.753,2.768,5.061h5.043Z" transform="translate(-7.499 -95.205)" fill="#a9e4f9"/>
            </g>
            <g id="XMLID_00000029028635552274440310000004071340619166579075_" transform="translate(10.056 44.643)">
              <g id="Grupo_1181678" data-name="Grupo 1181678">
                <path id="Trazado_1048703" data-name="Trazado 1048703" d="M115.468,346.005l-.733,5.029a8.96,8.96,0,0,1-8.866,7.67H73.591a8.96,8.96,0,0,1-8.866-7.67l-.733-5.029Z" transform="translate(-63.991 -346.005)" fill="#fbe88c"/>
              </g>
            </g>
            <path id="Trazado_1048704" data-name="Trazado 1048704" d="M72.029,352.539l-.846-5.472L71.02,346H63.991l.733,5.029a8.96,8.96,0,0,0,8.866,7.67h2.152A9.621,9.621,0,0,1,72.029,352.539Z" transform="translate(-53.935 -301.362)" fill="#f9de58"/>
          </g>
        </g>
        <g id="Grupo_1181682" data-name="Grupo 1181682" transform="translate(7.499 95.206)">
          <g id="Grupo_1181681" data-name="Grupo 1181681" transform="translate(10.999 8.909)">
            <line id="Línea_574" data-name="Línea 574" x1="36.708" transform="translate(13.825 35.733)" fill="none" stroke="#000" stroke-linecap="round" stroke-linejoin="round" stroke-miterlimit="10" stroke-width="2"/>
            <line id="Línea_575" data-name="Línea 575" x1="8.136" transform="translate(0 35.733)" fill="none" stroke="#000" stroke-linecap="round" stroke-linejoin="round" stroke-miterlimit="10" stroke-width="2"/>
            <line id="Línea_576" data-name="Línea 576" y2="30.641" transform="translate(39.372)" fill="none" stroke="#000" stroke-linecap="round" stroke-linejoin="round" stroke-miterlimit="10" stroke-width="2"/>
            <line id="Línea_577" data-name="Línea 577" x1="12.48" transform="translate(26.892 4.161)" fill="none" stroke="#000" stroke-linecap="round" stroke-linejoin="round" stroke-miterlimit="10" stroke-width="2"/>
            <line id="Línea_578" data-name="Línea 578" x1="8.218" transform="translate(31.153 11.601)" fill="none" stroke="#000" stroke-linecap="round" stroke-linejoin="round" stroke-miterlimit="10" stroke-width="2"/>
            <line id="Línea_579" data-name="Línea 579" x1="8.218" transform="translate(31.153 19.041)" fill="none" stroke="#000" stroke-linecap="round" stroke-linejoin="round" stroke-miterlimit="10" stroke-width="2"/>
            <line id="Línea_580" data-name="Línea 580" x1="12.48" transform="translate(26.892 26.48)" fill="none" stroke="#000" stroke-linecap="round" stroke-linejoin="round" stroke-miterlimit="10" stroke-width="2"/>
          </g>
          <path id="Trazado_1048705" data-name="Trazado 1048705" d="M176.645,105.164l-1.2-5.418a5.787,5.787,0,0,0-5.651-4.537H115" transform="translate(-95.861 -95.209)" fill="none" stroke="#000" stroke-linecap="round" stroke-linejoin="round" stroke-miterlimit="10" stroke-width="2"/>
          <path id="Trazado_1048706" data-name="Trazado 1048706" d="M20.946,95.209H8.149a.648.648,0,0,0-.517,1.038l4.424,5.852,6.233,42.782a8.961,8.961,0,0,0,8.867,7.669H59.433a8.961,8.961,0,0,0,8.867-7.669l6.021-41.327a.758.758,0,0,1,.75-.649h4.4a.758.758,0,0,1,.727.541l11.142,37.274a.961.961,0,0,0,.921.686H95.1a.962.962,0,0,0,.939-1.169l-6.528-29.509" transform="translate(-7.5 -95.209)" fill="none" stroke="#000" stroke-linecap="round" stroke-linejoin="round" stroke-miterlimit="10" stroke-width="2"/>
        </g>
      </g>
    </g>
  </g>
</svg>
