<svg xmlns="http://www.w3.org/2000/svg" xmlns:xlink="http://www.w3.org/1999/xlink" width="101.786" height="101.787" viewBox="0 0 101.786 101.787">
  <defs>
    <filter id="Trazado_874925" x="0" y="0" width="101.786" height="101.787" filterUnits="userSpaceOnUse">
      <feOffset dy="3" input="SourceAlpha"/>
      <feGaussianBlur stdDeviation="3" result="blur"/>
      <feFlood flood-opacity="0.161"/>
      <feComposite operator="in" in2="blur"/>
      <feComposite in="SourceGraphic"/>
    </filter>
  </defs>
  <g id="Grupo_1181440" data-name="Grupo 1181440" transform="translate(-276 -6091.407)">
    <g id="Grupo_1111314" data-name="Grupo 1111314" transform="translate(285 6097.407)">
      <g transform="matrix(1, 0, 0, 1, -9, -6)" filter="url(#Trazado_874925)">
        <g id="Trazado_874925-2" data-name="Trazado 874925" transform="translate(9 6)" fill="#f58d17">
          <path d="M 41.89303207397461 82.28653717041016 C 36.43935012817383 82.28653717041016 31.14958572387695 81.21876525878906 26.17070198059082 79.11286926269531 C 21.36090278625488 77.07850646972656 17.04094886779785 74.16580963134766 13.33084392547607 70.4556884765625 C 9.62073802947998 66.74558258056641 6.708044052124023 62.42563247680664 4.673667430877686 57.6158447265625 C 2.567773342132568 52.6369514465332 1.499996781349182 47.34719848632812 1.499996781349182 41.89350509643555 C 1.499996781349182 36.43935012817383 2.567773342132568 31.14958572387695 4.673667430877686 26.17070388793945 C 6.708044052124023 21.36090469360352 9.62073802947998 17.04095077514648 13.33084392547607 13.33084487915039 C 17.04094886779785 9.620738983154297 21.36090278625488 6.70804500579834 26.17070198059082 4.673668384552002 C 31.14958572387695 2.567774534225464 36.43935012817383 1.499997973442078 41.89303207397461 1.499997973442078 C 47.34671401977539 1.499997973442078 52.63646697998047 2.567774534225464 57.61536026000977 4.673668384552002 C 62.42514801025391 6.70804500579834 66.74510192871094 9.620738983154297 70.45522308349609 13.33084487915039 C 74.16532897949219 17.04095077514648 77.07801818847656 21.36090469360352 79.11239624023438 26.17070388793945 C 81.21829223632812 31.14958572387695 82.28606414794922 36.43935012817383 82.28606414794922 41.89303207397461 C 82.28606414794922 47.34718704223633 81.21829223632812 52.6369514465332 79.11239624023438 57.6158447265625 C 77.07801818847656 62.42563247680664 74.16532897949219 66.74558258056641 70.45522308349609 70.4556884765625 C 66.74510192871094 74.16580963134766 62.42514801025391 77.07850646972656 57.61536026000977 79.11286926269531 C 52.63646697998047 81.21876525878906 47.34671401977539 82.28653717041016 41.89303207397461 82.28653717041016 Z" stroke="none"/>
          <path d="M 41.89303207397461 3 C 36.64117813110352 3 31.54801940917969 4.027908325195312 26.75503158569336 6.05517578125 C 22.12403106689453 8.013923645019531 17.96434020996094 10.81867218017578 14.39150238037109 14.39151000976562 C 10.81865692138672 17.96434783935547 8.013908386230469 22.12404251098633 6.055168151855469 26.75502777099609 C 4.027900695800781 31.54802703857422 2.999992370605469 36.64118957519531 2.999992370605469 41.89350891113281 C 2.999992370605469 47.14534759521484 4.027900695800781 52.23851013183594 6.055168151855469 57.03150939941406 C 8.013908386230469 61.66250610351562 10.81865692138672 65.82218933105469 14.39150238037109 69.39502716064453 C 17.96434020996094 72.96786499023438 22.12403106689453 75.77261352539062 26.75503158569336 77.73136138916016 C 31.54801940917969 79.75862884521484 36.64117813110352 80.78653717041016 41.89303207397461 80.78653717041016 C 47.1448860168457 80.78653717041016 52.23802947998047 79.75862884521484 57.03103256225586 77.73136138916016 C 61.66203308105469 75.77261352539062 65.82172393798828 72.96786499023438 69.39455413818359 69.39502716064453 C 72.96739196777344 65.82220458984375 75.77214050292969 61.66250610351562 77.73088836669922 57.03150939941406 C 79.75814819335938 52.23851013183594 80.78605651855469 47.14536285400391 80.78605651855469 41.89304351806641 C 80.78605651855469 36.64118957519531 79.75814819335938 31.54802703857422 77.73088836669922 26.75502777099609 C 75.77214050292969 22.12404251098633 72.96739196777344 17.96434783935547 69.39455413818359 14.39151000976562 C 65.82171630859375 10.81867218017578 61.66203308105469 8.013923645019531 57.03103256225586 6.05517578125 C 52.23802947998047 4.027908325195312 47.1448860168457 3 41.89303207397461 3 M 41.89303207397461 0 C 65.02991485595703 0 83.78605651855469 18.75614929199219 83.78605651855469 41.89304351806641 L 83.78605651855469 41.89350891113281 C 83.78605651855469 65.03038787841797 65.02991485595703 83.78653717041016 41.89303207397461 83.78653717041016 C 18.75614929199219 83.78653717041016 -7.62939453125e-06 65.03038787841797 -7.62939453125e-06 41.89350891113281 L -7.62939453125e-06 41.89304351806641 C -7.62939453125e-06 18.75614929199219 18.75614929199219 0 41.89303207397461 0 Z" stroke="none" fill="#fff"/>
        </g>
      </g>
    </g>
    <g id="Grupo_1181652" data-name="Grupo 1181652" transform="translate(-517.258 4136.283)">
      <g id="Grupo_1181597" data-name="Grupo 1181597" transform="translate(828.257 1979.125)">
        <g id="stir_10308938" transform="translate(0 0)">
          <g id="Grupo_1181650" data-name="Grupo 1181650" transform="translate(0 10.366)">
            <path id="Trazado_1048643" data-name="Trazado 1048643" d="M116.993,131.181l3.157-7.206H87.5v15.6h29.493Z" transform="translate(-87.5 -123.975)" fill="#fff"/>
            <path id="Trazado_1048644" data-name="Trazado 1048644" d="M90.96,285.11h22.768a3.349,3.349,0,0,0,3.459-3.227V263.41H87.5v18.474A3.349,3.349,0,0,0,90.96,285.11Z" transform="translate(-87.5 -247.81)" fill="#66e0f7"/>
          </g>
          <path id="Trazado_1048645" data-name="Trazado 1048645" d="M160.105,56.091,151.737,10H147.82l8.654,47.667Z" transform="translate(-141.737 -10)" fill="#ffcd69"/>
          <path id="Trazado_1048646" data-name="Trazado 1048646" d="M160.105,56.091,151.737,10H147.82l8.654,47.667Z" transform="translate(-141.737 -10)" fill="none" stroke="#000" stroke-linecap="round" stroke-linejoin="round" stroke-miterlimit="10" stroke-width="2"/>
          <path id="Trazado_1048647" data-name="Trazado 1048647" d="M104.725,123.974H87.5v33.8a3.469,3.469,0,0,0,3.437,3.5h22.62a3.469,3.469,0,0,0,3.437-3.5V130.329l3.156-6.354h-6.705" transform="translate(-87.5 -113.608)" fill="none" stroke="#000" stroke-linecap="round" stroke-linejoin="round" stroke-miterlimit="10" stroke-width="2"/>
          <g id="Grupo_1181651" data-name="Grupo 1181651" transform="translate(0.197 17.287)">
            <line id="Línea_566" data-name="Línea 566" x2="2.648" fill="none" stroke="#000" stroke-linecap="round" stroke-linejoin="round" stroke-miterlimit="10" stroke-width="2"/>
            <line id="Línea_567" data-name="Línea 567" x2="3.969" transform="translate(0 4.34)" fill="none" stroke="#000" stroke-linecap="round" stroke-linejoin="round" stroke-miterlimit="10" stroke-width="2"/>
            <line id="Línea_568" data-name="Línea 568" x2="2.648" transform="translate(0 17.36)" fill="none" stroke="#000" stroke-linecap="round" stroke-linejoin="round" stroke-miterlimit="10" stroke-width="2"/>
            <line id="Línea_569" data-name="Línea 569" x2="3.969" transform="translate(0 13.02)" fill="none" stroke="#000" stroke-linecap="round" stroke-linejoin="round" stroke-miterlimit="10" stroke-width="2"/>
            <line id="Línea_570" data-name="Línea 570" x2="29.49" transform="translate(0 8.68)" fill="none" stroke="#000" stroke-linecap="round" stroke-linejoin="round" stroke-miterlimit="10" stroke-width="2"/>
            <line id="Línea_571" data-name="Línea 571" x2="3.969" transform="translate(0 21.7)" fill="none" stroke="#000" stroke-linecap="round" stroke-linejoin="round" stroke-miterlimit="10" stroke-width="2"/>
            <line id="Línea_572" data-name="Línea 572" x2="2.648" transform="translate(0 26.04)" fill="none" stroke="#000" stroke-linecap="round" stroke-linejoin="round" stroke-miterlimit="10" stroke-width="2"/>
          </g>
          <line id="Línea_573" data-name="Línea 573" transform="translate(21.585 11.042)" fill="none" stroke="#000" stroke-linecap="round" stroke-linejoin="round" stroke-miterlimit="10" stroke-width="2"/>
        </g>
      </g>
    </g>
  </g>
</svg>
