<svg xmlns="http://www.w3.org/2000/svg" xmlns:xlink="http://www.w3.org/1999/xlink" width="90.565" height="115.636" viewBox="0 0 90.565 115.636">
  <defs>
    <filter id="Trazado_1048805" x="0" y="0" width="90.453" height="115.636" filterUnits="userSpaceOnUse">
      <feOffset dy="3" input="SourceAlpha"/>
      <feGaussianBlur stdDeviation="3" result="blur"/>
      <feFlood flood-opacity="0.161"/>
      <feComposite operator="in" in2="blur"/>
      <feComposite in="SourceGraphic"/>
    </filter>
  </defs>
  <g id="Grupo_1181901" data-name="Grupo 1181901" transform="translate(-276.001 -3431.111)">
    <g id="Grupo_1181778" data-name="Grupo 1181778" transform="translate(-475.73 1462.977)">
      <g id="Grupo_1181743" data-name="Grupo 1181743" transform="translate(760.731 1973)">
        <g id="Grupo_1181742" data-name="Grupo 1181742" transform="translate(0 0)">
          <path id="Trazado_1048804" data-name="Trazado 1048804" d="M127.429,109.916c-22.489,0-40.784-16.31-40.784-36.359S124.352,2.836,125.959.662a1.964,1.964,0,0,1,2.941,0c1.607,2.173,39.31,53.434,39.31,72.895s-18.3,36.359-40.784,36.359Z" transform="translate(-86.645 0)" fill="#2da8f9"/>
          <g transform="matrix(1, 0, 0, 1, -9, -4.87)" filter="url(#Trazado_1048805)">
            <path id="Trazado_1048805-2" data-name="Trazado 1048805" d="M122.873,97.636c-19.977,0-36.228-14.488-36.228-32.3S120.139,2.519,121.567.588a1.745,1.745,0,0,1,2.613,0C125.607,2.519,159.1,48.053,159.1,65.34s-16.252,32.3-36.228,32.3Z" transform="translate(-77.65 6)" fill="#2cfefa" opacity="0.9"/>
          </g>
        </g>
      </g>
    </g>
    <g id="approved_17410048" transform="translate(301.664 3475.328)">
      <g id="Grupo_1181774" data-name="Grupo 1181774" transform="translate(3.83 3.83)">
        <path id="Trazado_1048917" data-name="Trazado 1048917" d="M40.922,10.319V45.88A2.319,2.319,0,0,1,38.6,48.2H12.319A2.319,2.319,0,0,1,10,45.88V15.731L17.731,8H38.6A2.319,2.319,0,0,1,40.922,10.319Z" transform="translate(-5.362 -4.908)" fill="#e3e6e8" stroke="#000" stroke-width="2"/>
        <g id="Grupo_1181773" data-name="Grupo 1181773" transform="translate(0 0)">
          <path id="Trazado_1048918" data-name="Trazado 1048918" d="M34.922,6.319V41.88A2.319,2.319,0,0,1,32.6,44.2H6.319A2.319,2.319,0,0,1,4,41.88V11.731L11.731,4H32.6A2.319,2.319,0,0,1,34.922,6.319Z" transform="translate(-4 -4)" fill="#eceff1" stroke="#000" stroke-width="2"/>
          <path id="Trazado_1048919" data-name="Trazado 1048919" d="M11.731,4v6.184a1.546,1.546,0,0,1-1.546,1.546H4Z" transform="translate(-4 -4)" fill="#e3e6e8" stroke="#000" stroke-width="2"/>
        </g>
        <circle id="Elipse_12034" data-name="Elipse 12034" cx="13.915" cy="13.915" r="13.915" transform="translate(15.461 7.731)" fill="#f58d17" stroke="#000" stroke-width="2"/>
      </g>
      <g id="Grupo_1181775" data-name="Grupo 1181775" transform="translate(3.25 3.25)">
        <path id="Trazado_1048920" data-name="Trazado 1048920" d="M47.7,25.475a14.4,14.4,0,0,0-1.137-5.637.58.58,0,1,0-1.068.451,13.349,13.349,0,1,1-2.86-4.244.58.58,0,0,0,.82-.82,14.537,14.537,0,0,0-3.485-2.575V9.241a2.9,2.9,0,0,0-2.9-2.9H35.332V6.149a2.9,2.9,0,0,0-2.9-2.9H11.56a.58.58,0,0,0-.41.17L3.42,11.15a.58.58,0,0,0-.17.41V29.882a.58.58,0,1,0,1.16,0V12.14h5.6a2.128,2.128,0,0,0,2.126-2.126V4.41H32.433a1.741,1.741,0,0,1,1.739,1.739v4.879c-.321-.021-.641-.047-.966-.047a14.467,14.467,0,0,0-11.279,5.411H9.241a.58.58,0,1,0,0,1.16H21.084a14.436,14.436,0,0,0-1.669,3.479H9.241a.58.58,0,1,0,0,1.16H19.1a14.447,14.447,0,0,0-.39,3.285c0,.065.009.128.01.193H9.241a.58.58,0,0,0,0,1.16H18.78a14.353,14.353,0,0,0,.777,3.479H9.241a.58.58,0,1,0,0,1.16H20.023a14.515,14.515,0,0,0,2.234,3.479H9.241a.58.58,0,1,0,0,1.16H23.385a14.423,14.423,0,0,0,9.821,3.865c.326,0,.646-.028.966-.049V41.71a1.741,1.741,0,0,1-1.739,1.739H6.149A1.741,1.741,0,0,1,4.41,41.71V33.072a.58.58,0,1,0-1.16,0V41.71a2.9,2.9,0,0,0,2.9,2.9H7.888V44.8a2.9,2.9,0,0,0,2.9,2.9H37.071a2.9,2.9,0,0,0,2.9-2.9V38.285A14.5,14.5,0,0,0,47.7,25.475ZM10.981,10.014a.967.967,0,0,1-.966.966H5.229l5.751-5.751ZM35.332,7.5h1.739a1.741,1.741,0,0,1,1.739,1.739V12.1a14.362,14.362,0,0,0-3.479-.951Zm3.479,37.3a1.741,1.741,0,0,1-1.739,1.739H10.787A1.741,1.741,0,0,1,9.048,44.8v-.193H32.433a2.9,2.9,0,0,0,2.9-2.9V39.8a14.388,14.388,0,0,0,3.479-.955Z" transform="translate(-3.25 -3.25)" fill="#05112d"/>
        <path id="Trazado_1048921" data-name="Trazado 1048921" d="M56.468,22.395a.58.58,0,0,0,.984-.615q-.254-.407-.534-.8a.58.58,0,1,0-.941.678q.258.358.491.732Z" transform="translate(-15.191 -7.22)" fill="#05112d"/>
        <path id="Trazado_1048922" data-name="Trazado 1048922" d="M46,25.763l-7.653,7.653a.969.969,0,0,1-1.367,0L33.5,29.937a.58.58,0,1,0-.82.82l3.479,3.479a2.128,2.128,0,0,0,3.006,0l7.653-7.653a.58.58,0,0,0-.82-.82Z" transform="translate(-9.89 -8.321)" fill="#05112d" stroke="#000" stroke-width="1"/>
      </g>
    </g>
  </g>
</svg>
