<svg xmlns="http://www.w3.org/2000/svg" xmlns:xlink="http://www.w3.org/1999/xlink" width="90.565" height="115.636" viewBox="0 0 90.565 115.636">
  <defs>
    <filter id="Trazado_1048805" x="0" y="0" width="90.453" height="115.636" filterUnits="userSpaceOnUse">
      <feOffset dy="3" input="SourceAlpha"/>
      <feGaussianBlur stdDeviation="3" result="blur"/>
      <feFlood flood-opacity="0.161"/>
      <feComposite operator="in" in2="blur"/>
      <feComposite in="SourceGraphic"/>
    </filter>
  </defs>
  <g id="Grupo_1181902" data-name="Grupo 1181902" transform="translate(-594.052 -3431.134)">
    <g id="Grupo_1181779" data-name="Grupo 1181779" transform="translate(-157.68 1463)">
      <g id="Grupo_1181743" data-name="Grupo 1181743" transform="translate(760.731 1973)">
        <g id="Grupo_1181742" data-name="Grupo 1181742" transform="translate(0 0)">
          <path id="Trazado_1048804" data-name="Trazado 1048804" d="M127.429,109.916c-22.489,0-40.784-16.31-40.784-36.359S124.352,2.836,125.959.662a1.964,1.964,0,0,1,2.941,0c1.607,2.173,39.31,53.434,39.31,72.895s-18.3,36.359-40.784,36.359Z" transform="translate(-86.645 0)" fill="#2da8f9"/>
          <g transform="matrix(1, 0, 0, 1, -9, -4.87)" filter="url(#Trazado_1048805)">
            <path id="Trazado_1048805-2" data-name="Trazado 1048805" d="M122.873,97.636c-19.977,0-36.228-14.488-36.228-32.3S120.139,2.519,121.567.588a1.745,1.745,0,0,1,2.613,0C125.607,2.519,159.1,48.053,159.1,65.34s-16.252,32.3-36.228,32.3Z" transform="translate(-77.64 6)" fill="#2cfefa" opacity="0.9"/>
          </g>
        </g>
      </g>
    </g>
    <g id="Grupo_1181784" data-name="Grupo 1181784" transform="translate(-76 58.685)">
      <g id="Grupo_1181782" data-name="Grupo 1181782" transform="translate(714.796 3411.272)">
        <rect id="Rect치ngulo_407435" data-name="Rect치ngulo 407435" width="20.284" height="19.504" transform="translate(0 5.038)" fill="#fff"/>
        <path id="Trazado_1048950" data-name="Trazado 1048950" d="M3053.374-8196.459l-6.826,6.78-4.289,4.646,4.289,3.089,11.072-10.909Z" transform="translate(-3029.574 8196.459)" fill="#fff"/>
      </g>
      <g id="Grupo_1181783" data-name="Grupo 1181783" transform="translate(714.796 3444.819)">
        <rect id="Rect치ngulo_407435-2" data-name="Rect치ngulo 407435" width="20.284" height="19.504" transform="translate(0 5.038)" fill="#fff"/>
        <path id="Trazado_1048950-2" data-name="Trazado 1048950" d="M3053.374-8196.459l-6.826,6.78-4.289,4.646,4.289,3.089,11.072-10.909Z" transform="translate(-3029.574 8196.459)" fill="#fff"/>
      </g>
      <g id="integration_17728377" transform="translate(689.051 3410.315)">
        <g id="Grupo_1181776" data-name="Grupo 1181776" transform="translate(1.046 11.552)">
          <path id="Trazado_1048923" data-name="Trazado 1048923" d="M340.34,377.581a5.216,5.216,0,0,0-3.781-3.781L335,379.14Z" transform="translate(-298.543 -339.85)" fill="#c8d8e1" fill-rule="evenodd"/>
          <path id="Trazado_1048924" data-name="Trazado 1048924" d="M340.34,116.281a5.216,5.216,0,0,0-3.781-3.781L335,117.84Z" transform="translate(-298.543 -112.5)" fill="#c8d8e1" fill-rule="evenodd"/>
          <path id="Trazado_1048925" data-name="Trazado 1048925" d="M68.744,166.5A14.344,14.344,0,1,1,54.4,180.844,14.348,14.348,0,0,1,68.744,166.5Z" transform="translate(-54.4 -159.484)" fill="#c8d8e1" fill-rule="evenodd"/>
        </g>
        <path id="Trazado_1048926" data-name="Trazado 1048926" d="M61.038,39.375a1.039,1.039,0,1,1-2.079,0V37.387a3.416,3.416,0,0,1,3.4-3.4h6.9a1.039,1.039,0,0,1,0,2.079h-6.9a1.331,1.331,0,0,0-1.325,1.325Zm8.224,37.549a1.039,1.039,0,0,1,0,2.079h-6.9a3.407,3.407,0,0,1-3.4-3.4V73.61a1.039,1.039,0,1,1,2.079,0V75.6a1.331,1.331,0,0,0,1.325,1.325Zm-1.39-23.179a1.039,1.039,0,1,1,2.079,0v5.184a4.505,4.505,0,0,1-4.5,4.5H61.038a1.019,1.019,0,0,1-.065,1.273,1.03,1.03,0,0,1-1.455.1l-1.962-1.689a1.037,1.037,0,0,1,.013-1.572l1.949-1.689a1.035,1.035,0,0,1,1.429,1.494h4.508a2.415,2.415,0,0,0,2.4-2.4v-5.2Zm-5.444-4.171a1.042,1.042,0,0,1,1.533-1.39l1.962,1.689a1.037,1.037,0,0,1-.013,1.572l-1.949,1.689a1.04,1.04,0,0,1-1.442-1.494H58.011a2.429,2.429,0,0,0-2.417,2.417V59.24a1.039,1.039,0,0,1-2.079,0V54.056a4.505,4.505,0,0,1,4.5-4.5h4.417Zm-.689-8.458A15.29,15.29,0,0,1,71.614,44.7V29.864a1.042,1.042,0,0,1,1.039-1.039H90.259l4.664-4.664a2.02,2.02,0,0,1,2.832.013l2.4,2.4a2.008,2.008,0,0,1,.013,2.832l-7.5,7.484V49.132a1.042,1.042,0,0,1-1.039,1.039H75.772a15.386,15.386,0,0,1,.013,12.6H90.259l4.664-4.664a2.02,2.02,0,0,1,2.832.013l2.4,2.391a2.008,2.008,0,0,1,.013,2.832L92.688,70.83V83.069a1.042,1.042,0,0,1-1.039,1.039H72.641A1.042,1.042,0,0,1,71.6,83.069V68.3A15.382,15.382,0,1,1,61.74,41.116Zm11.94,5.691c.338.416.65.845.948,1.286H90.6V38.972l-.676.676a1.154,1.154,0,0,1-.494.273l-5.275,1.533a1.032,1.032,0,0,1-1.286-1.286L84.4,34.918a1.025,1.025,0,0,1,.286-.533l3.482-3.469H73.68Zm.961,18.06c-.3.455-.624.9-.961,1.325V82.055H90.6V72.935l-.676.676a1.154,1.154,0,0,1-.494.273l-5.275,1.533a1.032,1.032,0,0,1-1.286-1.286L84.4,68.881a1.025,1.025,0,0,1,.286-.533l3.5-3.5H74.641Zm-3.5-17.774a13.3,13.3,0,1,0,0,18.813A13.3,13.3,0,0,0,71.146,47.092ZM87.8,38.205a4.323,4.323,0,0,0-1.715-1.7l-.715,2.443,2.443-.715Zm7.276-11.265,2.313,2.3,1.247-1.234-2.313-2.313Zm.845,3.768-2.313-2.3-6.366,6.366a6.049,6.049,0,0,1,2.3,2.313ZM76.772,44.935a1.039,1.039,0,0,1,0-2.079H87.491a1.039,1.039,0,0,1,0,2.079Zm0-4.392a1.039,1.039,0,1,1,0-2.079h3.586a1.039,1.039,0,1,1,0,2.079Zm0-4.392a1.039,1.039,0,0,1,0-2.079h2.871a1.039,1.039,0,0,1,0,2.079Zm9.667,34.508-.351-.208L85.373,72.9l2.443-.715a4.178,4.178,0,0,0-1.377-1.52Zm8.64-9.77L97.392,63.2l1.247-1.234-2.313-2.326Zm.845,3.768-2.313-2.3-6.366,6.366a6.049,6.049,0,0,1,2.3,2.313ZM76.772,78.885a1.039,1.039,0,1,1,0-2.079H87.491a1.039,1.039,0,0,1,0,2.079Zm0-4.392a1.039,1.039,0,1,1,0-2.079h3.586a1.039,1.039,0,1,1,0,2.079Zm0-4.379a1.039,1.039,0,0,1,0-2.079h2.871a1.039,1.039,0,0,1,0,2.079Z" transform="translate(-46.35 -23.587)"/>
      </g>
    </g>
  </g>
</svg>
