<svg xmlns="http://www.w3.org/2000/svg" xmlns:xlink="http://www.w3.org/1999/xlink" width="90.565" height="115.636" viewBox="0 0 90.565 115.636">
  <defs>
    <filter id="Trazado_1048805" x="0" y="0" width="90.453" height="115.636" filterUnits="userSpaceOnUse">
      <feOffset dy="3" input="SourceAlpha"/>
      <feGaussianBlur stdDeviation="3" result="blur"/>
      <feFlood flood-opacity="0.161"/>
      <feComposite operator="in" in2="blur"/>
      <feComposite in="SourceGraphic"/>
    </filter>
  </defs>
  <g id="Grupo_1181903" data-name="Grupo 1181903" transform="translate(-907.052 -3431.111)">
    <g id="Grupo_1181780" data-name="Grupo 1181780" transform="translate(155.32 1462.977)">
      <g id="Grupo_1181743" data-name="Grupo 1181743" transform="translate(760.731 1973)">
        <g id="Grupo_1181742" data-name="Grupo 1181742" transform="translate(0 0)">
          <path id="Trazado_1048804" data-name="Trazado 1048804" d="M127.429,109.916c-22.489,0-40.784-16.31-40.784-36.359S124.352,2.836,125.959.662a1.964,1.964,0,0,1,2.941,0c1.607,2.173,39.31,53.434,39.31,72.895s-18.3,36.359-40.784,36.359Z" transform="translate(-86.645 0)" fill="#2da8f9"/>
          <g transform="matrix(1, 0, 0, 1, -9, -4.87)" filter="url(#Trazado_1048805)">
            <path id="Trazado_1048805-2" data-name="Trazado 1048805" d="M122.873,97.636c-19.977,0-36.228-14.488-36.228-32.3S120.139,2.519,121.567.588a1.745,1.745,0,0,1,2.613,0C125.607,2.519,159.1,48.053,159.1,65.34s-16.252,32.3-36.228,32.3Z" transform="translate(-77.64 6)" fill="#2cfefa" opacity="0.9"/>
          </g>
        </g>
      </g>
    </g>
    <g id="leak_5567749" transform="translate(931.051 3471.266)">
      <rect id="Rectángulo_407431" data-name="Rectángulo 407431" width="13" height="14" transform="translate(19.734 34.734)" fill="#a4bcce"/>
      <path id="Trazado_1048927" data-name="Trazado 1048927" d="M41.734,32.19V3.673A2.673,2.673,0,0,0,39.061,1H17.673A2.673,2.673,0,0,0,15,3.673V32.19Z" transform="translate(-1.633 -0.109)" fill="#4982c8"/>
      <path id="Trazado_1048928" data-name="Trazado 1048928" d="M46.428,53.605H34.866a1.171,1.171,0,0,1-1.136-.887L32.253,46.81a.891.891,0,0,0-.371-.525l-2.055-1.371a.891.891,0,0,1-.388-.616l-.609-4.257a.8.8,0,0,0-1.359-.454l-2.967,2.967a.891.891,0,0,0-.234.846l.624,2.5a.891.891,0,0,1-.33.929l-2.733,2.051a.891.891,0,0,0-.356.713v3.119a.891.891,0,0,1-.891.891H9V34H46.428Z" transform="translate(-0.98 -3.701)" fill="#b5cddd"/>
      <rect id="Rectángulo_407432" data-name="Rectángulo 407432" width="9" height="25" rx="3" transform="translate(0.734 27.734)" fill="#a4bcce"/>
      <rect id="Rectángulo_407433" data-name="Rectángulo 407433" width="9" height="25" rx="3" transform="translate(43.734 27.734)" fill="#a4bcce"/>
      <path id="Trazado_1048929" data-name="Trazado 1048929" d="M32.347,55.456c0-1.485-1.234-2.352-2.162-4.142a.577.577,0,0,0-1.024,0c-1,1.934-2.36,2.79-2.139,4.51a2.673,2.673,0,0,0,5.325-.368Z" transform="translate(-2.939 -5.552)" fill="#4982c8"/>
      <path id="Trazado_1048930" data-name="Trazado 1048930" d="M35.476,1V3.673a1.782,1.782,0,0,1-1.782,1.782H24.782A1.782,1.782,0,0,1,23,3.673V1Z" transform="translate(-2.504 -0.109)" fill="#cfe3ed"/>
      <rect id="Rectángulo_407434" data-name="Rectángulo 407434" width="4" height="11" rx="2" transform="translate(24.734 8.734)" fill="#fbe05e"/>
      <circle id="Elipse_12035" data-name="Elipse 12035" cx="2" cy="2" r="2" transform="translate(24.734 22.734)" fill="#fbe05e"/>
      <path id="Trazado_1048931" data-name="Trazado 1048931" d="M49.9,26.734H46.339A3.565,3.565,0,0,0,42.9,29.408H40.992V3.565A3.565,3.565,0,0,0,37.428,0H16.04a3.565,3.565,0,0,0-3.565,3.565V29.408H10.567a3.565,3.565,0,0,0-3.438-2.673H3.565A3.565,3.565,0,0,0,0,30.3v1.782a.891.891,0,0,0,1.782,0V30.3a1.782,1.782,0,0,1,1.782-1.782H7.129A1.782,1.782,0,0,1,8.911,30.3V49.9a1.782,1.782,0,0,1-1.782,1.782H3.565A1.782,1.782,0,0,1,1.782,49.9V35.646a.891.891,0,0,0-1.782,0V49.9a3.565,3.565,0,0,0,3.565,3.565H7.129a3.565,3.565,0,0,0,3.438-2.673h9.038A1.776,1.776,0,0,0,21.14,49.9h2.034a3.732,3.732,0,0,0,.028.48,3.547,3.547,0,0,0,2.623,2.97,3.733,3.733,0,0,0,.91.114A3.565,3.565,0,0,0,30.3,49.9h1.894a2.058,2.058,0,0,0,1.693.891H42.9a3.565,3.565,0,0,0,3.438,2.673H49.9A3.565,3.565,0,0,0,53.468,49.9V30.3A3.565,3.565,0,0,0,49.9,26.734ZM21.387,1.782H32.081V3.565a.891.891,0,0,1-.891.891H22.278a.891.891,0,0,1-.891-.891ZM14.258,3.565A1.782,1.782,0,0,1,16.04,1.782h3.565V3.565a2.673,2.673,0,0,0,2.673,2.673H31.19a2.673,2.673,0,0,0,2.673-2.673V1.782h3.565A1.782,1.782,0,0,1,39.21,3.565V29.408H14.258ZM27.819,51.3a1.83,1.83,0,0,1-1.559.326,1.777,1.777,0,0,1-1.29-1.472c-.1-.755.226-1.248.913-2.207.267-.375.566-.79.853-1.274.287.486.584.9.854,1.276a3.486,3.486,0,0,1,.929,1.955,1.754,1.754,0,0,1-.7,1.4Zm.218-5.952a1.462,1.462,0,0,0-1.3-.791h0a1.461,1.461,0,0,0-1.3.793,12.589,12.589,0,0,1-1,1.559,10.836,10.836,0,0,0-.787,1.212h-2.26V45.894l2.734-2.05a1.782,1.782,0,0,0,.66-1.859l-.624-2.5L27,36.646l.582,4.078a1.782,1.782,0,0,0,.776,1.232l2.056,1.37,1.2,4.8H29.825a11.023,11.023,0,0,0-.786-1.21,12.511,12.511,0,0,1-1-1.563ZM33.615,48.8l-1.478-5.909a1.782,1.782,0,0,0-.74-1.051l-2.055-1.37-.609-4.256a1.693,1.693,0,0,0-2.872-.959L22.9,38.224a1.782,1.782,0,0,0-.468,1.693l.624,2.5-2.734,2.049a1.789,1.789,0,0,0-.713,1.426v3.119H10.694V31.19H42.775V49.013H33.886A.281.281,0,0,1,33.615,48.8Zm18.071,1.1A1.782,1.782,0,0,1,49.9,51.686H46.339A1.782,1.782,0,0,1,44.557,49.9V30.3a1.782,1.782,0,0,1,1.782-1.782H49.9A1.782,1.782,0,0,1,51.686,30.3Z" fill="#373737"/>
      <path id="Trazado_1048932" data-name="Trazado 1048932" d="M29.673,9A2.673,2.673,0,0,0,27,11.673V18.8a2.673,2.673,0,1,0,5.347,0V11.673A2.673,2.673,0,0,0,29.673,9Zm.891,9.8a.891.891,0,1,1-1.782,0V11.673a.891.891,0,1,1,1.782,0Z" transform="translate(-2.939 -0.98)" fill="#373737"/>
      <path id="Trazado_1048933" data-name="Trazado 1048933" d="M29.673,25a2.673,2.673,0,1,0,2.673,2.673A2.673,2.673,0,0,0,29.673,25Zm0,3.565a.891.891,0,1,1,.891-.891A.891.891,0,0,1,29.673,28.565Z" transform="translate(-2.939 -2.722)" fill="#373737"/>
      <path id="Trazado_1048934" data-name="Trazado 1048934" d="M18.891,4A.891.891,0,0,0,18,4.891v.891a.891.891,0,1,0,1.782,0V4.891A.891.891,0,0,0,18.891,4Z" transform="translate(-1.96 -0.435)" fill="#373737"/>
      <path id="Trazado_1048935" data-name="Trazado 1048935" d="M40.891,4A.891.891,0,0,0,40,4.891v.891a.891.891,0,0,0,1.782,0V4.891A.891.891,0,0,0,40.891,4Z" transform="translate(-4.354 -0.435)" fill="#373737"/>
    </g>
  </g>
</svg>
