<svg xmlns="http://www.w3.org/2000/svg" xmlns:xlink="http://www.w3.org/1999/xlink" width="90.565" height="115.636" viewBox="0 0 90.565 115.636">
  <defs>
    <filter id="Trazado_1048805" x="0" y="0" width="90.453" height="115.636" filterUnits="userSpaceOnUse">
      <feOffset dy="3" input="SourceAlpha"/>
      <feGaussianBlur stdDeviation="3" result="blur"/>
      <feFlood flood-opacity="0.161"/>
      <feComposite operator="in" in2="blur"/>
      <feComposite in="SourceGraphic"/>
    </filter>
  </defs>
  <g id="Grupo_1181904" data-name="Grupo 1181904" transform="translate(-1222.052 -3431.111)">
    <g id="Grupo_1181781" data-name="Grupo 1181781" transform="translate(470.32 1462.977)">
      <g id="Grupo_1181743" data-name="Grupo 1181743" transform="translate(760.731 1973)">
        <g id="Grupo_1181742" data-name="Grupo 1181742" transform="translate(0 0)">
          <path id="Trazado_1048804" data-name="Trazado 1048804" d="M127.429,109.916c-22.489,0-40.784-16.31-40.784-36.359S124.352,2.836,125.959.662a1.964,1.964,0,0,1,2.941,0c1.607,2.173,39.31,53.434,39.31,72.895s-18.3,36.359-40.784,36.359Z" transform="translate(-86.645 0)" fill="#2da8f9"/>
          <g transform="matrix(1, 0, 0, 1, -9, -4.87)" filter="url(#Trazado_1048805)">
            <path id="Trazado_1048805-2" data-name="Trazado 1048805" d="M122.873,97.636c-19.977,0-36.228-14.488-36.228-32.3S120.139,2.519,121.567.588a1.745,1.745,0,0,1,2.613,0C125.607,2.519,159.1,48.053,159.1,65.34s-16.252,32.3-36.228,32.3Z" transform="translate(-77.65 6)" fill="#2cfefa" opacity="0.9"/>
          </g>
        </g>
      </g>
    </g>
    <g id="water_6002919" transform="translate(1247.051 3472.738)">
      <path id="Trazado_1048936" data-name="Trazado 1048936" d="M36.306,26.909l2.156.994.994,2.156a.72.72,0,0,0,.741.4,13.427,13.427,0,0,1-26.2-4.1c0-5.153,1.8-8.522,4.219-11.856l.185.4a.717.717,0,0,0,1.3,0l.994-2.156,2.156-.994a.717.717,0,0,0,0-1.3L21.7,9.925a41.414,41.414,0,0,0,5.01-8.42.825.825,0,0,1,1.516-.017c4.151,9.54,10.534,13.077,12.269,20.681a.72.72,0,0,0-1.044.295l-.994,2.156-2.156.994a.717.717,0,0,0,0,1.3Z" transform="translate(-2.211 -0.158)" fill="#d7ecf9"/>
      <path id="Trazado_1048937" data-name="Trazado 1048937" d="M38.6,25.613l2.156-.994.994-2.156a.72.72,0,0,1,1.044-.295c-1.735-7.6-8.117-11.14-12.269-20.681a.825.825,0,0,0-1.516.017c-.162.372-.328.731-.5,1.085C32.656,11.3,38.6,14.869,40.265,22.169a.72.72,0,0,0-1.044.295l-.994,2.156-2.156.994a.717.717,0,0,0,0,1.3l2.156.994.994,2.156a.72.72,0,0,0,.741.4,13.52,13.52,0,0,1-11.43,9.2,13.836,13.836,0,0,0,1.789.059,13.493,13.493,0,0,0,12.168-9.263.72.72,0,0,1-.741-.4L40.753,27.9,38.6,26.909a.717.717,0,0,1,0-1.3Z" transform="translate(-4.503 -0.158)" fill="#afdaf4"/>
      <path id="Trazado_1048938" data-name="Trazado 1048938" d="M1,53.025v3.026a1.684,1.684,0,0,0,1.684,1.684H48.155a1.684,1.684,0,0,0,1.684-1.684V53.026a1.684,1.684,0,0,0-2.4-1.524,6.745,6.745,0,0,1-3.7,1.179c-3.052,0-3.052-1.684-6.1-1.684s-3.052,1.684-6.1,1.684S28.479,51,25.428,51s-3.053,1.684-6.107,1.684S16.269,51,13.217,51s-3.055,1.684-6.109,1.684A6.811,6.811,0,0,1,3.4,51.5,1.684,1.684,0,0,0,1,53.025Z" transform="translate(-0.158 -8.055)" fill="#d7ecf9"/>
      <path id="Trazado_1048939" data-name="Trazado 1048939" d="M55.806,51.57c-.219.1-.421.216-.626.328a1.661,1.661,0,0,1,.505,1.2v3.023A1.684,1.684,0,0,1,54,57.8h2.526a1.684,1.684,0,0,0,1.684-1.684V53.091a1.684,1.684,0,0,0-2.406-1.522Z" transform="translate(-8.53 -8.12)" fill="#afdaf4"/>
      <g id="Grupo_1181777" data-name="Grupo 1181777" transform="translate(0.887 5.052)">
        <path id="Trazado_1048940" data-name="Trazado 1048940" d="M23.008,12.859l-2.156.994-.994,2.156a.717.717,0,0,1-1.3,0l-.185-.4-.808-1.76-2.156-.994a.717.717,0,0,1,0-1.3l2.156-.994.994-2.156a.717.717,0,0,1,1.3,0l.994,2.156,1.01.463,1.145.53a.717.717,0,0,1,0,1.3Z" transform="translate(-3.257 -6.316)" fill="#ffdf00"/>
        <path id="Trazado_1048941" data-name="Trazado 1048941" d="M48.008,30.859l-2.156.994-.994,2.156a.685.685,0,0,1-.556.4.72.72,0,0,1-.741-.4l-.994-2.156-2.156-.994a.717.717,0,0,1,0-1.3l2.156-.994.994-2.156a.72.72,0,0,1,1.044-.295v.008a.651.651,0,0,1,.253.286l.994,2.156,2.156.994a.717.717,0,0,1,0,1.3Z" transform="translate(-7.205 -9.158)" fill="#ffdf00"/>
        <path id="Trazado_1048942" data-name="Trazado 1048942" d="M51.856,6.413l.993,2.158,2.158.993a.711.711,0,0,1,0,1.292l-2.158.993-.993,2.158a.711.711,0,0,1-1.292,0l-.993-2.158-2.158-.993a.711.711,0,0,1,0-1.292l2.158-.993.993-2.158a.711.711,0,0,1,1.292,0Z" transform="translate(-8.31 -5.999)" fill="#ffdf00"/>
        <path id="Trazado_1048943" data-name="Trazado 1048943" d="M5.91,35.467,6.9,37.625l2.158.993a.711.711,0,0,1,0,1.292L6.9,40.9,5.91,43.061a.711.711,0,0,1-1.292,0L3.625,40.9,1.467,39.91a.711.711,0,0,1,0-1.292l2.158-.993.993-2.158a.711.711,0,0,1,1.292,0Z" transform="translate(-1.053 -10.588)" fill="#ffdf00"/>
      </g>
      <path id="Trazado_1048944" data-name="Trazado 1048944" d="M20.368,37.918a.837.837,0,0,1-.629-.282A10.767,10.767,0,0,1,17,30.467a16.5,16.5,0,0,1,.22-2.764.842.842,0,1,1,1.661.28,14.864,14.864,0,0,0-.2,2.485A9.089,9.089,0,0,0,21,36.515a.842.842,0,0,1-.629,1.4Z" transform="translate(-2.685 -4.265)" fill="#f5f5f5"/>
      <path id="Trazado_1048945" data-name="Trazado 1048945" d="M28.9,43.432a11.015,11.015,0,0,1-5.48-1.457.843.843,0,0,1,.842-1.46A9.327,9.327,0,0,0,28.9,41.748a.842.842,0,1,1,0,1.684Z" transform="translate(-3.633 -6.382)" fill="#f5f5f5"/>
      <path id="Trazado_1048946" data-name="Trazado 1048946" d="M17.36,36.417a14.247,14.247,0,0,0,9.955,4c.2,0,.392,0,.589-.012a14.238,14.238,0,0,0,12.787-9.45,1.533,1.533,0,0,0,.665-.7l.863-1.875,1.875-.863a1.553,1.553,0,0,0,0-2.821l-1.875-.863-.863-1.875a1.566,1.566,0,0,0-.269-.4c-1-4.08-3.305-7.081-5.75-10.246A46.83,46.83,0,0,1,28.846,1a1.631,1.631,0,0,0-1.519-1,1.679,1.679,0,0,0-1.542,1.01,39.5,39.5,0,0,1-4.513,7.707l-.1-.045L20.3,6.8a1.553,1.553,0,0,0-2.821,0l-.863,1.875-1.875.863a1.553,1.553,0,0,0,0,2.821l1.875.863.477,1.038A19.236,19.236,0,0,0,13,26.2a14.052,14.052,0,0,0,4.36,10.212ZM43.13,26.1l-1.9.874a.842.842,0,0,0-.413.413l-.874,1.9-.874-1.9a.842.842,0,0,0-.413-.413l-1.9-.874,1.9-.874a.842.842,0,0,0,.413-.413l.874-1.9.874,1.9a.842.842,0,0,0,.413.413ZM27.3,1.668A48.2,48.2,0,0,0,34,12.339c2.274,2.94,4.249,5.524,5.248,8.889a1.528,1.528,0,0,0-.717.727l-.863,1.875-1.875.863a1.553,1.553,0,0,0,0,2.821l1.875.863.862,1.874a1.55,1.55,0,0,0,.421.531A12.566,12.566,0,0,1,18.526,35.2a12.387,12.387,0,0,1-3.842-9A17.363,17.363,0,0,1,18.1,15.774,1.547,1.547,0,0,0,20.3,15.1l.863-1.875,1.875-.863a1.553,1.553,0,0,0,0-2.821l-.21-.1A39.139,39.139,0,0,0,27.3,1.668ZM15.71,10.947l1.9-.874a.842.842,0,0,0,.413-.413l.874-1.9.874,1.9a.842.842,0,0,0,.413.413l1.9.874-1.9.874a.842.842,0,0,0-.413.413l-.874,1.9-.874-1.9a.842.842,0,0,0-.413-.413Z" transform="translate(-2.053 0)"/>
      <path id="Trazado_1048947" data-name="Trazado 1048947" d="M49.344,50.732a2.516,2.516,0,0,0-2.43-.149c-.242.115-.467.239-.692.363a5.113,5.113,0,0,1-5.29,0,6.786,6.786,0,0,0-6.917,0,5.114,5.114,0,0,1-5.289,0A6.3,6.3,0,0,0,25.27,50a6.3,6.3,0,0,0-3.461.947,4.689,4.689,0,0,1-2.646.737,4.692,4.692,0,0,1-2.646-.737A6.3,6.3,0,0,0,13.059,50a6.31,6.31,0,0,0-3.461.946,4.689,4.689,0,0,1-2.648.738A4.7,4.7,0,0,1,4.3,50.947c-.226-.125-.453-.253-.7-.365A2.526,2.526,0,0,0,0,52.868v3.026A2.526,2.526,0,0,0,2.526,58.42H48a2.526,2.526,0,0,0,2.526-2.526V52.869a2.515,2.515,0,0,0-1.179-2.136Zm-.505,5.162a.842.842,0,0,1-.842.842H2.526a.842.842,0,0,1-.842-.842V52.868a.842.842,0,0,1,1.2-.763c.211.1.407.209.6.317a6.306,6.306,0,0,0,3.46.946,6.3,6.3,0,0,0,3.461-.947,4.7,4.7,0,0,1,2.648-.737,4.686,4.686,0,0,1,2.644.737,6.308,6.308,0,0,0,3.46.947,6.3,6.3,0,0,0,3.46-.947,5.117,5.117,0,0,1,5.291,0,6.788,6.788,0,0,0,6.917,0,5.114,5.114,0,0,1,5.289,0,6.786,6.786,0,0,0,6.917,0c.2-.107.39-.216.6-.316a.842.842,0,0,1,1.2.764Z" transform="translate(0 -7.897)"/>
      <path id="Trazado_1048948" data-name="Trazado 1048948" d="M46.9,11.463l1.875.863.862,1.874a1.553,1.553,0,0,0,2.822,0l.863-1.874,1.875-.863a1.553,1.553,0,0,0,0-2.821l-1.875-.863L52.463,5.9a1.553,1.553,0,0,0-2.821,0l-.863,1.875L46.9,8.642a1.553,1.553,0,0,0,0,2.821Zm2.863-2.284a.842.842,0,0,0,.413-.413l.873-1.9.874,1.9a.842.842,0,0,0,.413.413l1.9.874-1.9.874a.842.842,0,0,0-.413.413l-.874,1.9-.874-1.9a.842.842,0,0,0-.413-.413l-1.9-.874Z" transform="translate(-7.266 -0.79)"/>
      <path id="Trazado_1048949" data-name="Trazado 1048949" d="M2.833,41.38,3.7,43.255a1.551,1.551,0,0,0,2.819,0l.863-1.875,1.874-.863a1.552,1.552,0,0,0,0-2.821L7.38,36.833l-.863-1.875a1.551,1.551,0,0,0-2.819,0l-.865,1.875L.958,37.7a1.553,1.553,0,0,0,0,2.821Zm.987-3.147a.842.842,0,0,0,.413-.413l.873-1.9.874,1.9a.834.834,0,0,0,.413.413l1.9.874-1.9.874a.834.834,0,0,0-.413.413l-.874,1.9-.873-1.9a.842.842,0,0,0-.413-.413l-1.9-.873Z" transform="translate(-0.009 -5.379)"/>
    </g>
  </g>
</svg>
