<svg xmlns="http://www.w3.org/2000/svg" xmlns:xlink="http://www.w3.org/1999/xlink" width="110" height="110" viewBox="0 0 110 110">
  <defs>
    <clipPath id="clip-path">
      <rect id="Rectángulo_407442" data-name="Rectángulo 407442" width="110" height="110" transform="translate(800.781 1960)" fill="#37a2e4" opacity="0.47"/>
    </clipPath>
    <filter id="Trazado_1048984" x="5" y="-4.866" width="90.453" height="115.637" filterUnits="userSpaceOnUse">
      <feOffset dy="3" input="SourceAlpha"/>
      <feGaussianBlur stdDeviation="3" result="blur"/>
      <feFlood flood-opacity="0.161"/>
      <feComposite operator="in" in2="blur"/>
      <feComposite in="SourceGraphic"/>
    </filter>
  </defs>
  <g id="Enmascarar_grupo_1098956" data-name="Enmascarar grupo 1098956" transform="translate(-800.781 -1960)" clip-path="url(#clip-path)">
    <g id="Grupo_1181797" data-name="Grupo 1181797" transform="translate(-1 -1)">
      <g id="Grupo_1181795" data-name="Grupo 1181795" transform="translate(815.781 1961)">
        <g id="Grupo_1181794" data-name="Grupo 1181794" transform="translate(0 0)">
          <path id="Trazado_1048983" data-name="Trazado 1048983" d="M127.429,109.916c-22.489,0-40.784-16.31-40.784-36.359S124.352,2.836,125.959.662a1.964,1.964,0,0,1,2.941,0c1.607,2.173,39.31,53.434,39.31,72.895s-18.3,36.359-40.784,36.359Z" transform="translate(-86.645 0)" fill="#54eabd"/>
          <g transform="matrix(1, 0, 0, 1, -14, 0)" filter="url(#Trazado_1048984)">
            <path id="Trazado_1048984-2" data-name="Trazado 1048984" d="M122.873,97.636c-19.977,0-36.228-14.488-36.228-32.3S120.139,2.519,121.567.588a1.745,1.745,0,0,1,2.613,0C125.607,2.519,159.1,48.053,159.1,65.34s-16.252,32.3-36.228,32.3Z" transform="translate(-72.64 1.13)" fill="#54eabd" opacity="0.9"/>
          </g>
        </g>
      </g>
      <g id="ventilation_389473" transform="translate(827.508 1997.099)">
        <circle id="Elipse_12056" data-name="Elipse 12056" cx="16.906" cy="16.906" r="16.906" transform="translate(12.149 24.668)" fill="#898890"/>
        <path id="Trazado_1049114" data-name="Trazado 1049114" d="M123.948,204.452a16.906,16.906,0,1,0,16.906,16.906A16.906,16.906,0,0,0,123.948,204.452Zm0,31.4a14.491,14.491,0,1,1,14.491-14.491A14.491,14.491,0,0,1,123.948,235.849Z" transform="translate(-94.893 -179.784)" fill="#e0e0e2"/>
        <circle id="Elipse_12057" data-name="Elipse 12057" cx="1.811" cy="1.811" r="1.811" transform="translate(27.244 39.763)" fill="#ff5023"/>
        <g id="Grupo_1181863" data-name="Grupo 1181863" transform="translate(15.772 28.291)">
          <path id="Trazado_1049115" data-name="Trazado 1049115" d="M220.686,245.472a4.829,4.829,0,0,0-4.831,0s-2.415-4.33-2.415-5.478,1.328-3.623,4.83-3.623,4.83,2.415,4.83,3.623S220.686,245.472,220.686,245.472Z" transform="translate(-204.987 -236.372)" fill="#57a4ff"/>
          <path id="Trazado_1049116" data-name="Trazado 1049116" d="M148.063,313.266a4.829,4.829,0,0,0,0,4.831s-4.33,2.415-5.478,2.415-3.623-1.328-3.623-4.83,2.415-4.83,3.623-4.83S148.063,313.266,148.063,313.266Z" transform="translate(-138.963 -302.398)" fill="#57a4ff"/>
          <path id="Trazado_1049117" data-name="Trazado 1049117" d="M215.857,390.263a4.829,4.829,0,0,0,4.83,0s2.415,4.33,2.415,5.478-1.328,3.623-4.83,3.623-4.83-2.415-4.83-3.623S215.857,390.263,215.857,390.263Z" transform="translate(-204.989 -372.797)" fill="#57a4ff"/>
          <path id="Trazado_1049118" data-name="Trazado 1049118" d="M292.855,318.095a4.829,4.829,0,0,0,0-4.831s4.33-2.415,5.478-2.415,3.623,1.328,3.623,4.83-2.415,4.83-3.623,4.83S292.855,318.095,292.855,318.095Z" transform="translate(-275.389 -302.396)" fill="#57a4ff"/>
        </g>
        <g id="Grupo_1181864" data-name="Grupo 1181864" transform="translate(15.772 34.933)">
          <path id="Trazado_1049119" data-name="Trazado 1049119" d="M230.232,294.891a7.205,7.205,0,0,0-3.3.8c.478.937.884,1.663.884,1.663a4.829,4.829,0,0,1,4.83,0s.409-.724.891-1.66A7.2,7.2,0,0,0,230.232,294.891Z" transform="translate(-216.949 -294.891)" fill="#2488ff"/>
          <path id="Trazado_1049120" data-name="Trazado 1049120" d="M218.27,430.191a4.738,4.738,0,0,1-4.51-2.426,4.026,4.026,0,0,0-.321,1.219c0,1.208,1.328,3.623,4.83,3.623s4.83-2.476,4.83-3.623a4.076,4.076,0,0,0-.332-1.222A4.767,4.767,0,0,1,218.27,430.191Z" transform="translate(-204.987 -412.682)" fill="#2488ff"/>
          <path id="Trazado_1049121" data-name="Trazado 1049121" d="M142.585,346.335a4.143,4.143,0,0,1-3.516-3.63,6.7,6.7,0,0,0-.106,1.215c0,3.5,2.476,4.83,3.623,4.83s5.478-2.415,5.478-2.415a4.8,4.8,0,0,1-.635-2.07C146.182,344.932,143.459,346.335,142.585,346.335Z" transform="translate(-138.962 -337.278)" fill="#2488ff"/>
          <path id="Trazado_1049122" data-name="Trazado 1049122" d="M298.333,346.45c-.919,0-3.609-1.4-4.843-2.066a4.8,4.8,0,0,1-.634,2.066s4.27,2.415,5.478,2.415,3.623-1.328,3.623-4.83a6.553,6.553,0,0,0-.106-1.2A4.084,4.084,0,0,1,298.333,346.45Z" transform="translate(-275.389 -337.394)" fill="#2488ff"/>
        </g>
        <path id="Trazado_1049123" data-name="Trazado 1049123" d="M116.874,196.473a17.812,17.812,0,1,0,17.812,17.812A17.832,17.832,0,0,0,116.874,196.473Zm0,33.812a16,16,0,1,1,16-16A16.018,16.018,0,0,1,116.874,230.285Z" transform="translate(-87.819 -172.71)"/>
        <path id="Trazado_1049124" data-name="Trazado 1049124" d="M210.074,5.118v14.72h1.811V5.118L215.463,8.7l1.281-1.281L210.98,1.651l-5.764,5.764L206.5,8.7Z" transform="translate(-181.925)"/>
        <path id="Trazado_1049125" data-name="Trazado 1049125" d="M90.234,7.9l5.179,4.661A15.385,15.385,0,0,1,100.5,23.976h1.811a17.2,17.2,0,0,0-5.685-12.765L91.689,6.768h4.885V4.957H88.423v8.151h1.811Z" transform="translate(-78.387 -2.931)"/>
        <path id="Trazado_1049126" data-name="Trazado 1049126" d="M16.074,92.2h1.811a8.16,8.16,0,0,0-8.151-8.151H3.467l3.577-3.577L5.764,79.19,0,84.954l5.764,5.764,1.281-1.281L3.467,85.859H9.734A6.347,6.347,0,0,1,16.074,92.2Z" transform="translate(0 -68.739)"/>
        <path id="Trazado_1049127" data-name="Trazado 1049127" d="M303.029,23.976a15.386,15.386,0,0,1,5.086-11.419L313.294,7.9v5.212h1.811V4.957h-8.151V6.768h4.885L306.9,11.211a17.2,17.2,0,0,0-5.685,12.765h1.811Z" transform="translate(-267.031 -2.931)"/>
        <path id="Trazado_1049128" data-name="Trazado 1049128" d="M366.538,90.717l5.764-5.764-5.764-5.764-1.281,1.281,3.577,3.577h-6.266a8.16,8.16,0,0,0-8.151,8.151h1.811a6.347,6.347,0,0,1,6.34-6.34h6.266l-3.577,3.577Z" transform="translate(-314.192 -68.739)"/>
        <path id="Trazado_1049129" data-name="Trazado 1049129" d="M234.777,329.47a2.717,2.717,0,1,0,2.717,2.717A2.72,2.72,0,0,0,234.777,329.47Zm0,3.623a.906.906,0,1,1,.906-.906A.907.907,0,0,1,234.777,333.093Z" transform="translate(-205.722 -290.613)"/>
        <path id="Trazado_1049130" data-name="Trazado 1049130" d="M208.44,239.643l.8-.461a3.923,3.923,0,0,1,3.922,0l.792.459.45-.8c.594-1.051,2.532-4.582,2.532-5.924,0-1.826-1.823-4.528-5.736-4.528-4.054,0-5.736,2.949-5.736,4.528,0,1.283,1.936,4.855,2.53,5.919Zm2.758-9.44c2.995,0,3.925,1.992,3.925,2.717a18.671,18.671,0,0,1-1.892,4.3,5.739,5.739,0,0,0-4.062,0,19.993,19.993,0,0,1-1.9-4.3C207.273,232.224,208.239,230.2,211.2,230.2Z" transform="translate(-182.143 -201.007)"/>
        <path id="Trazado_1049131" data-name="Trazado 1049131" d="M142.234,311.363l-.461-.8a3.923,3.923,0,0,1,0-3.923l.459-.792-.8-.45c-1.051-.594-4.582-2.532-5.924-2.532-1.826,0-4.528,1.823-4.528,5.736,0,4.053,2.949,5.736,4.528,5.736,1.283,0,4.855-1.936,5.919-2.53Zm-2.427-.729a19.99,19.99,0,0,1-4.3,1.9c-.7,0-2.717-.966-2.717-3.925,0-2.994,1.992-3.925,2.717-3.925a18.671,18.671,0,0,1,4.3,1.892,5.739,5.739,0,0,0,0,4.062Z" transform="translate(-116.117 -267.031)"/>
        <path id="Trazado_1049132" data-name="Trazado 1049132" d="M213.954,379.3l-.8.461a3.923,3.923,0,0,1-3.922,0l-.792-.459-.45.8c-.594,1.051-2.532,4.582-2.532,5.924,0,1.826,1.823,4.528,5.736,4.528,4.053,0,5.736-2.949,5.736-4.528,0-1.283-1.936-4.855-2.53-5.919Zm-2.758,9.44c-2.995,0-3.925-1.991-3.925-2.717a18.671,18.671,0,0,1,1.892-4.3,5.74,5.74,0,0,0,4.062,0,19.994,19.994,0,0,1,1.9,4.3C215.121,386.714,214.154,388.735,211.2,388.735Z" transform="translate(-182.141 -334.783)"/>
        <path id="Trazado_1049133" data-name="Trazado 1049133" d="M282.69,305.4l-.8.448.461.8a3.923,3.923,0,0,1,0,3.923l-.459.792.8.45c1.051.594,4.582,2.532,5.924,2.532,1.826,0,4.528-1.823,4.528-5.736,0-4.054-2.949-5.736-4.528-5.736C287.326,302.871,283.754,304.807,282.69,305.4Zm8.636,3.206c0,2.994-1.992,3.925-2.717,3.925a18.67,18.67,0,0,1-4.3-1.892,5.739,5.739,0,0,0,0-4.062,19.99,19.99,0,0,1,4.3-1.9C289.3,304.682,291.326,305.648,291.326,308.607Z" transform="translate(-249.893 -267.033)"/>
        <rect id="Rectángulo_407500" data-name="Rectángulo 407500" width="1.811" height="1.811" transform="translate(51.094 44.291)"/>
        <rect id="Rectángulo_407501" data-name="Rectángulo 407501" width="1.811" height="1.811" transform="translate(51.094 37.046)"/>
        <rect id="Rectángulo_407502" data-name="Rectángulo 407502" width="1.811" height="1.811" transform="translate(51.094 40.668)"/>
        <rect id="Rectángulo_407503" data-name="Rectángulo 407503" width="1.811" height="1.811" transform="translate(5.206 40.668)"/>
        <rect id="Rectángulo_407504" data-name="Rectángulo 407504" width="1.811" height="1.811" transform="translate(5.206 37.046)"/>
        <rect id="Rectángulo_407505" data-name="Rectángulo 407505" width="1.811" height="1.811" transform="translate(5.206 44.291)"/>
      </g>
    </g>
  </g>
</svg>
