<svg xmlns="http://www.w3.org/2000/svg" xmlns:xlink="http://www.w3.org/1999/xlink" width="110" height="110" viewBox="0 0 110 110">
  <defs>
    <clipPath id="clip-path">
      <rect id="Rectángulo_407440" data-name="Rectángulo 407440" width="110" height="110" transform="translate(800.781 1960)" fill="#37a2e4" opacity="0.47"/>
    </clipPath>
    <filter id="Trazado_1048953" x="5" y="-4.866" width="90.453" height="115.637" filterUnits="userSpaceOnUse">
      <feOffset dy="3" input="SourceAlpha"/>
      <feGaussianBlur stdDeviation="3" result="blur"/>
      <feFlood flood-opacity="0.161"/>
      <feComposite operator="in" in2="blur"/>
      <feComposite in="SourceGraphic"/>
    </filter>
  </defs>
  <g id="Enmascarar_grupo_1098955" data-name="Enmascarar grupo 1098955" transform="translate(-800.781 -1960)" clip-path="url(#clip-path)">
    <g id="Grupo_1181793" data-name="Grupo 1181793" transform="translate(-1 -1)">
      <g id="Grupo_1181791" data-name="Grupo 1181791" transform="translate(815.781 1961)">
        <g id="Grupo_1181790" data-name="Grupo 1181790" transform="translate(0 0)">
          <path id="Trazado_1048952" data-name="Trazado 1048952" d="M127.429,109.916c-22.489,0-40.784-16.31-40.784-36.359S124.352,2.836,125.959.662a1.964,1.964,0,0,1,2.941,0c1.607,2.173,39.31,53.434,39.31,72.895s-18.3,36.359-40.784,36.359Z" transform="translate(-86.645 0)" fill="#54eabd"/>
          <g transform="matrix(1, 0, 0, 1, -14, 0)" filter="url(#Trazado_1048953)">
            <path id="Trazado_1048953-2" data-name="Trazado 1048953" d="M122.873,97.636c-19.977,0-36.228-14.488-36.228-32.3S120.139,2.519,121.567.588a1.745,1.745,0,0,1,2.613,0C125.607,2.519,159.1,48.053,159.1,65.34s-16.252,32.3-36.228,32.3Z" transform="translate(-72.64 1.13)" fill="#54eabd" opacity="0.9"/>
          </g>
        </g>
      </g>
      <g id="face-mask_6288645" transform="translate(826.478 1976.292)">
        <g id="Grupo_1181866" data-name="Grupo 1181866" transform="translate(0.815 32.157)">
          <g id="Grupo_1181865" data-name="Grupo 1181865" transform="translate(0 0)">
            <path id="Trazado_1049134" data-name="Trazado 1049134" d="M58.821,140.428c-1.648.587-2.21,2.2-3.858,2.675a74.09,74.09,0,0,1-19.638,2.926c-.181,0-.361-1.083-.542-1.083-.362,0-.723,1.087-1.084,1.083a75.514,75.514,0,0,1-24.587-4.515A2.433,2.433,0,0,1,7.5,139.22v-21.8a2.438,2.438,0,0,1,1.486-2.245l22.031-9.35a8.939,8.939,0,0,1,2.667-.672c.328-.03.658,1.044.987,1.05.218,0,.436-1.071.654-1.051a8.938,8.938,0,0,1,2.678.673l16.866,7.158,4.078,3.279a2.438,2.438,0,0,1,1.486,2.245v19.623A2.433,2.433,0,0,1,58.821,140.428Z" transform="translate(-7.5 -105.156)" fill="#edf6ff"/>
            <path id="Trazado_1049135" data-name="Trazado 1049135" d="M449.961,181.647v21.8a2.432,2.432,0,0,1-1.611,2.294q-2.472.879-4.943,1.588a2.76,2.76,0,0,0,.267-1.187V178.581a2.754,2.754,0,0,0-.364-1.371l5.165,2.192A2.438,2.438,0,0,1,449.961,181.647Z" transform="translate(-395.942 -169.378)" fill="#ddebfd"/>
            <path id="Trazado_1049136" data-name="Trazado 1049136" d="M78.392,287.822c0,3.375-1.649,5.784-5.024,5.784a6.332,6.332,0,0,1-1.7.088,6.113,6.113,0,0,1,0-11.745,6.179,6.179,0,0,1,1.695-.021C76.743,281.929,78.392,284.447,78.392,287.822Z" transform="translate(-60.763 -262.667)" fill="#91b6ff"/>
            <path id="Trazado_1049137" data-name="Trazado 1049137" d="M115.686,286.481a6.116,6.116,0,0,1-7.806,5.872,6.114,6.114,0,0,0,0-11.745,6.116,6.116,0,0,1,7.806,5.872Z" transform="translate(-96.97 -261.326)" fill="#7da8ff"/>
            <path id="Trazado_1049138" data-name="Trazado 1049138" d="M103.574,315.6a2.2,2.2,0,0,1-2.393,2.393c-.386,0-.754.246-1.087.1a2.556,2.556,0,0,1,1.087-4.995,2.279,2.279,0,0,1,2.393,2.5Z" transform="translate(-88.575 -290.445)" fill="#fff1ab"/>
            <path id="Trazado_1049139" data-name="Trazado 1049139" d="M117.285,314.3a2.719,2.719,0,0,1-2.718,2.719,2.684,2.684,0,0,1-1.087-.227,2.719,2.719,0,0,0,0-4.983,2.684,2.684,0,0,1,1.087-.227A2.719,2.719,0,0,1,117.285,314.3Z" transform="translate(-101.961 -289.144)" fill="#ffe270"/>
            <path id="Trazado_1049140" data-name="Trazado 1049140" d="M180.611,154.755c-.506,1.193-.8.663-1.991.157l-3.376-.346-1.076-.457a6.627,6.627,0,0,0-5.152,0L164.564,156a2.347,2.347,0,0,1-1.834-4.321l4.452-1.89a11.347,11.347,0,0,1,8.82,0l1.126.478,3.326,2.5C181.648,153.271,181.118,153.562,180.611,154.755Z" transform="translate(-144.583 -144.142)" fill="#fff1ab"/>
            <path id="Trazado_1049141" data-name="Trazado 1049141" d="M296.045,165.989a2.347,2.347,0,0,1-3.077,1.243L289.59,165.8a2.335,2.335,0,0,0,2.325-1.555,2.742,2.742,0,0,0-.44-2.744l3.327,1.412A2.346,2.346,0,0,1,296.045,165.989Z" transform="translate(-258.93 -155.376)" fill="#ffe270"/>
          </g>
        </g>
        <g id="Grupo_1181867" data-name="Grupo 1181867" transform="translate(0 23.255)">
          <path id="Trazado_1049142" data-name="Trazado 1049142" d="M54.53,41.972s0,0,0-.007A38.7,38.7,0,0,0,51.6,28.883c-1.69-3.682-3.841-5.628-6.219-5.628-3.447,0-6.439,4.184-8.07,11.237l-5.679-2.41a9.807,9.807,0,0,0-7.623,0l-5.68,2.411c-1.631-7.052-4.623-11.237-8.069-11.237-2.378,0-4.528,1.946-6.219,5.628A38.7,38.7,0,0,0,1.12,41.965s0,0,0,.007A3.247,3.247,0,0,0,0,44.427v21.8a3.253,3.253,0,0,0,2.153,3.062A78.184,78.184,0,0,0,21.447,73.57q3.164.28,6.351.279a73.5,73.5,0,0,0,12.958-1.156.815.815,0,0,0-.287-1.6A71.918,71.918,0,0,1,28.64,72.213V52.648a.815.815,0,0,0-1.63,0V72.212q-2.716-.03-5.419-.266A76.56,76.56,0,0,1,2.7,67.749,1.619,1.619,0,0,1,1.63,66.223v-21.8a1.62,1.62,0,0,1,.989-1.494l5.009-2.126a.815.815,0,0,0-.637-1.5L2.823,41.075a35.959,35.959,0,0,1,2.7-11.511c1.385-3.017,3.067-4.678,4.737-4.678,2.6,0,5.146,4.011,6.544,10.254l-6.289,2.669a.815.815,0,0,0,.637,1.5L24.65,33.582a8.1,8.1,0,0,1,2.359-.6v3.145a12.081,12.081,0,0,0-3.913.928l-4.452,1.89a3.162,3.162,0,1,0,2.471,5.822l4.453-1.89a5.748,5.748,0,0,1,1.442-.4V49.1a.815.815,0,1,0,1.63,0V42.477a5.75,5.75,0,0,1,1.443.4l4.452,1.89a3.162,3.162,0,0,0,4.146-1.675h0a3.163,3.163,0,0,0-1.676-4.146l-4.452-1.89a12.081,12.081,0,0,0-3.913-.928V32.98a8.1,8.1,0,0,1,2.359.6l22.031,9.35a1.621,1.621,0,0,1,.989,1.494v21.8a1.619,1.619,0,0,1-1.069,1.526,80.379,80.379,0,0,1-8.967,2.622.815.815,0,1,0,.364,1.589,82,82,0,0,0,9.15-2.675,3.253,3.253,0,0,0,2.153-3.062v-21.8a3.247,3.247,0,0,0-1.12-2.455ZM36.369,40.444a1.534,1.534,0,0,1,.812,2.009h0a1.533,1.533,0,0,1-2.009.812l-4.452-1.89a7.446,7.446,0,0,0-5.789,0l-4.452,1.89a1.532,1.532,0,1,1-1.2-2.82l4.452-1.89a10.526,10.526,0,0,1,8.183,0Zm9.017-15.559c1.67,0,3.352,1.661,4.737,4.678a35.96,35.96,0,0,1,2.7,11.512L38.841,35.139C40.239,28.9,42.788,24.885,45.385,24.885Z" transform="translate(0 -23.255)"/>
          <path id="Trazado_1049143" data-name="Trazado 1049143" d="M66.684,272.882a6.926,6.926,0,1,0,6.926,6.926A6.934,6.934,0,0,0,66.684,272.882Zm0,12.221a5.3,5.3,0,1,1,5.3-5.3A5.3,5.3,0,0,1,66.684,285.1Z" transform="translate(-53.263 -245.75)"/>
          <path id="Trazado_1049144" data-name="Trazado 1049144" d="M94.5,304.088a3.534,3.534,0,1,0,3.534,3.534A3.538,3.538,0,0,0,94.5,304.088Zm0,5.438a1.9,1.9,0,1,1,1.9-1.9A1.906,1.906,0,0,1,94.5,309.526Z" transform="translate(-81.076 -273.564)"/>
        </g>
      </g>
    </g>
  </g>
</svg>
