<svg xmlns="http://www.w3.org/2000/svg" width="62.295" height="58.188" viewBox="0 0 62.295 58.188">
  <g id="Grupo_1181653" data-name="Grupo 1181653" transform="translate(-824.873 -1991.272)">
    <g id="Grupo_1181601" data-name="Grupo 1181601" transform="translate(-28 -1)">
      <g id="measuring_447186" transform="translate(852.872 1975.393)">
        <path id="Trazado_1048648" data-name="Trazado 1048648" d="M106.077,324.312a16.941,16.941,0,0,0-2.078.125,15.517,15.517,0,0,0-7.793,3.117,15.814,15.814,0,0,1-9.871,3.283,16.935,16.935,0,0,1-2.078-.125,15.517,15.517,0,0,1-7.793-3.117v12.3a4.156,4.156,0,0,0,4.156,4.156h31.172a4.156,4.156,0,0,0,4.156-4.156V327.6A15.814,15.814,0,0,0,106.077,324.312Z" transform="translate(-67.16 -270.026)" fill="#00838f"/>
        <path id="Trazado_1048649" data-name="Trazado 1048649" d="M111.792,328.732v12.3a4.156,4.156,0,0,1-4.156,4.156H80.62a4.156,4.156,0,0,1-4.156-4.156v-12.3a15.517,15.517,0,0,0,7.793,3.117,16.964,16.964,0,0,0,2.078.125,15.812,15.812,0,0,0,9.871-3.252A15.517,15.517,0,0,1,104,325.6,15.429,15.429,0,0,1,111.792,328.732Z" transform="translate(-67.16 -271.162)" fill="#00bcd4"/>
        <path id="Trazado_1048650" data-name="Trazado 1048650" d="M104.292,337.593H73.12a5.2,5.2,0,0,1-5.2-5.2V320.1a1.039,1.039,0,0,1,1.683-.81,15.483,15.483,0,0,0,18.454-.01,17.534,17.534,0,0,1,21.041.01,1.038,1.038,0,0,1,.395.81v12.3a5.2,5.2,0,0,1-5.2,5.2ZM70,322.069V332.4a3.117,3.117,0,0,0,3.117,3.117h31.172a3.117,3.117,0,0,0,3.117-3.117h0V320.6a15.522,15.522,0,0,0-18.059.291,16.843,16.843,0,0,1-10.515,3.512A17.322,17.322,0,0,1,70,322.069Z" transform="translate(-59.66 -262.526)"/>
        <path id="Trazado_1048651" data-name="Trazado 1048651" d="M53.728,25.426H10.773A2.753,2.753,0,0,0,8.7,30.018l7.627,7.876V65.076a15.517,15.517,0,0,0,7.793,3.117,16.961,16.961,0,0,0,2.078.125,15.812,15.812,0,0,0,9.871-3.252,15.517,15.517,0,0,1,7.793-3.117,17.252,17.252,0,0,1,7.793.852,14.673,14.673,0,0,1,4.156,2.307V27.5A2.078,2.078,0,0,0,53.728,25.426Z" transform="translate(-7.018 -7.507)" fill="#9e9e9e"/>
        <path id="Trazado_1048652" data-name="Trazado 1048652" d="M51.8,27.505V62.771a17.253,17.253,0,0,0-7.793-.852,15.517,15.517,0,0,0-7.793,3.117,15.814,15.814,0,0,1-9.871,3.283,16.934,16.934,0,0,1-2.078-.125,15.517,15.517,0,0,1-7.793-3.117V37.9L8.867,30.02a2.753,2.753,0,0,1,2.057-4.593h38.8A2.078,2.078,0,0,1,51.8,27.505Z" transform="translate(-7.169 -7.508)" fill="#f5f5f5"/>
        <path id="Trazado_1048653" data-name="Trazado 1048653" d="M19.175,61.881A16.894,16.894,0,0,1,8.66,58.38a1.038,1.038,0,0,1-.395-.81V30.8L.991,23.229a3.793,3.793,0,0,1,2.764-6.35H46.71A3.117,3.117,0,0,1,49.827,20V57.568a1.039,1.039,0,0,1-1.683.81,14.754,14.754,0,0,0-9.227-3.055,14.8,14.8,0,0,0-9.227,3.044A16.845,16.845,0,0,1,19.175,61.881ZM10.343,57.06A14.941,14.941,0,0,0,19.175,59.8,14.754,14.754,0,0,0,28.4,56.748a16.894,16.894,0,0,1,10.515-3.5A17.285,17.285,0,0,1,47.749,55.6V20a1.039,1.039,0,0,0-1.039-1.039H3.755a1.714,1.714,0,0,0-1.288,2.857l7.575,7.845a1.038,1.038,0,0,1,.3.727S10.343,57.06,10.343,57.06Z" transform="translate(0)"/>
        <path id="Trazado_1048654" data-name="Trazado 1048654" d="M77.276,198.3H68.964a1.039,1.039,0,1,1,0-2.078h8.312a1.039,1.039,0,1,1,0,2.078Z" transform="translate(-59.66 -157.524)"/>
        <path id="Trazado_1048655" data-name="Trazado 1048655" d="M77.276,300.781H68.964a1.039,1.039,0,1,1,0-2.078h8.312a1.039,1.039,0,1,1,0,2.078Z" transform="translate(-59.66 -247.534)"/>
        <path id="Trazado_1048656" data-name="Trazado 1048656" d="M73.119,232.462H68.963a1.039,1.039,0,1,1,0-2.078h4.156a1.039,1.039,0,0,1,0,2.078Z" transform="translate(-59.659 -187.528)"/>
        <path id="Trazado_1048657" data-name="Trazado 1048657" d="M73.119,266.621H68.963a1.039,1.039,0,1,1,0-2.078h4.156a1.039,1.039,0,0,1,0,2.078Z" transform="translate(-59.659 -217.531)"/>
        <path id="Trazado_1048658" data-name="Trazado 1048658" d="M400.98,80.822h7.273a1.039,1.039,0,0,1,1.039,1.039v25.976a2.078,2.078,0,0,0,2.078,2.078h0a2.078,2.078,0,0,0,2.078-2.078V79.4a2.732,2.732,0,0,0-2.733-2.733h-8.7" transform="translate(-352.192 -52.513)" fill="#9e9e9e"/>
        <path id="Trazado_1048659" data-name="Trazado 1048659" d="M403.87,103.454a3.117,3.117,0,0,1-3.117-3.117V74.36h-7.273a1.039,1.039,0,1,1,0-2.078h7.273a2.078,2.078,0,0,1,2.078,2.078v25.976a1.039,1.039,0,0,0,2.078,0V71.9a1.694,1.694,0,0,0-1.683-1.694h-8.707a1.039,1.039,0,1,1,0-2.078h8.707a3.772,3.772,0,0,1,3.761,3.772v28.439A3.117,3.117,0,0,1,403.87,103.454Z" transform="translate(-344.691 -45.012)"/>
      </g>
    </g>
  </g>
</svg>
