<svg xmlns="http://www.w3.org/2000/svg" xmlns:xlink="http://www.w3.org/1999/xlink" width="110" height="110" viewBox="0 0 110 110">
  <defs>
    <clipPath id="clip-path">
      <rect id="Rectángulo_407444" data-name="Rectángulo 407444" width="110" height="110" transform="translate(800.781 1960)" fill="#37a2e4" opacity="0.47"/>
    </clipPath>
    <filter id="Trazado_1049015" x="5" y="-4.866" width="90.453" height="115.637" filterUnits="userSpaceOnUse">
      <feOffset dy="3" input="SourceAlpha"/>
      <feGaussianBlur stdDeviation="3" result="blur"/>
      <feFlood flood-opacity="0.161"/>
      <feComposite operator="in" in2="blur"/>
      <feComposite in="SourceGraphic"/>
    </filter>
  </defs>
  <g id="Enmascarar_grupo_1098957" data-name="Enmascarar grupo 1098957" transform="translate(-800.781 -1960)" clip-path="url(#clip-path)">
    <g id="Grupo_1181801" data-name="Grupo 1181801" transform="translate(-1 -1)">
      <g id="Grupo_1181799" data-name="Grupo 1181799" transform="translate(815.781 1961)">
        <g id="Grupo_1181798" data-name="Grupo 1181798" transform="translate(0 0)">
          <path id="Trazado_1049014" data-name="Trazado 1049014" d="M127.429,109.916c-22.489,0-40.784-16.31-40.784-36.359S124.352,2.836,125.959.662a1.964,1.964,0,0,1,2.941,0c1.607,2.173,39.31,53.434,39.31,72.895s-18.3,36.359-40.784,36.359Z" transform="translate(-86.645 0)" fill="#54eabd"/>
          <g transform="matrix(1, 0, 0, 1, -14, 0)" filter="url(#Trazado_1049015)">
            <path id="Trazado_1049015-2" data-name="Trazado 1049015" d="M122.873,97.636c-19.977,0-36.228-14.488-36.228-32.3S120.139,2.519,121.567.588a1.745,1.745,0,0,1,2.613,0C125.607,2.519,159.1,48.053,159.1,65.34s-16.252,32.3-36.228,32.3Z" transform="translate(-72.64 1.13)" fill="#54eabd" opacity="0.9"/>
          </g>
        </g>
      </g>
      <g id="bomba" transform="translate(830.476 1997.348)">
        <path id="Trazado_1049240" data-name="Trazado 1049240" d="M354.821,263.2V284.27a.529.529,0,0,1-.529.529H349.9a.529.529,0,0,1-.529-.529V265.378H337.109v-5.451h14.439A3.273,3.273,0,0,1,354.821,263.2Z" transform="translate(-301.439 -232.282)" fill="#a49ca7"/>
        <path id="Trazado_1049241" data-name="Trazado 1049241" d="M337.109,259.928h10.222v5.451H337.109Z" transform="translate(-301.439 -232.283)" fill="#766d78"/>
        <path id="Trazado_1049242" data-name="Trazado 1049242" d="M78.271,347.151h31v6.311h-31Z" transform="translate(-69.989 -310.277)" fill="#766d78"/>
        <path id="Trazado_1049243" data-name="Trazado 1049243" d="M78.271,347.153h3.7v6.311h-3.7Z" transform="translate(-69.989 -310.278)" fill="#655e67"/>
        <path id="Trazado_1049244" data-name="Trazado 1049244" d="M21.019,7.655H8.344a.529.529,0,0,0-.529.529v4.544a.529.529,0,0,0,.529.529H18.787V25.79h5.6V11.025a3.37,3.37,0,0,0-3.37-3.37Z" transform="translate(-6.988 -6.703)" fill="#a49ca7"/>
        <path id="Trazado_1049245" data-name="Trazado 1049245" d="M102.75,160.826H95.27a.872.872,0,0,0-.872.872v3.117h9.224V161.7a.872.872,0,0,0-.872-.872Z" transform="translate(-84.41 -143.667)" fill="#766d78"/>
        <path id="Trazado_1049246" data-name="Trazado 1049246" d="M102.564,90.683H95.455A1.057,1.057,0,0,0,94.4,91.74v1.652a1.057,1.057,0,0,0,1.057,1.057h7.109a1.057,1.057,0,0,0,1.057-1.057V91.74A1.058,1.058,0,0,0,102.564,90.683Z" transform="translate(-84.41 -80.946)" fill="#766d78"/>
        <path id="Trazado_1049247" data-name="Trazado 1049247" d="M12.045,13.257h-3.7a.529.529,0,0,1-.529-.529V8.184a.529.529,0,0,1,.529-.529h3.7a.529.529,0,0,0-.529.529v4.545A.529.529,0,0,0,12.045,13.257Z" transform="translate(-6.988 -6.703)" fill="#8e8391"/>
        <path id="Trazado_1049248" data-name="Trazado 1049248" d="M98.973,160.829a.872.872,0,0,0-.871.871v3.117H94.4V161.7a.872.872,0,0,1,.871-.871Z" transform="translate(-84.412 -143.669)" fill="#655e67"/>
        <path id="Trazado_1049249" data-name="Trazado 1049249" d="M99.16,94.451h-3.7A1.057,1.057,0,0,1,94.4,93.393V91.74a1.057,1.057,0,0,1,1.057-1.057h3.7A1.057,1.057,0,0,0,98.1,91.74v1.653A1.057,1.057,0,0,0,99.16,94.451Z" transform="translate(-84.412 -80.946)" fill="#655e67"/>
        <circle id="Elipse_12066" data-name="Elipse 12066" cx="2.309" cy="2.309" r="2.309" transform="translate(30.614 5.316)" fill="#544f56"/>
        <path id="Trazado_1049250" data-name="Trazado 1049250" d="M242.967,155.029h-6.71a1.586,1.586,0,0,0-1.552,1.261v3.955h9.848v-3.629A1.586,1.586,0,0,0,242.967,155.029Z" transform="translate(-209.871 -138.483)" fill="#766d78"/>
        <path id="Trazado_1049251" data-name="Trazado 1049251" d="M239.956,155.033a1.586,1.586,0,0,0-1.552,1.261v3.955h-3.7v-3.955a1.586,1.586,0,0,1,1.552-1.261Z" transform="translate(-209.869 -138.487)" fill="#655e67"/>
        <path id="Trazado_1049252" data-name="Trazado 1049252" d="M292.841,53.179a2.309,2.309,0,1,1,0-3.941,2.308,2.308,0,0,0,0,3.941Z" transform="translate(-258.715 -43.584)" fill="#444145"/>
        <path id="Trazado_1049253" data-name="Trazado 1049253" d="M18.246,226.494l-6.034-1.372a.529.529,0,0,1-.411-.516V214.1a.529.529,0,0,1,.411-.516l6.034-1.372Z" transform="translate(-10.551 -189.619)" fill="#a49ca7"/>
        <path id="Trazado_1049254" data-name="Trazado 1049254" d="M94.4,195.36h27V213.2h-27Z" transform="translate(-84.41 -174.547)" fill="#fed22b"/>
        <path id="Trazado_1049255" data-name="Trazado 1049255" d="M55.627,213.2H52.448a1.409,1.409,0,0,1-1.409-1.409V196.769a1.409,1.409,0,0,1,1.409-1.409h3.179V213.2Z" transform="translate(-45.639 -174.547)" fill="#f0a70a"/>
        <path id="Trazado_1049256" data-name="Trazado 1049256" d="M349.536,213.2h3.179a1.409,1.409,0,0,0,1.409-1.409V196.769a1.409,1.409,0,0,0-1.409-1.409h-3.179Z" transform="translate(-312.552 -174.547)" fill="#f0a70a"/>
        <path id="Trazado_1049257" data-name="Trazado 1049257" d="M139.205,244.178h-7.378a.529.529,0,0,1-.529-.529v-8.473a.529.529,0,0,1,.529-.529h7.378a.529.529,0,0,1,.529.529v8.473A.529.529,0,0,1,139.205,244.178Z" transform="translate(-117.405 -209.678)" fill="#766d78"/>
        <path id="Trazado_1049258" data-name="Trazado 1049258" d="M48.443,417.118H8.024a.529.529,0,0,1-.529-.529v-9.264a.529.529,0,0,1,.529-.529H48.443a.529.529,0,0,1,.529.529v9.264A.529.529,0,0,1,48.443,417.118Z" transform="translate(-6.702 -363.611)" fill="#fed22b"/>
        <path id="Trazado_1049259" data-name="Trazado 1049259" d="M135.528,244.183h-3.7a.529.529,0,0,1-.529-.529v-8.472a.528.528,0,0,1,.529-.529h3.7a.528.528,0,0,0-.529.529v8.472A.529.529,0,0,0,135.528,244.183Z" transform="translate(-117.405 -209.682)" fill="#655e67"/>
        <path id="Trazado_1049260" data-name="Trazado 1049260" d="M11.725,417.118h-3.7a.529.529,0,0,1-.529-.529v-9.264a.529.529,0,0,1,.529-.529h3.7a.529.529,0,0,0-.529.529v9.264A.529.529,0,0,0,11.725,417.118Z" transform="translate(-6.702 -363.611)" fill="#f0a70a"/>
        <path id="Trazado_1049261" data-name="Trazado 1049261" d="M11.725,445.544h-3.7a.529.529,0,0,1-.529-.529v-6.429l3.287,2c.136.082.274.16.415.231v4.195A.529.529,0,0,0,11.725,445.544Z" transform="translate(-6.702 -392.037)" fill="#72d1fb"/>
        <path id="Trazado_1049262" data-name="Trazado 1049262" d="M7.495,438.588l3.287,2a6.315,6.315,0,0,0,6.574,0,6.315,6.315,0,0,1,6.574,0,6.316,6.316,0,0,0,6.574,0,6.315,6.315,0,0,1,6.574,0,6.316,6.316,0,0,0,6.574,0,6.315,6.315,0,0,1,6.574,0,6.316,6.316,0,0,0,6.574,0l3.287-2v6.429a.529.529,0,0,1-.529.529H8.024a.529.529,0,0,1-.529-.529Z" transform="translate(-6.702 -392.039)" fill="#93dcfc"/>
        <path id="Trazado_1049263" data-name="Trazado 1049263" d="M56.8,440.59a6.317,6.317,0,0,1-3.287.922c-3.105,0-3.473-1.845-6.574-1.845s-3.472,1.845-6.574,1.845-3.468-1.845-6.573-1.845-3.468,1.845-6.573,1.845-3.473-1.845-6.574-1.845a6.308,6.308,0,0,0-3.287.923,6.318,6.318,0,0,1-6.574,0l-3.287-2v3.067l3.287,2a6.318,6.318,0,0,0,6.574,0,6.312,6.312,0,0,1,6.573,0,6.32,6.32,0,0,0,6.574,0,6.312,6.312,0,0,1,6.573,0,6.32,6.32,0,0,0,6.574,0,6.312,6.312,0,0,1,6.573,0,6.32,6.32,0,0,0,6.574,0l3.287-2v-3.067Z" transform="translate(-6.702 -392.037)" fill="#72d1fb"/>
        <g id="Grupo_1181892" data-name="Grupo 1181892" transform="translate(0 0.159)">
          <path id="Trazado_1049264" data-name="Trazado 1049264" d="M50.109,26.852H42.365v-4.63a2.2,2.2,0,0,0-2.2-2.2H35.476V18.132A2.382,2.382,0,0,0,33.1,15.753H31.235l1.558-5.03a3.1,3.1,0,1,0-1.515-.47l-1.7,5.5H26.386a2.39,2.39,0,0,0-2.328,1.89.8.8,0,0,0-.017.163V20.02H20V18.031a1.666,1.666,0,0,0-1.664-1.664h-.146V14.3A1.852,1.852,0,0,0,20,12.447V10.795a1.852,1.852,0,0,0-1.811-1.849V4.322A4.168,4.168,0,0,0,14.031.159H8.563a.793.793,0,0,0,0,1.586h5.468a2.58,2.58,0,0,1,2.577,2.577V8.944H12.592V6.555a.793.793,0,0,0-.793-.793H1.62V1.745H5.391a.793.793,0,1,0,0-1.586H.827A.793.793,0,0,0,.034.952v5.6a.793.793,0,0,0,.793.793H11.006v1.6A1.852,1.852,0,0,0,9.2,10.795v1.652A1.852,1.852,0,0,0,11.006,14.3v2.071H10.86A1.666,1.666,0,0,0,9.2,18.031V20.02H6.809a2.2,2.2,0,0,0-2.2,2.2v.263l-3.534.8a.793.793,0,0,0-.617.773V35.409a.793.793,0,0,0,.617.773l3.534.8v.263a2.2,2.2,0,0,0,2.2,2.2h.68v2.941h-1.6a.793.793,0,1,0,0,1.586H41.213a.265.265,0,0,1,.264.264v2.7a7.084,7.084,0,0,0-4.942.932,5.5,5.5,0,0,1-5.748,0,7.082,7.082,0,0,0-7.4,0,5.5,5.5,0,0,1-5.748,0,7.082,7.082,0,0,0-7.4,0,5.5,5.5,0,0,1-5.748,0L1.586,46.1V43.978h1.13a.793.793,0,1,0,0-1.586H.793A.793.793,0,0,0,0,43.185V53.507a.793.793,0,0,0,.793.793H53.382a.793.793,0,0,0,.793-.793V30.918a4.07,4.07,0,0,0-4.066-4.066ZM32.923,6.109a1.516,1.516,0,1,1-1.516,1.516,1.517,1.517,0,0,1,1.516-1.516ZM4.607,35.36l-2.566-.584V24.695l2.566-.583ZM25.627,17.9a.8.8,0,0,1,.759-.564H33.1a.794.794,0,0,1,.793.793V20.02H25.627ZM10.781,12.447V10.795a.265.265,0,0,1,.264-.264h7.109a.265.265,0,0,1,.264.264v1.652a.265.265,0,0,1-.264.264H11.046A.265.265,0,0,1,10.781,12.447ZM16.608,14.3v2.069H12.592V14.3Zm-5.827,3.733a.078.078,0,0,1,.078-.078h7.48a.078.078,0,0,1,.078.078V20.02H10.782V18.031Zm0,3.575h25.41V37.865H10.781ZM6.809,37.865a.616.616,0,0,1-.615-.615V22.222a.616.616,0,0,1,.615-.615H9.2V37.865Zm31.677,4.528H9.075V39.451H38.485v2.941Zm.793-4.528h-1.5V21.606h2.386a.616.616,0,0,1,.615.615V37.249a.616.616,0,0,1-.615.615h-.885Zm13.31,14.85h-51V47.961L3.667,49.23a7.082,7.082,0,0,0,7.4,0,5.5,5.5,0,0,1,5.748,0,7.082,7.082,0,0,0,7.4,0,5.5,5.5,0,0,1,5.748,0,7.082,7.082,0,0,0,7.4,0,5.5,5.5,0,0,1,5.748,0,7.082,7.082,0,0,0,7.4,0l2.081-1.268c0,1.117,0,2.368,0,4.753Zm0-6.61c-3.152,1.921-3.212,1.993-3.865,2.236V43.657a.793.793,0,1,0-1.586,0v5.018c-2.06.124-3.067-.813-4.074-1.252v-3.18a1.853,1.853,0,0,0-1.851-1.851H40.072V39.451a2.206,2.206,0,0,0,2.294-2.2v-3.36h4.772v6.6a.793.793,0,1,0,1.586,0V33.1a.793.793,0,0,0-.793-.793H42.365V28.438h7.744a2.483,2.483,0,0,1,2.48,2.48V46.1Z" transform="translate(0 -0.159)"/>
          <path id="Trazado_1049265" data-name="Trazado 1049265" d="M133.032,227.153H124.6a.793.793,0,0,0-.793.793v9.53a.793.793,0,0,0,.793.793h8.436a.793.793,0,0,0,.793-.793v-9.53A.793.793,0,0,0,133.032,227.153Zm-.793,9.53h-6.85v-7.944h6.85Z" transform="translate(-110.703 -203.135)"/>
          <path id="Trazado_1049266" data-name="Trazado 1049266" d="M248.253,240.97h-6.825a.793.793,0,0,0,0,1.586h6.825a.793.793,0,0,0,0-1.586Z" transform="translate(-215.173 -215.49)"/>
          <path id="Trazado_1049267" data-name="Trazado 1049267" d="M248.253,272.188h-6.825a.793.793,0,1,0,0,1.586h6.825a.793.793,0,0,0,0-1.586Z" transform="translate(-215.173 -243.405)"/>
          <path id="Trazado_1049268" data-name="Trazado 1049268" d="M248.253,303.406h-6.825a.793.793,0,0,0,0,1.586h6.825a.793.793,0,0,0,0-1.586Z" transform="translate(-215.173 -271.319)"/>
          <path id="Trazado_1049269" data-name="Trazado 1049269" d="M155.2,257.985h.8l-.307.786a.793.793,0,1,0,1.477.577l.73-1.868a.793.793,0,0,0-.739-1.082h-.8l.307-.786a.793.793,0,0,0-1.477-.577l-.73,1.868a.793.793,0,0,0,.739,1.082Z" transform="translate(-138.066 -227.616)"/>
        </g>
      </g>
    </g>
  </g>
</svg>
