<svg xmlns="http://www.w3.org/2000/svg" width="70.833" height="70.375" viewBox="0 0 70.833 70.375">
  <g id="Grupo_1181684" data-name="Grupo 1181684" transform="translate(-831.662 -1969.039)">
    <g id="Grupo_1181621" data-name="Grupo 1181621" transform="translate(831.662 1969.039)">
      <g id="beaker_18489512" transform="translate(0 0)">
        <path id="Trazado_1048707" data-name="Trazado 1048707" d="M104.328,41.924l.076.137a4.107,4.107,0,0,1-1.368,5.486l-.805.471-.881-1.535a1.058,1.058,0,0,0-1.839,1.049l.9,1.535L97.17,50.936,96.289,49.4a1.069,1.069,0,0,0-1.854,1.064L95.316,52l-3.222,1.854-.881-1.535a1.069,1.069,0,1,0-1.854,1.064l.881,1.535-2.173,1.246-4.073-7.052,14.817-8.556a4.144,4.144,0,0,1,5.517,1.368ZM40.59,47.532a4.1,4.1,0,0,1-1.368-5.486l.076-.137a4.118,4.118,0,0,1,5.486-1.368L59.6,49.082l-4.073,7.052-2.173-1.246.881-1.5A1.062,1.062,0,1,0,52.4,52.319l-.881,1.535L48.28,52l.881-1.535A1.062,1.062,0,1,0,47.323,49.4l-.881,1.535-3.222-1.869.881-1.535a1.058,1.058,0,0,0-1.839-1.049l-.881,1.535ZM92.641,73.459a.912.912,0,1,1,1.824,0V98.641a.912.912,0,0,1-1.824,0ZM71.988,78.823a.752.752,0,0,1,0,1.079.765.765,0,1,1,0-1.079ZM62.52,75.389a1.139,1.139,0,1,1,1.945.805A1.14,1.14,0,0,1,62.52,75.389ZM57.155,85.814c3.571-.684,7.128.228,10.577,1.109a41.621,41.621,0,0,0,7.72,1.429,17.385,17.385,0,0,0,8.313-1.5l.213-.091v18.191a1.02,1.02,0,0,1-1.094.912H58.113a1.015,1.015,0,0,1-1.079-.912v-19.1Zm19.665,6.261h3.541a1.064,1.064,0,0,0,0-2.128H76.821a1.057,1.057,0,0,0-1.064,1.064A1.077,1.077,0,0,0,76.821,92.076Zm0,3.1a1.064,1.064,0,0,0,0,2.128h3.541a1.064,1.064,0,0,0,0-2.128Z" transform="translate(-36.245 -37.75)" fill="#5ec7d2" fill-rule="evenodd"/>
        <path id="Trazado_1048708" data-name="Trazado 1048708" d="M57.654,63.713A3.045,3.045,0,1,1,54.6,66.768,3.044,3.044,0,0,1,57.654,63.713Zm.441,2.614a.613.613,0,0,0-.866.866C57.791,67.771,58.657,66.89,58.095,66.327Zm.653-24.1a3.062,3.062,0,1,1-3.055,3.055A3.066,3.066,0,0,1,58.748,42.224Zm.456,2.614a.634.634,0,0,0-.9.9A.634.634,0,0,0,59.2,44.838ZM49.873,59.352a3.419,3.419,0,1,1-3.419,3.419A3.423,3.423,0,0,1,49.873,59.352Zm.7,2.72a.988.988,0,1,0,0,1.4A.973.973,0,0,0,50.572,62.072Zm21.915,4.787h4.088V62.984H72.486Zm4.088,2.432H72.486V92.315a3.3,3.3,0,0,1-3.374,3.191H44.341a3.288,3.288,0,0,1-3.359-3.191V59.808l-1.717-2.4a1.724,1.724,0,0,1-.334-1,1.807,1.807,0,0,1,1.808-1.778H69.113a3.3,3.3,0,0,1,3.374,3.191v2.72h4.1a3.191,3.191,0,0,1,6.368.289V86.008a3.191,3.191,0,0,1-6.383,0ZM79.751,60.1a.762.762,0,0,0-.76.76V86.038a.748.748,0,0,0,1.277.532.774.774,0,0,0,.228-.532v-25.2A.727.727,0,0,0,79.751,60.1Zm-16.626-13.4a1.209,1.209,0,1,1,2.082,1.231,7.126,7.126,0,0,0-.973,3.465,1.209,1.209,0,0,1-2.416-.076A9.336,9.336,0,0,1,63.125,46.692ZM70.45,36.556l3.921,6.793,1.9-1.109-.805-1.4a1.212,1.212,0,1,1,2.1-1.216l.821,1.413,2.963-1.717-.805-1.4a1.212,1.212,0,0,1,2.1-1.216l.821,1.413L86.422,36.4l-.805-1.413a1.212,1.212,0,0,1,2.1-1.216l.805,1.4.547-.319a3.918,3.918,0,1,0-3.906-6.793Zm5.061,8.921a3.537,3.537,0,0,1-6.474,2.766l-5.547-9.59a3.551,3.551,0,0,1,3.982-5.2,3.5,3.5,0,0,1,1.7,1.033L83.93,25.978a6.346,6.346,0,0,1,6.353,10.988l-6.672,3.845Zm-2.462.41-5.3-9.164c-.243-.4-.365-.76-.9-.9a1.123,1.123,0,0,0-1.261,1.641l5.577,9.65a1.126,1.126,0,0,0,2.052-.274,1.191,1.191,0,0,0-.076-.79C73.11,45.993,73.079,45.948,73.049,45.887ZM50.861,47.923a1.2,1.2,0,0,1,.426-1.657,1.21,1.21,0,0,1,1.657.426,9.721,9.721,0,0,1,1.307,4.635,1.22,1.22,0,0,1-1.185,1.246,1.207,1.207,0,0,1-1.246-1.17,7.122,7.122,0,0,0-.957-3.48Zm-2.325-11.6-5.577,9.666a1.115,1.115,0,0,0,1.261,1.626,1.09,1.09,0,0,0,.714-.578l5.532-9.59a1.117,1.117,0,0,0-1.93-1.125Zm-6.854,7.021L45.6,36.556l-14.681-8.48a3.918,3.918,0,0,0-3.906,6.793l.547.319.805-1.4a1.212,1.212,0,1,1,2.1,1.216l-.821,1.413,2.963,1.717.805-1.413a1.212,1.212,0,1,1,2.1,1.216l-.821,1.4,2.963,1.717.805-1.413a1.212,1.212,0,1,1,2.1,1.216l-.821,1.4Zm5.2-8.86a3.546,3.546,0,0,1,6.033,1.474,3.585,3.585,0,0,1-.35,2.69l-5.577,9.666a3.547,3.547,0,0,1-6.489-.851,3.5,3.5,0,0,1,.046-1.976l-3.024-1.748-5.061-2.918-6.672-3.86a6.342,6.342,0,1,1,6.337-10.988Zm19.7,26.991a1.216,1.216,0,1,1,0,2.432H63.034a1.216,1.216,0,1,1,0-2.432Zm0,15.7a1.216,1.216,0,1,1,0,2.432H63.034a1.216,1.216,0,1,1,0-2.432Zm0,5.228a1.216,1.216,0,1,1,0,2.432H63.034a1.216,1.216,0,1,1,0-2.432Zm0-15.7a1.216,1.216,0,0,1,0,2.432H63.034a1.216,1.216,0,0,1,0-2.432Zm3.48,7.659c-5.912,2.66-11.079,1.368-16.14.076-3.526-.9-6.991-1.778-10.517-1.094V92.315a.883.883,0,0,0,.942.76H69.113a.883.883,0,0,0,.942-.76ZM43.4,70.886c3.86-.623,7.447.289,11.109,1.216,4.924,1.246,9.954,2.523,15.547-.426V57.847a.873.873,0,0,0-.942-.76H42l1.17,1.657a1.2,1.2,0,0,1,.228.7Z" transform="translate(-22.61 -25.132)"/>
      </g>
    </g>
  </g>
</svg>
