<svg xmlns="http://www.w3.org/2000/svg" xmlns:xlink="http://www.w3.org/1999/xlink" width="109" height="109" viewBox="0 0 109 109">
  <defs>
    <clipPath id="clip-path">
      <rect id="Rectángulo_407326" data-name="Rectángulo 407326" width="109" height="109" transform="translate(800.512 1960)" fill="#37a2e4" opacity="0.47"/>
    </clipPath>
    <filter id="Trazado_1048093" x="5.17" y="-4.874" width="89.934" height="114.936" filterUnits="userSpaceOnUse">
      <feOffset dy="3" input="SourceAlpha"/>
      <feGaussianBlur stdDeviation="3" result="blur"/>
      <feFlood flood-opacity="0.161"/>
      <feComposite operator="in" in2="blur"/>
      <feComposite in="SourceGraphic"/>
    </filter>
  </defs>
  <g id="Enmascarar_grupo_1098929" data-name="Enmascarar grupo 1098929" transform="translate(-800.512 -1960)" clip-path="url(#clip-path)">
    <g id="Grupo_1181510" data-name="Grupo 1181510" transform="translate(814.68 1960)">
      <g id="Grupo_1181508" data-name="Grupo 1181508" transform="translate(0 0)">
        <g id="Grupo_1181507" data-name="Grupo 1181507" transform="translate(0 0)">
          <path id="Trazado_1048092" data-name="Trazado 1048092" d="M127.137,109.128c-22.328,0-40.492-16.193-40.492-36.1S124.082,2.816,125.677.658a1.95,1.95,0,0,1,2.92,0c1.6,2.158,39.029,53.051,39.029,72.372s-18.164,36.1-40.492,36.1Z" transform="translate(-86.645 0)" fill="#2da8f9"/>
          <g transform="matrix(1, 0, 0, 1, -14.17, 0)" filter="url(#Trazado_1048093)">
            <path id="Trazado_1048093-2" data-name="Trazado 1048093" d="M122.613,96.936c-19.834,0-35.968-14.384-35.968-32.065S119.9,2.5,121.316.584a1.732,1.732,0,0,1,2.594,0c1.417,1.917,34.668,47.124,34.668,64.287S142.444,96.936,122.61,96.936Z" transform="translate(-72.48 1.13)" fill="#2cfefa" opacity="0.9"/>
          </g>
        </g>
      </g>
      <g id="biochemist_2317919" transform="translate(10.02 29.056)">
        <path id="Trazado_1048094" data-name="Trazado 1048094" d="M47.082,44.006V42.529A5.988,5.988,0,0,0,43.076,41h-2s-1,6.012-3.006,9.018L32.055,46.01l-6.012,4.008c-2-3.006-3.006-9.018-3.006-9.018H20.031a5.01,5.01,0,0,0-5.01,5.01v8.016L13.018,41H4L7.006,61.039H43.074a2,2,0,0,1-1.85-2.774Z" transform="translate(-1.996 -2.278)" fill="#fff"/>
        <path id="Trazado_1048095" data-name="Trazado 1048095" d="M9,26h6.012V39.025H9Z" transform="translate(-1.986 -2.307)" fill="#71caf0"/>
        <g id="Grupo_1181509" data-name="Grupo 1181509" transform="translate(15.029 7.661)">
          <path id="Trazado_1048096" data-name="Trazado 1048096" d="M44.5,25.01a2.5,2.5,0,0,0,0-5.01H43v5.01Z" transform="translate(-16.949 -9.98)" fill="#fce0b9"/>
          <path id="Trazado_1048097" data-name="Trazado 1048097" d="M19.5,20a2.5,2.5,0,0,0,0,5.01h1.5V20Z" transform="translate(-17 -9.98)" fill="#fce0b9"/>
          <path id="Trazado_1048098" data-name="Trazado 1048098" d="M41.134,12.79a4.436,4.436,0,0,0-6.7-1.963,4.436,4.436,0,0,1-4.931.152l-.438-.274a4.437,4.437,0,0,0-6.632,2.6L21,20.019v7.014h.05a11.017,11.017,0,0,0,21.943,0h.05V20.019Z" transform="translate(-16.992 -10)" fill="#fce0b9"/>
        </g>
        <path id="Trazado_1048099" data-name="Trazado 1048099" d="M9,39v4.008a3.006,3.006,0,1,0,6.012,0V39Z" transform="translate(-1.986 -2.282)" fill="#78af4f"/>
        <path id="Trazado_1048100" data-name="Trazado 1048100" d="M60.883,58.288l-2.3-5.608-3.551-8.651V32.006h.5a1.5,1.5,0,1,0,0-3.006H46.509a1.5,1.5,0,1,0,0,3.006h.5V44.029L41.152,58.288A2,2,0,0,0,43,61.062H59.033A2,2,0,0,0,60.883,58.288Z" transform="translate(-1.924 -2.301)" fill="#71caf0"/>
        <path id="Trazado_1048101" data-name="Trazado 1048101" d="M9.012,41.507v-6.5h1a2,2,0,1,0,0-4.008H4a1,1,0,0,0-1,1l1.312,9.505Z" transform="translate(-1.998 -2.297)" fill="#fce0b9"/>
        <path id="Trazado_1048102" data-name="Trazado 1048102" d="M29.07,10.719l.438.274a4.436,4.436,0,0,0,4.931-.152,4.436,4.436,0,0,1,6.7,1.963l1.909,7.229-.418-10A7.911,7.911,0,0,0,31.7,4L27.014,6.005A7.014,7.014,0,0,0,20,13.019l1,7.014,1.436-6.718A4.437,4.437,0,0,1,29.07,10.719Z" transform="translate(-1.965 -2.351)" fill="#665642"/>
        <path id="Trazado_1048103" data-name="Trazado 1048103" d="M32,23.006a4.008,4.008,0,0,0,4.008,4.008h5.01a2,2,0,0,0,2-2V20H32Zm5.01-1a1,1,0,1,1-1,1A1,1,0,0,1,37.01,22Z" transform="translate(-1.942 -2.319)" fill="#71caf0"/>
        <circle id="Elipse_11938" data-name="Elipse 11938" cx="1.002" cy="1.002" r="1.002" transform="translate(34.066 19.685)" fill="#fff"/>
        <path id="Trazado_1048104" data-name="Trazado 1048104" d="M23,27.014h5.01a4.008,4.008,0,0,0,4.008-4.008V20H21v5.01A2,2,0,0,0,23,27.014ZM27.012,22a1,1,0,1,1-1,1A1,1,0,0,1,27.012,22Z" transform="translate(-1.963 -2.319)" fill="#71caf0"/>
        <circle id="Elipse_11939" data-name="Elipse 11939" cx="1.002" cy="1.002" r="1.002" transform="translate(24.047 19.685)" fill="#fff"/>
        <path id="Trazado_1048105" data-name="Trazado 1048105" d="M51,38v4.008a2,2,0,0,0,2,2h4.01a1,1,0,0,0,1-1V37a1,1,0,0,0-1-1H53A2,2,0,0,0,51,38Z" transform="translate(-1.905 -2.288)" fill="#fce0b9"/>
        <path id="Trazado_1048106" data-name="Trazado 1048106" d="M12,33a2,2,0,0,0,2,2H17.01a1,1,0,0,0,1-1V32a1,1,0,0,0-1-1H14A2,2,0,0,0,12,33Z" transform="translate(-1.981 -2.297)" fill="#fce0b9"/>
        <path id="Trazado_1048107" data-name="Trazado 1048107" d="M50.012,37a2,2,0,0,0-2-2H45a1,1,0,0,0-1,1v2a1,1,0,0,0,1,1h3.006A2,2,0,0,0,50.012,37Z" transform="translate(-1.918 -2.29)" fill="#fce0b9"/>
        <circle id="Elipse_11940" data-name="Elipse 11940" cx="2.004" cy="2.004" r="2.004" transform="translate(51.099 15.677)" fill="#fca947"/>
        <circle id="Elipse_11941" data-name="Elipse 11941" cx="2.004" cy="2.004" r="2.004" transform="translate(48.093 4.656)" fill="#fca947"/>
        <path id="Trazado_1048108" data-name="Trazado 1048108" d="M51.454,52.625a6.442,6.442,0,0,0-5.267-.855l-2.676.729-2.36,5.744A2,2,0,0,0,43,61.018H59.033a2,2,0,0,0,1.85-2.774l-2.3-5.608A6.44,6.44,0,0,1,51.454,52.625Z" transform="translate(-1.924 -2.257)" fill="#fca947"/>
        <path id="Trazado_1048109" data-name="Trazado 1048109" d="M43,61.017H54.988l-.557-.219a23.884,23.884,0,0,1-10.694-8.361l-.225.061-2.36,5.744A2,2,0,0,0,43,61.017Z" transform="translate(-1.924 -2.256)" fill="#e68f29"/>
        <path id="Trazado_1048110" data-name="Trazado 1048110" d="M32.01,37A10.96,10.96,0,0,1,27,35.8v4.21l5.01,6.012,5.01-6.012V35.8A10.96,10.96,0,0,1,32.01,37Z" transform="translate(-1.951 -2.288)" fill="#fce0b9"/>
        <path id="Trazado_1048111" data-name="Trazado 1048111" d="M27.014,7.654,31.7,5.647a7.911,7.911,0,0,1,10.931,6.038l.337,8.036.081.312-.418-10A7.911,7.911,0,0,0,31.7,4L27.014,6.005A7.014,7.014,0,0,0,20,13.019l.086.6A7.01,7.01,0,0,1,27.014,7.654Z" transform="translate(-1.965 -2.351)" fill="#735f47"/>
        <path id="Trazado_1048112" data-name="Trazado 1048112" d="M28.842,36.521l6.232,5.816,1.942-2.33V35.8a10.878,10.878,0,0,1-8.174.723Z" transform="translate(-1.948 -2.288)" fill="#f5cba1"/>
        <path id="Trazado_1048113" data-name="Trazado 1048113" d="M41.038,41s-1,6.012-3.006,9.018l-.073-.049c-.01.015-.019.034-.029.049L31.97,46.044l0,0s-5.978,3.939-5.988,3.924l-.072.048-.115-.356c-1.761-2.939-2.689-8.086-2.779-8.608C23.007,41.021,23,41,23,41H21.4c.58,2.953,1.543,8.152,3.183,11.091a1.006,1.006,0,0,0,1.439.351l5.891-3.928,5.891,3.928a1.007,1.007,0,0,0,1.439-.352c1.64-2.939,2.926-8.138,3.577-11.091H41.038Z" transform="translate(-1.962 -2.278)" fill="#ccc"/>
        <path id="Trazado_1048114" data-name="Trazado 1048114" d="M41.018,41.006,37.01,38v2L32,46.016l6.012,4.008C40.016,47.018,41.018,41.006,41.018,41.006Z" transform="translate(-1.942 -2.284)" fill="#fff"/>
        <path id="Trazado_1048115" data-name="Trazado 1048115" d="M27.008,38,23,41.006s1,6.012,3.006,9.018l6.012-4.008L27.008,40Z" transform="translate(-1.959 -2.284)" fill="#fff"/>
        <path id="Trazado_1048116" data-name="Trazado 1048116" d="M12.006,44.006A3.006,3.006,0,0,1,9,41v2a3.006,3.006,0,1,0,6.012,0V41A3.006,3.006,0,0,1,12.006,44.006Z" transform="translate(-1.986 -2.278)" fill="#619c35"/>
        <path id="Trazado_1048117" data-name="Trazado 1048117" d="M27,24.757A1.753,1.753,0,1,1,28.757,23,1.755,1.755,0,0,1,27,24.757Zm0-2a.251.251,0,0,0-.25.25c0,.276.5.276.5,0A.251.251,0,0,0,27,22.753Z" transform="translate(-1.955 -2.316)"/>
        <path id="Trazado_1048118" data-name="Trazado 1048118" d="M37,24.757A1.753,1.753,0,1,1,38.757,23,1.755,1.755,0,0,1,37,24.757Zm0-2a.251.251,0,0,0-.25.25c0,.276.5.276.5,0A.251.251,0,0,0,37,22.753Z" transform="translate(-1.935 -2.316)"/>
        <path id="Trazado_1048119" data-name="Trazado 1048119" d="M32.007,33.757A3.763,3.763,0,0,1,28.25,30h1.5a2.254,2.254,0,1,0,4.509,0h1.5A3.763,3.763,0,0,1,32.007,33.757Z" transform="translate(-1.949 -2.299)"/>
        <path id="Trazado_1048120" data-name="Trazado 1048120" d="M6.018,61.251a1,1,0,0,0,.992.865h52.1a3.006,3.006,0,0,0,2.775-4.157L56.6,45.083h.508a2.006,2.006,0,0,0,2-2V37.067a2.006,2.006,0,0,0-2-2h-1V33.01a2.505,2.505,0,0,0-.5-4.96H46.585a2.505,2.505,0,0,0-.5,4.96v1.052h-1a2.006,2.006,0,0,0-2,2v2a2.006,2.006,0,0,0,2,2h1v.679a7,7,0,0,0-3-.679H41.41l-3.339-2.5V36.442a12.02,12.02,0,0,0,6.012-10.4h.5a3.506,3.506,0,1,0,0-7.013h-.542L43.663,10a.884.884,0,0,0-.012-.114,8.914,8.914,0,0,0-12.315-6.8l-4.5,1.929a8.024,8.024,0,0,0-7.8,8.013.97.97,0,0,0,.01.142l.839,5.869h-.348a3.507,3.507,0,0,0,0,7.014h.5a12.021,12.021,0,0,0,6.012,10.4v1.125l-3.339,2.5h-1.67a6.987,6.987,0,0,0-5.01,2.115V36.065h1a2.006,2.006,0,0,0,2-2v-2a2.006,2.006,0,0,0-2-2h-1V26.046a1,1,0,0,0-1-1H9.014a1,1,0,0,0-1,1v4.008H4a2.006,2.006,0,0,0-2,2,.9.9,0,0,0,.01.137Zm53.924-1.585a.984.984,0,0,1-.833.446H43.078a1,1,0,0,1-.924-1.392l2.172-5.287,2.2-.6a5.439,5.439,0,0,1,4.447.722,7.394,7.394,0,0,0,7.178.589l1.881,4.581a.98.98,0,0,1-.091.941ZM57.109,43.079H53.1a1,1,0,0,1-1-1V38.069a1,1,0,0,1,1-1h4.01ZM47.086,31.056h-.5a.5.5,0,1,1,0-1h9.022a.5.5,0,1,1,0,1H51.1v2H54.1v2H53.1a2.991,2.991,0,0,0-2.2.969,3,3,0,0,0-2.81-1.971h0v-2a1,1,0,0,0-1-1Zm-2,5.01H48.09a1,1,0,0,1,0,2H45.084Zm3.006,4.008a2.982,2.982,0,0,0,2-.781v2.784A3.01,3.01,0,0,0,53.1,45.083h1.337l2.96,7.21a5.43,5.43,0,0,1-5.307-.406A7.455,7.455,0,0,0,46,50.9l-.713.194,2.724-6.632a.992.992,0,0,0,.075-.381V40.073ZM46.084,43.1v.78L40.3,57.954a3,3,0,0,0-.06,2.158H33.06V47.957l4.454,2.97a1,1,0,0,0,1.39-.278c1.662-2.494,2.645-6.77,3-8.572H43.08A4.984,4.984,0,0,1,46.084,43.1Zm-6.107-1.6a30.513,30.513,0,0,1-2.234,7.166l-4.2-2.8,4.3-5.155a1,1,0,0,0,.232-.642ZM22.039,21.036h9.018v2a3.01,3.01,0,0,1-3.006,3.006h-5.01a1,1,0,0,1-1-1Zm.236-2,1.164-5.452a3.435,3.435,0,0,1,5.134-2.01l.439.274a5.423,5.423,0,0,0,6.044-.187,3.434,3.434,0,0,1,5.163,1.467l1.56,5.908h-19.5Zm10.785,2h9.018v4.008a1,1,0,0,1-1,1h-5.01A3.01,3.01,0,0,1,33.06,23.04Zm13.025,1.5a1.5,1.5,0,0,1-1.5,1.5h-.5V21.036h.5A1.5,1.5,0,0,1,46.086,22.539ZM27.049,7.009a.987.987,0,0,0,.395-.081l4.682-2.007a6.911,6.911,0,0,1,9.539,5.219l.064,1.533a5.441,5.441,0,0,0-7.837-1.646,3.426,3.426,0,0,1-3.817.118l-.439-.274a5.436,5.436,0,0,0-8.142,3.235l-.261,1.215-.2-1.37A6.019,6.019,0,0,1,27.049,7.009ZM19.534,24.042a1.5,1.5,0,0,1,0-3.006h.5v3.006Zm2.687,3.88a2.963,2.963,0,0,0,.82.128h5.01a4.992,4.992,0,0,0,4.008-2.035,4.992,4.992,0,0,0,4.008,2.035h5.01a2.962,2.962,0,0,0,.82-.128,10.013,10.013,0,0,1-19.674,0Zm9.837,10.148a11.945,11.945,0,0,0,4.008-.7v2.343L32.058,44.52l-4.008-4.809V37.368A11.945,11.945,0,0,0,32.058,38.069Zm-6.012,2a1.006,1.006,0,0,0,.231.642l4.3,5.155-4.2,2.8A30.48,30.48,0,0,1,24.139,41.5ZM15.025,55.1a1,1,0,0,0,1-1V47.087a5.015,5.015,0,0,1,5.01-5.01h1.172c.359,1.8,1.342,6.078,3,8.572a1,1,0,0,0,1.39.278l4.454-2.97V60.112H23.041V56.1h-2v4.008H7.882L5.463,42.565H8.012v.514a4.012,4.012,0,0,0,4.008,4.008,3.961,3.961,0,0,0,2.033-.573c-.015.189-.029.38-.029.573V53.1h-2v2Zm-5.01-15.029h4.008v3.006a2,2,0,1,1-4.008,0Zm4.008-2H10.016v-2a2.986,2.986,0,0,0,2-.782,2.982,2.982,0,0,0,2,.782Zm3.008-4.008H14.023a1,1,0,0,1,0-2h3.006Zm-7.016-7.014h4.008v3.006a2.986,2.986,0,0,0-2,.782,2.982,2.982,0,0,0-2-.782Zm0,5.01a1,1,0,0,1,0,2H7.01v2h1v4.5H5.186l-1.172-8.5Z" transform="translate(-2 -2.353)"/>
        <path id="Trazado_1048121" data-name="Trazado 1048121" d="M55.006,23.012A3.006,3.006,0,1,0,52,20.006,3.01,3.01,0,0,0,55.006,23.012Zm0-4.008a1,1,0,1,1-1,1A1,1,0,0,1,55.006,19Z" transform="translate(-1.903 -2.325)"/>
        <path id="Trazado_1048122" data-name="Trazado 1048122" d="M55.012,9.006a3.006,3.006,0,1,0-3.006,3.006A3.01,3.01,0,0,0,55.012,9.006Zm-3.006,1a1,1,0,1,1,1-1A1,1,0,0,1,52.006,10.008Z" transform="translate(-1.909 -2.346)"/>
      </g>
    </g>
  </g>
</svg>
