<svg xmlns="http://www.w3.org/2000/svg" xmlns:xlink="http://www.w3.org/1999/xlink" width="85.281" height="85.281" viewBox="0 0 85.281 85.281">
  <defs>
    <filter id="Trazado_874925" x="0" y="0" width="85.281" height="85.281" filterUnits="userSpaceOnUse">
      <feOffset dy="3" input="SourceAlpha"/>
      <feGaussianBlur stdDeviation="3" result="blur"/>
      <feFlood flood-opacity="0.161"/>
      <feComposite operator="in" in2="blur"/>
      <feComposite in="SourceGraphic"/>
    </filter>
  </defs>
  <g id="Grupo_1181440" data-name="Grupo 1181440" transform="translate(-276 -6091.407)">
    <g id="Grupo_1111314" data-name="Grupo 1111314" transform="translate(285 6097.407)">
      <g transform="matrix(1, 0, 0, 1, -9, -6)" filter="url(#Trazado_874925)">
        <g id="Trazado_874925-2" data-name="Trazado 874925" transform="translate(9 6)" fill="#37a2e4">
          <path d="M 33.64060211181641 65.78159332275391 C 29.30099296569824 65.78159332275391 25.09198188781738 64.93201446533203 21.13049125671387 63.25644683837891 C 17.30339241027832 61.63771820068359 13.86598205566406 59.3200569152832 10.91376209259033 56.36782836914062 C 7.961542129516602 53.41560745239258 5.643882274627686 49.97820663452148 4.025152206420898 46.15110778808594 C 2.349582195281982 42.18961715698242 1.500002145767212 37.98060607910156 1.500002145767212 33.64098739624023 C 1.500002145767212 29.30098724365234 2.349582195281982 25.09197616577148 4.025152206420898 21.1304874420166 C 5.643882274627686 17.30338668823242 7.961542129516602 13.86598682403564 10.91376209259033 10.91376686096191 C 13.86598205566406 7.961536884307861 17.30339241027832 5.643876552581787 21.13049125671387 4.025146484375 C 25.09198188781738 2.349576711654663 29.30099296569824 1.499996662139893 33.64060211181641 1.499996662139893 C 37.9802131652832 1.499996662139893 42.1892204284668 2.349576711654663 46.15071105957031 4.025146484375 C 49.97781372070312 5.643876552581787 53.41522216796875 7.961536884307861 56.3674430847168 10.91376686096191 C 59.31966400146484 13.86598682403564 61.63732147216797 17.30338668823242 63.25605392456055 21.1304874420166 C 64.93162536621094 25.09197616577148 65.78120422363281 29.30098724365234 65.78120422363281 33.64060592651367 C 65.78120422363281 37.98060607910156 64.93162536621094 42.18961715698242 63.25605392456055 46.15110778808594 C 61.63732147216797 49.97820663452148 59.31966400146484 53.41560745239258 56.3674430847168 56.36782836914062 C 53.41522216796875 59.3200569152832 49.97781372070312 61.63771820068359 46.15071105957031 63.25644683837891 C 42.1892204284668 64.93201446533203 37.9802131652832 65.78159332275391 33.64060211181641 65.78159332275391 Z" stroke="none"/>
          <path d="M 33.64060211181641 3 C 29.50282287597656 3 25.49041366577148 3.809719085693359 21.71482467651367 5.406650543212891 C 18.06651306152344 6.949764251708984 14.78937911987305 9.159473419189453 11.97442245483398 11.97441864013672 C 9.159481048583984 14.78937530517578 6.949756622314453 18.06652069091797 5.406658172607422 21.71481704711914 C 3.809722900390625 25.49041748046875 3 29.50283050537109 3 33.64098739624023 C 3 37.77876281738281 3.809722900390625 41.79117584228516 5.406658172607422 45.5667724609375 C 6.949756622314453 49.21507263183594 9.159481048583984 52.49221801757812 11.97442245483398 55.30717468261719 C 14.78937911987305 58.12211990356445 18.06651306152344 60.33182907104492 21.71482467651367 61.87493896484375 C 25.49041366577148 63.47187423706055 29.50282287597656 64.28159332275391 33.64060211181641 64.28159332275391 C 37.77838134765625 64.28159332275391 41.79079055786133 63.47187423706055 45.56637954711914 61.87493896484375 C 49.21469116210938 60.33182907104492 52.49182510375977 58.12211990356445 55.30677795410156 55.30717468261719 C 58.12172317504883 52.49221801757812 60.33144760131836 49.21507263183594 61.87454605102539 45.5667724609375 C 63.47148132324219 41.79117584228516 64.28120422363281 37.77876281738281 64.28120422363281 33.64060592651367 C 64.28120422363281 29.50283050537109 63.47148132324219 25.49041748046875 61.87454605102539 21.71481704711914 C 60.33144760131836 18.06652069091797 58.12172317504883 14.78937530517578 55.30677795410156 11.97441864013672 C 52.49182510375977 9.159473419189453 49.21469116210938 6.949764251708984 45.56637954711914 5.406650543212891 C 41.79079055786133 3.809719085693359 37.77838134765625 3 33.64060211181641 3 M 33.64060211181641 0 C 52.21979141235352 0 67.28120422363281 15.06140899658203 67.28120422363281 33.64060592651367 L 67.28120422363281 33.64098739624023 C 67.28120422363281 52.22018432617188 52.21979141235352 67.28159332275391 33.64060211181641 67.28159332275391 C 15.0614128112793 67.28159332275391 0 52.22018432617188 0 33.64098739624023 L 0 33.64060592651367 C 0 15.06140899658203 15.0614128112793 0 33.64060211181641 0 Z" stroke="none" fill="#fff"/>
        </g>
      </g>
    </g>
    <g id="biochemist_2317919" transform="translate(296.929 6109.463)">
      <path id="Trazado_1047900" data-name="Trazado 1047900" d="M35.12,43.171V42.1A4.326,4.326,0,0,0,32.226,41H30.778s-.724,4.342-2.171,6.514l-4.342-2.895-4.342,2.895C18.475,45.342,17.751,41,17.751,41H15.58a3.619,3.619,0,0,0-3.619,3.619v5.79L10.514,41H4L6.171,55.475H32.225a1.447,1.447,0,0,1-1.336-2Z" transform="translate(-2.553 -13.03)" fill="#fff"/>
      <path id="Trazado_1047901" data-name="Trazado 1047901" d="M9,26h4.342v9.409H9Z" transform="translate(-3.934 -8.886)" fill="#71caf0"/>
      <g id="Grupo_1181416" data-name="Grupo 1181416" transform="translate(10.856 5.534)">
        <path id="Trazado_1047902" data-name="Trazado 1047902" d="M44.086,23.619a1.809,1.809,0,0,0,0-3.619H43v3.619Z" transform="translate(-24.183 -12.762)" fill="#fce0b9"/>
        <path id="Trazado_1047903" data-name="Trazado 1047903" d="M18.809,20a1.809,1.809,0,0,0,0,3.619h1.086V20Z" transform="translate(-17 -12.762)" fill="#fce0b9"/>
        <path id="Trazado_1047904" data-name="Trazado 1047904" d="M35.544,12.016A3.2,3.2,0,0,0,30.705,10.6a3.2,3.2,0,0,1-3.562.11l-.316-.2a3.2,3.2,0,0,0-4.79,1.874L21,17.237V22.3h.036a7.958,7.958,0,0,0,15.85,0h.036V17.237Z" transform="translate(-18.105 -10)" fill="#fce0b9"/>
      </g>
      <path id="Trazado_1047905" data-name="Trazado 1047905" d="M9,39v2.895a2.171,2.171,0,1,0,4.342,0V39Z" transform="translate(-3.934 -12.477)" fill="#78af4f"/>
      <path id="Trazado_1047906" data-name="Trazado 1047906" d="M55.361,50.156,53.7,46.1l-2.565-6.249V31.171h.362a1.086,1.086,0,1,0,0-2.171H44.978a1.086,1.086,0,0,0,0,2.171h.362v8.685l-4.231,10.3a1.447,1.447,0,0,0,1.336,2h11.58A1.447,1.447,0,0,0,55.361,50.156Z" transform="translate(-12.773 -9.714)" fill="#71caf0"/>
      <path id="Trazado_1047907" data-name="Trazado 1047907" d="M7.342,38.59V33.895h.724a1.447,1.447,0,1,0,0-2.895H3.724A.724.724,0,0,0,3,31.724l.947,6.866Z" transform="translate(-2.276 -10.267)" fill="#fce0b9"/>
      <path id="Trazado_1047908" data-name="Trazado 1047908" d="M26.551,8.674l.316.2a3.2,3.2,0,0,0,3.562-.11,3.2,3.2,0,0,1,4.838,1.418L36.646,15.4l-.3-7.22a5.715,5.715,0,0,0-7.9-4.361L25.066,5.269A5.066,5.066,0,0,0,20,10.335l.724,5.066,1.037-4.853A3.2,3.2,0,0,1,26.551,8.674Z" transform="translate(-6.973 -2.63)" fill="#665642"/>
      <path id="Trazado_1047909" data-name="Trazado 1047909" d="M32,22.171a2.9,2.9,0,0,0,2.895,2.895h3.619a1.447,1.447,0,0,0,1.447-1.447V20H32Zm3.619-.724a.724.724,0,1,1-.724.724A.724.724,0,0,1,35.619,21.447Z" transform="translate(-10.288 -7.228)" fill="#71caf0"/>
      <circle id="Elipse_11893" data-name="Elipse 11893" cx="0.724" cy="0.724" r="0.724" transform="translate(24.607 14.219)" fill="#fff"/>
      <path id="Trazado_1047910" data-name="Trazado 1047910" d="M22.447,25.066h3.619a2.9,2.9,0,0,0,2.895-2.895V20H21v3.619A1.447,1.447,0,0,0,22.447,25.066Zm2.895-3.619a.724.724,0,1,1-.724.724A.724.724,0,0,1,25.342,21.447Z" transform="translate(-7.249 -7.228)" fill="#71caf0"/>
      <circle id="Elipse_11894" data-name="Elipse 11894" cx="0.724" cy="0.724" r="0.724" transform="translate(17.37 14.219)" fill="#fff"/>
      <path id="Trazado_1047911" data-name="Trazado 1047911" d="M51,37.447v2.895a1.447,1.447,0,0,0,1.447,1.447h2.9a.724.724,0,0,0,.724-.724V36.724A.724.724,0,0,0,55.342,36h-2.9A1.447,1.447,0,0,0,51,37.447Z" transform="translate(-15.536 -11.648)" fill="#fce0b9"/>
      <path id="Trazado_1047912" data-name="Trazado 1047912" d="M12,32.447a1.447,1.447,0,0,0,1.447,1.447h2.171a.724.724,0,0,0,.724-.724V31.724A.724.724,0,0,0,15.619,31H13.447A1.447,1.447,0,0,0,12,32.447Z" transform="translate(-4.763 -10.267)" fill="#fce0b9"/>
      <path id="Trazado_1047913" data-name="Trazado 1047913" d="M48.342,36.447A1.447,1.447,0,0,0,46.895,35H44.724a.724.724,0,0,0-.724.724v1.447a.724.724,0,0,0,.724.724h2.171A1.447,1.447,0,0,0,48.342,36.447Z" transform="translate(-13.603 -11.372)" fill="#fce0b9"/>
      <circle id="Elipse_11895" data-name="Elipse 11895" cx="1.447" cy="1.447" r="1.447" transform="translate(36.911 11.324)" fill="#fca947"/>
      <circle id="Elipse_11896" data-name="Elipse 11896" cx="1.447" cy="1.447" r="1.447" transform="translate(34.74 3.363)" fill="#fca947"/>
      <path id="Trazado_1047914" data-name="Trazado 1047914" d="M48.55,52.325a4.653,4.653,0,0,0-3.8-.617l-1.933.527-1.7,4.149a1.448,1.448,0,0,0,1.337,2h11.58a1.447,1.447,0,0,0,1.336-2L53.7,52.333A4.652,4.652,0,0,1,48.55,52.325Z" transform="translate(-12.773 -15.942)" fill="#fca947"/>
      <path id="Trazado_1047915" data-name="Trazado 1047915" d="M42.445,58.634H51.1l-.4-.159a17.253,17.253,0,0,1-7.725-6.04l-.163.044-1.7,4.149a1.448,1.448,0,0,0,1.336,2Z" transform="translate(-12.773 -16.189)" fill="#e68f29"/>
      <path id="Trazado_1047916" data-name="Trazado 1047916" d="M30.619,36.668A7.917,7.917,0,0,1,27,35.8v3.041l3.619,4.342,3.619-4.342V35.8A7.917,7.917,0,0,1,30.619,36.668Z" transform="translate(-8.906 -11.592)" fill="#fce0b9"/>
      <path id="Trazado_1047917" data-name="Trazado 1047917" d="M25.066,6.46l3.382-1.45a5.715,5.715,0,0,1,7.9,4.361l.243,5.8.059.225-.3-7.22a5.715,5.715,0,0,0-7.9-4.361L25.066,5.269A5.066,5.066,0,0,0,20,10.335l.062.436A5.063,5.063,0,0,1,25.066,6.46Z" transform="translate(-6.973 -2.63)" fill="#735f47"/>
      <path id="Trazado_1047918" data-name="Trazado 1047918" d="M28.842,36.321l4.5,4.2,1.4-1.683V35.8a7.857,7.857,0,0,1-5.9.523Z" transform="translate(-9.415 -11.592)" fill="#f5cba1"/>
      <path id="Trazado_1047919" data-name="Trazado 1047919" d="M35.587,41s-.724,4.342-2.171,6.514l-.053-.035c-.007.011-.014.025-.021.035l-4.306-2.87h0s-4.318,2.845-4.325,2.834l-.052.035-.083-.257a22.1,22.1,0,0,1-2.008-6.218c0-.024-.007-.039-.007-.039H21.4c.419,2.133,1.115,5.888,2.3,8.011a.727.727,0,0,0,1.039.253L29,46.427l4.256,2.837a.727.727,0,0,0,1.039-.254A34.7,34.7,0,0,0,36.878,41H35.587Z" transform="translate(-7.361 -13.029)" fill="#ccc"/>
      <path id="Trazado_1047920" data-name="Trazado 1047920" d="M38.514,40.171,35.619,38v1.447L32,43.79l4.342,2.895C37.79,44.514,38.514,40.171,38.514,40.171Z" transform="translate(-10.288 -12.201)" fill="#fff"/>
      <path id="Trazado_1047921" data-name="Trazado 1047921" d="M25.895,38,23,40.171s.724,4.342,2.171,6.514l4.342-2.895-3.619-4.342Z" transform="translate(-7.801 -12.201)" fill="#fff"/>
      <path id="Trazado_1047922" data-name="Trazado 1047922" d="M11.171,43.171A2.171,2.171,0,0,1,9,41v1.447a2.171,2.171,0,0,0,4.342,0V41A2.171,2.171,0,0,1,11.171,43.171Z" transform="translate(-3.934 -13.03)" fill="#619c35"/>
      <path id="Trazado_1047923" data-name="Trazado 1047923" d="M26.517,23.783a1.267,1.267,0,1,1,1.267-1.267A1.268,1.268,0,0,1,26.517,23.783Zm0-1.447a.181.181,0,0,0-.181.181c0,.2.362.2.362,0A.181.181,0,0,0,26.517,22.336Z" transform="translate(-8.423 -7.573)"/>
      <path id="Trazado_1047924" data-name="Trazado 1047924" d="M36.517,23.783a1.267,1.267,0,1,1,1.267-1.267A1.268,1.268,0,0,1,36.517,23.783Zm0-1.447a.181.181,0,0,0-.181.181c0,.2.362.2.362,0A.181.181,0,0,0,36.517,22.336Z" transform="translate(-11.186 -7.573)"/>
      <path id="Trazado_1047925" data-name="Trazado 1047925" d="M30.964,32.714A2.718,2.718,0,0,1,28.25,30h1.086a1.628,1.628,0,0,0,3.257,0h1.086A2.718,2.718,0,0,1,30.964,32.714Z" transform="translate(-9.252 -9.991)"/>
      <path id="Trazado_1047926" data-name="Trazado 1047926" d="M4.9,44.9a.723.723,0,0,0,.717.625H43.252a2.171,2.171,0,0,0,2-3l-3.818-9.3h.367a1.449,1.449,0,0,0,1.447-1.447V27.429a1.449,1.449,0,0,0-1.447-1.447h-.722V24.5a1.81,1.81,0,0,0-.362-3.583H34.205a1.81,1.81,0,0,0-.362,3.583v.76h-.722A1.449,1.449,0,0,0,31.673,26.7v1.447A1.449,1.449,0,0,0,33.121,29.6h.722v.491a5.058,5.058,0,0,0-2.17-.491H30.467L28.055,27.79v-.813a8.683,8.683,0,0,0,4.342-7.51h.362a2.533,2.533,0,1,0,0-5.065h-.392l-.273-6.527a.638.638,0,0,0-.009-.083,6.439,6.439,0,0,0-8.9-4.913L19.94,4.271A5.8,5.8,0,0,0,14.3,10.059a.7.7,0,0,0,.007.1l.606,4.24h-.251a2.533,2.533,0,1,0,0,5.066h.362a8.683,8.683,0,0,0,4.342,7.51v.813L16.958,29.6H15.751a5.047,5.047,0,0,0-3.619,1.528V26.7h.724A1.449,1.449,0,0,0,14.3,25.257V23.81a1.449,1.449,0,0,0-1.447-1.447h-.724V19.467a.723.723,0,0,0-.724-.724H7.066a.723.723,0,0,0-.724.724v2.895H3.447A1.449,1.449,0,0,0,2,23.81a.646.646,0,0,0,.007.1Zm38.951-1.145a.711.711,0,0,1-.6.322H31.672A.724.724,0,0,1,31,43.069l1.569-3.819,1.59-.434a3.929,3.929,0,0,1,3.212.522,5.341,5.341,0,0,0,5.185.426l1.358,3.309A.708.708,0,0,1,43.853,43.753ZM41.807,31.771h-2.9a.724.724,0,0,1-.724-.724V28.152a.724.724,0,0,1,.724-.724h2.9Zm-7.24-8.685h-.362a.362.362,0,0,1,0-.724h6.517a.362.362,0,0,1,0,.724H37.463v1.447h2.173v1.447h-.727a2.16,2.16,0,0,0-1.587.7,2.167,2.167,0,0,0-2.03-1.424h0V23.81A.723.723,0,0,0,34.567,23.086ZM33.121,26.7h2.171a.724.724,0,0,1,0,1.447H33.121ZM35.292,29.6a2.154,2.154,0,0,0,1.446-.564v2.011a2.174,2.174,0,0,0,2.171,2.171h.965l2.138,5.208a3.922,3.922,0,0,1-3.834-.293,5.385,5.385,0,0,0-4.4-.714l-.515.14,1.968-4.79a.717.717,0,0,0,.054-.275V29.6Zm-1.449,2.189v.563L29.667,42.516a2.168,2.168,0,0,0-.043,1.559H24.436v-8.78l3.217,2.145a.725.725,0,0,0,1-.2,19.818,19.818,0,0,0,2.17-6.192h.847A3.6,3.6,0,0,1,33.843,31.789Zm-4.411-1.156a22.041,22.041,0,0,1-1.614,5.176l-3.034-2.022,3.1-3.724a.725.725,0,0,0,.168-.464ZM16.475,15.849h6.514V17.3a2.174,2.174,0,0,1-2.171,2.171H17.2a.724.724,0,0,1-.724-.724Zm.171-1.447.841-3.938A2.481,2.481,0,0,1,21.2,9.011l.317.2a3.917,3.917,0,0,0,4.366-.135,2.481,2.481,0,0,1,3.729,1.06L30.734,14.4H16.646Zm7.79,1.447H30.95v2.895a.724.724,0,0,1-.724.724H26.607A2.174,2.174,0,0,1,24.436,17.3Zm9.409,1.086a1.087,1.087,0,0,1-1.086,1.086H32.4V15.849h.362A1.087,1.087,0,0,1,33.845,16.934ZM20.094,5.716a.713.713,0,0,0,.285-.059l3.382-1.45a4.992,4.992,0,0,1,6.89,3.77L30.7,9.085A3.931,3.931,0,0,0,25.036,7.9a2.475,2.475,0,0,1-2.757.085l-.317-.2a3.927,3.927,0,0,0-5.881,2.337L15.892,11l-.141-.989A4.348,4.348,0,0,1,20.094,5.716Zm-5.428,12.3a1.086,1.086,0,0,1,0-2.171h.362V18.02Zm1.941,2.8a2.14,2.14,0,0,0,.592.093h3.619a3.606,3.606,0,0,0,2.895-1.47,3.606,3.606,0,0,0,2.895,1.47h3.619a2.14,2.14,0,0,0,.592-.093,7.233,7.233,0,0,1-14.211,0Zm7.106,7.33a8.628,8.628,0,0,0,2.895-.507v1.692l-2.895,3.474-2.895-3.474V27.646A8.628,8.628,0,0,0,23.712,28.152ZM19.37,29.6a.727.727,0,0,0,.167.464l3.1,3.724-3.034,2.022a22.017,22.017,0,0,1-1.614-5.176ZM11.409,40.456a.723.723,0,0,0,.724-.724V34.666a3.623,3.623,0,0,1,3.619-3.619H16.6a19.818,19.818,0,0,0,2.17,6.192.724.724,0,0,0,1,.2l3.217-2.145v8.78H17.2V41.18H15.751v2.895h-9.5L4.5,31.4H6.342v.371a2.9,2.9,0,0,0,2.895,2.895,2.861,2.861,0,0,0,1.468-.414c-.011.137-.021.274-.021.414v4.342H9.237v1.447ZM7.79,29.6h2.895v2.171a1.447,1.447,0,1,1-2.895,0Zm2.895-1.447H7.79V26.7a2.157,2.157,0,0,0,1.447-.565,2.154,2.154,0,0,0,1.447.565Zm2.173-2.895H10.685a.724.724,0,1,1,0-1.447h2.171ZM7.79,20.191h2.895v2.171a2.157,2.157,0,0,0-1.447.565,2.154,2.154,0,0,0-1.447-.565Zm0,3.619a.724.724,0,1,1,0,1.447H5.619V26.7h.724v3.247H4.3L3.455,23.81Z" transform="translate(-2 -2.353)"/>
      <path id="Trazado_1047927" data-name="Trazado 1047927" d="M54.171,21.342A2.171,2.171,0,1,0,52,19.171,2.174,2.174,0,0,0,54.171,21.342Zm0-2.895a.724.724,0,1,1-.724.724A.724.724,0,0,1,54.171,18.447Z" transform="translate(-15.813 -6.399)"/>
      <path id="Trazado_1047928" data-name="Trazado 1047928" d="M53.342,8.171a2.171,2.171,0,1,0-2.171,2.171A2.174,2.174,0,0,0,53.342,8.171Zm-2.171.724a.724.724,0,1,1,.724-.724A.724.724,0,0,1,51.171,8.895Z" transform="translate(-14.984 -3.361)"/>
    </g>
  </g>
</svg>
