<svg xmlns="http://www.w3.org/2000/svg" xmlns:xlink="http://www.w3.org/1999/xlink" width="98" height="98" viewBox="0 0 98 98">
  <defs>
    <filter id="Trazado_874925" x="0" y="0" width="98" height="98" filterUnits="userSpaceOnUse">
      <feOffset dy="3" input="SourceAlpha"/>
      <feGaussianBlur stdDeviation="3" result="blur"/>
      <feFlood flood-opacity="0.161"/>
      <feComposite operator="in" in2="blur"/>
      <feComposite in="SourceGraphic"/>
    </filter>
    <clipPath id="clip-path">
      <path id="path4386" d="M0-682.665H50.131v50.131H0Z" transform="translate(0 682.665)"/>
    </clipPath>
  </defs>
  <g id="Grupo_1181885" data-name="Grupo 1181885" transform="translate(-276 -6091.407)">
    <g id="Grupo_1111314" data-name="Grupo 1111314" transform="translate(-734.73 3020.407)">
      <g transform="matrix(1, 0, 0, 1, 1010.73, 3071)" filter="url(#Trazado_874925)">
        <g id="Trazado_874925-2" data-name="Trazado 874925" transform="translate(9 6)" fill="#ffd63c">
          <path d="M 39.99997329711914 78.50040435791016 C 34.80184936523438 78.50040435791016 29.76000595092773 77.48268127441406 25.01450729370117 75.47550201416016 C 20.43013954162598 73.53648376464844 16.3126392364502 70.76027679443359 12.7763843536377 67.22402191162109 C 9.240128517150879 63.68776702880859 6.463928699493408 59.57027053833008 4.524906635284424 54.98590087890625 C 2.517728805541992 50.24040222167969 1.500006675720215 45.19855880737305 1.500006675720215 40.00043487548828 C 1.500006675720215 34.80185699462891 2.517728805541992 29.76001358032227 4.524906635284424 25.01451301574707 C 6.463928699493408 20.43013572692871 9.240128517150879 16.31263542175293 12.7763843536377 12.77637958526611 C 16.3126392364502 9.240124702453613 20.43013954162598 6.463935375213623 25.01450729370117 4.52490234375 C 29.76000595092773 2.517724514007568 34.80184936523438 1.500002145767212 39.99997329711914 1.500002145767212 C 45.19809722900391 1.500002145767212 50.23994064331055 2.517724514007568 54.98543930053711 4.52490234375 C 59.56981658935547 6.463935375213623 63.68731689453125 9.240124702453613 67.22357177734375 12.77637958526611 C 70.75982666015625 16.31263542175293 73.53601837158203 20.43013572692871 75.47505187988281 25.01451301574707 C 77.48223114013672 29.76001358032227 78.49995422363281 34.80185699462891 78.49995422363281 39.99998092651367 C 78.49995422363281 45.19855880737305 77.48223114013672 50.24040222167969 75.47505187988281 54.98590087890625 C 73.53601837158203 59.57027053833008 70.75982666015625 63.68776702880859 67.22357177734375 67.22402191162109 C 63.68731689453125 70.76027679443359 59.56981658935547 73.53648376464844 54.98543930053711 75.47550201416016 C 50.23994064331055 77.48268127441406 45.19809722900391 78.50040435791016 39.99997329711914 78.50040435791016 Z" stroke="none"/>
          <path d="M 39.99997329711914 3 C 35.00369262695312 3 30.15843963623047 3.977851867675781 25.59883880615234 5.906417846679688 C 21.19326782226562 7.769813537597656 17.23602676391602 10.43805694580078 13.83704376220703 13.83704376220703 C 10.43805694580078 17.23601531982422 7.769813537597656 21.19325637817383 5.906410217285156 25.59882736206055 C 3.977851867675781 30.15844345092773 3 35.00368118286133 3 40.00042724609375 C 3 44.99672317504883 3.977851867675781 49.84196472167969 5.906410217285156 54.40157318115234 C 7.769813537597656 58.80714797973633 10.43805694580078 62.76438903808594 13.83704376220703 66.16336059570312 C 17.23602676391602 69.56234741210938 21.19326782226562 72.2305908203125 25.59883880615234 74.09398651123047 C 30.15843963623047 76.02255249023438 35.00369262695312 77.00040435791016 39.99997329711914 77.00040435791016 C 44.99625396728516 77.00040435791016 49.84150695800781 76.02255249023438 54.40110778808594 74.09398651123047 C 58.80667877197266 72.2305908203125 62.76391983032227 69.56234741210938 66.16290283203125 66.16336059570312 C 69.5618896484375 62.76438903808594 72.23013305664062 58.80714797973633 74.09353637695312 54.40157318115234 C 76.0220947265625 49.84196472167969 76.99994659423828 44.99672317504883 76.99994659423828 39.99997711181641 C 76.99994659423828 35.00368118286133 76.0220947265625 30.15844345092773 74.09353637695312 25.59882736206055 C 72.23013305664062 21.19325637817383 69.5618896484375 17.23601531982422 66.16290283203125 13.83704376220703 C 62.76391983032227 10.43805694580078 58.80667877197266 7.769813537597656 54.40110778808594 5.906417846679688 C 49.84150695800781 3.977851867675781 44.99625396728516 3 39.99997329711914 3 M 39.99997329711914 0 C 62.09134674072266 0 79.99994659423828 17.90858840942383 79.99994659423828 39.99997711181641 L 79.99994659423828 40.00042724609375 C 79.99994659423828 62.09181594848633 62.09134674072266 80.00040435791016 39.99997329711914 80.00040435791016 C 17.90859985351562 80.00040435791016 0 62.09181594848633 0 40.00042724609375 L 0 39.99997711181641 C 0 17.90858840942383 17.90859985351562 0 39.99997329711914 0 Z" stroke="none" fill="#fff"/>
        </g>
      </g>
    </g>
    <g id="g4380" transform="translate(299.935 6795.007)">
      <g id="g4382" transform="translate(0 -682.665)">
        <g id="g4384" clip-path="url(#clip-path)">
          <g id="g4390" transform="translate(35.904 30.669)">
            <path id="path4392" d="M-33.8-236.3H-27.2a2.679,2.679,0,0,0,2.679-2.679v-12.446a1.174,1.174,0,0,0-.559-1l-3.949-2.428a1.175,1.175,0,0,0-.615-.174h-2.009a1.175,1.175,0,0,0-1.083.721l-3.658,8.731a1.175,1.175,0,0,0-.091.454v6.143A2.679,2.679,0,0,0-33.8-236.3" transform="translate(36.484 255.025)" fill="#c8effe"/>
          </g>
          <g id="g4394" transform="translate(40.893 30.669)">
            <path id="path4396" d="M-80.957-32.828l-3.949-2.428a1.174,1.174,0,0,0-.615-.174h-1.852a1.174,1.174,0,0,1,.615.174l3.949,2.428a1.175,1.175,0,0,1,.559,1v12.446A2.679,2.679,0,0,1-84.929-16.7h1.852A2.679,2.679,0,0,0-80.4-19.381V-31.827a1.175,1.175,0,0,0-.559-1" transform="translate(87.373 35.429)" fill="#99e6fc"/>
          </g>
          <g id="g4398" transform="translate(33.065 34.905)">
            <path id="path4400" d="M0-104.556H6.689v-7.5a.782.782,0,0,0-.782-.782H0Z" transform="translate(0 112.842)" fill="#678d98"/>
          </g>
          <g id="g4402" transform="translate(33.065 34.905)">
            <path id="path4404" d="M0-104.556H6.689v-7.5a.782.782,0,0,0-.782-.782H0Z" transform="translate(0 112.842)" fill="#678d98"/>
          </g>
          <g id="g4406" transform="translate(37.047 34.905)">
            <path id="path4408" d="M-24.291,0h-1.925a.782.782,0,0,1,.782.782v7.5h1.925V.782A.782.782,0,0,0-24.291,0" transform="translate(26.216)" fill="#537984"/>
          </g>
          <g id="g4410" transform="translate(43.184 36.68)">
            <path id="path4412" d="M0-160.454H2.005a2.679,2.679,0,0,0,2.679-2.679V-173.17H3.079a1.174,1.174,0,0,0-1.057.663l-1.9,3.937a1.174,1.174,0,0,0-.117.511Z" transform="translate(0 173.17)" fill="#60b8fe"/>
          </g>
          <g id="g4414" transform="translate(43.337 36.68)">
            <path id="path4416" d="M-36.917,0a1.179,1.179,0,0,0-.247.026V10.037a2.679,2.679,0,0,1-2.679,2.679h1.852a2.679,2.679,0,0,0,2.679-2.679V0Z" transform="translate(39.843)" fill="#27a5fe"/>
          </g>
          <g id="g4418" transform="translate(2.263 30.669)">
            <path id="path4420" d="M-117.157-236.3h-6.606a2.679,2.679,0,0,1-2.679-2.679v-12.446a1.174,1.174,0,0,1,.559-1l3.949-2.428a1.175,1.175,0,0,1,.615-.174h2.009a1.175,1.175,0,0,1,1.083.721l3.658,8.731a1.175,1.175,0,0,1,.091.454v6.143a2.679,2.679,0,0,1-2.679,2.679" transform="translate(126.442 255.025)" fill="#c8effe"/>
          </g>
          <g id="g4422" transform="translate(7.543 30.669)">
            <path id="path4424" d="M-83.192-119.262l-3.658-8.731a1.175,1.175,0,0,0-1.083-.721h-1.852a1.175,1.175,0,0,1,1.083.721l3.658,8.731a1.174,1.174,0,0,1,.091.454v6.143a2.679,2.679,0,0,1-2.679,2.679h1.852a2.679,2.679,0,0,0,2.679-2.679v-6.143a1.174,1.174,0,0,0-.091-.454" transform="translate(89.785 128.714)" fill="#99e6fc"/>
          </g>
          <g id="g4426" transform="translate(10.377 34.905)">
            <path id="path4428" d="M-84.4-104.556h-6.689v-7.5a.782.782,0,0,1,.782-.782H-84.4Z" transform="translate(91.088 112.842)" fill="#537984"/>
          </g>
          <g id="g4430" transform="translate(12.302 34.905)">
            <path id="path4432" d="M-60.109,0h-4.764V5.677a2.609,2.609,0,0,0,2.609,2.609h2.155Z" transform="translate(64.873)" fill="#476666"/>
          </g>
          <g id="g4434" transform="translate(2.263 36.68)">
            <path id="path4436" d="M-59.106-160.454h-2.005a2.679,2.679,0,0,1-2.679-2.679V-173.17h1.606a1.174,1.174,0,0,1,1.057.663l1.9,3.937a1.175,1.175,0,0,1,.117.511Z" transform="translate(63.791 173.17)" fill="#60b8fe"/>
          </g>
          <g id="g4438" transform="translate(2.263 36.68)">
            <path id="path4440" d="M-57.627-58.042l-1.9-3.937a1.175,1.175,0,0,0-1.057-.663h-1.606v.026a1.175,1.175,0,0,1,.811.637l1.9,3.937a1.175,1.175,0,0,1,.117.511v7.605h1.852v-7.605a1.175,1.175,0,0,0-.117-.511" transform="translate(62.195 62.643)" fill="#27a5fe"/>
          </g>
          <g id="g4442" transform="translate(14.227 13.034)">
            <path id="path4444" d="M-191.729,0h-8.714a4.018,4.018,0,0,0-3.577,2.187l-2.742,5.356a2.61,2.61,0,0,0-.163.907v19.1a2.609,2.609,0,0,0,2.609,2.609h16.459a2.609,2.609,0,0,0,2.609-2.609V8.45a2.609,2.609,0,0,0-.163-.907l-2.742-5.356A4.018,4.018,0,0,0-191.729,0" transform="translate(206.925)" fill="#537984"/>
          </g>
          <g id="g4446" transform="translate(27.287 13.034)">
            <path id="path4448" d="M-106.671-95.175l-2.742-5.356a4.018,4.018,0,0,0-3.577-2.187h-2.135a4.018,4.018,0,0,1,3.577,2.187l2.742,5.356a2.607,2.607,0,0,1,.163.907v19.1a2.609,2.609,0,0,1-2.609,2.609h2.135a2.609,2.609,0,0,0,2.609-2.609v-19.1a2.61,2.61,0,0,0-.163-.907" transform="translate(115.125 102.718)" fill="#476666"/>
          </g>
          <g id="g4450" transform="translate(9.815 21.387)">
            <path id="path4452" d="M-139.2-138.771l-3.781,2.52-7.149-10.728a.606.606,0,0,1,.168-.84l2.773-1.848a.606.606,0,0,1,.84.168Z" transform="translate(150.23 149.77)" fill="#7ca1b1"/>
          </g>
          <g id="g4454" transform="translate(11.206 21.387)">
            <path id="path4456" d="M-31.441-3.413a.6.6,0,0,0-.84-.168l-1.07.713-.582.388a.7.7,0,0,1,.969.194l6.4,9.6-2.208,1.471.7,1.049,3.781-2.519Z" transform="translate(33.933 3.683)" fill="#678d98"/>
          </g>
          <g id="g4458" transform="translate(8.608 18.911)">
            <path id="path4460" d="M-10.611-3l-.21.14A1.415,1.415,0,0,0-11.215-.9l1.343,2.015,2.566-1.71L-8.648-2.607A1.415,1.415,0,0,0-10.611-3" transform="translate(11.452 3.238)" fill="#ffd15c"/>
          </g>
          <g id="g4462" transform="translate(29.284 21.387)">
            <path id="path4464" d="M0-138.771l3.781,2.52L10.93-146.98a.606.606,0,0,0-.168-.84l-2.773-1.848a.606.606,0,0,0-.84.168Z" transform="translate(0 149.77)" fill="#7ca1b1"/>
          </g>
          <g id="g4466" transform="translate(31.491 21.387)">
            <path id="path4468" d="M-107.938-24.6l-2.773-1.848a.606.606,0,0,0-.841.168l-.362.544-.441.662a.8.8,0,0,1,1.1-.221l1.042.694a.607.607,0,0,1,.168.84l-6.45,9.68,1.573,1.049,7.149-10.728a.605.605,0,0,0-.167-.84" transform="translate(116.493 26.55)" fill="#678d98"/>
          </g>
          <g id="g4470" transform="translate(37.376 18.911)">
            <path id="path4472" d="M-41.711-3l.21.14A1.415,1.415,0,0,1-41.108-.9l-1.343,2.015-2.566-1.71,1.343-2.015A1.415,1.415,0,0,1-41.711-3" transform="translate(45.017 3.238)" fill="#ffd15c"/>
          </g>
          <g id="g4474" transform="translate(18.341 0.734)">
            <path id="path4476" d="M-154.762-52.037h-11.083a1.183,1.183,0,0,1-1.183-1.183v-1.759a1.183,1.183,0,0,1,1.183-1.183h11.083a1.183,1.183,0,0,1,1.183,1.183v1.759a1.183,1.183,0,0,1-1.183,1.183" transform="translate(167.028 56.161)" fill="#ffd15c"/>
          </g>
          <g id="g4478" transform="translate(28.569 0.734)">
            <path id="path4480" d="M-25.708,0h-2.037a1.183,1.183,0,0,1,1.183,1.183V2.941a1.183,1.183,0,0,1-1.183,1.183h2.037a1.183,1.183,0,0,0,1.183-1.183V1.183A1.183,1.183,0,0,0-25.708,0" transform="translate(27.745)" fill="#ffc344"/>
          </g>
          <g id="g4482" transform="translate(17.066 25.786)">
            <path id="path4484" d="M-141.641,0h-6.452a2.609,2.609,0,0,0-2.446,1.7L-152.7,7.543a2.609,2.609,0,0,0-.163.907V19.226a2.609,2.609,0,0,0,2.609,2.609h10.781a2.609,2.609,0,0,0,2.609-2.609V8.45a2.609,2.609,0,0,0-.163-.907L-139.194,1.7A2.609,2.609,0,0,0-141.641,0" transform="translate(152.866)" fill="#c8effe"/>
          </g>
          <g id="g4486" transform="translate(26.352 25.786)">
            <path id="path4488" d="M-82.649-95.177l-2.164-5.841a2.609,2.609,0,0,0-2.446-1.7H-89.2a2.609,2.609,0,0,1,2.446,1.7l2.164,5.841a2.609,2.609,0,0,1,.163.907v10.776a2.609,2.609,0,0,1-2.609,2.609h1.94a2.609,2.609,0,0,0,2.609-2.609V-94.27a2.609,2.609,0,0,0-.163-.907" transform="translate(89.2 102.72)" fill="#99e6fc"/>
          </g>
          <g id="g4490" transform="translate(20.634 35.309)">
            <path id="path4492" d="M-97.68-111.992h-6.607a1.134,1.134,0,0,1-1.134-1.134v-6.607a1.134,1.134,0,0,1,1.134-1.134h6.607a1.134,1.134,0,0,1,1.134,1.134v6.607a1.134,1.134,0,0,1-1.134,1.134" transform="translate(105.421 120.868)" fill="#60b8fe"/>
          </g>
          <g id="g4494" transform="translate(26.326 35.309)">
            <path id="path4496" d="M-25.852,0H-27.9a1.134,1.134,0,0,1,1.134,1.134V7.742A1.134,1.134,0,0,1-27.9,8.876h2.049a1.134,1.134,0,0,0,1.134-1.134V1.134A1.134,1.134,0,0,0-25.852,0" transform="translate(27.901)" fill="#27a5fe"/>
          </g>
          <g id="g4498" transform="translate(17.066 25.786)">
            <path id="path4500" d="M-141.641,0h-6.452a2.609,2.609,0,0,0-2.446,1.7L-152.7,7.543a2.609,2.609,0,0,0-.163.907V19.226a2.609,2.609,0,0,0,2.609,2.609h10.781a2.609,2.609,0,0,0,2.609-2.609V8.45a2.609,2.609,0,0,0-.163-.907L-139.194,1.7A2.609,2.609,0,0,0-141.641,0Z" transform="translate(152.866)" fill="none" stroke="#000" stroke-linecap="round" stroke-linejoin="round" stroke-miterlimit="10" stroke-width="1.5"/>
          </g>
          <g id="g4502" transform="translate(14.228 30.646)">
            <path id="path4504" d="M0,0V9.937a2.609,2.609,0,0,0,2.608,2.608h.23" fill="none" stroke="#000" stroke-linecap="round" stroke-linejoin="round" stroke-miterlimit="10" stroke-width="1.5"/>
          </g>
          <g id="g4506" transform="translate(33.065 30.646)">
            <path id="path4508" d="M-35.815,0V9.937a2.608,2.608,0,0,1-2.608,2.608h-.23" transform="translate(38.653)" fill="none" stroke="#000" stroke-linecap="round" stroke-linejoin="round" stroke-miterlimit="10" stroke-width="1.5"/>
          </g>
          <g id="g4510" transform="translate(24.568 13.034)">
            <path id="path4512" d="M0,0H4.855A4.017,4.017,0,0,1,8.432,2.187l2.742,5.356a2.6,2.6,0,0,1,.163.907v.968" fill="none" stroke="#000" stroke-linecap="round" stroke-linejoin="round" stroke-miterlimit="10" stroke-width="1.5"/>
          </g>
          <g id="g4514" transform="translate(14.228 13.034)">
            <path id="path4516" d="M0-118.835v-.968a2.6,2.6,0,0,1,.163-.907L2.9-126.066a4.017,4.017,0,0,1,3.577-2.187h.385" transform="translate(0 128.253)" fill="none" stroke="#000" stroke-linecap="round" stroke-linejoin="round" stroke-miterlimit="10" stroke-width="1.5"/>
          </g>
          <g id="g4518" transform="translate(20.634 35.309)">
            <path id="path4520" d="M-97.68-111.992h-6.607a1.134,1.134,0,0,1-1.134-1.134v-6.607a1.134,1.134,0,0,1,1.134-1.134h6.607a1.134,1.134,0,0,1,1.134,1.134v6.607A1.134,1.134,0,0,1-97.68-111.992Z" transform="translate(105.421 120.868)" fill="none" stroke="#000" stroke-linecap="round" stroke-linejoin="round" stroke-miterlimit="10" stroke-width="1.5"/>
          </g>
          <g id="g4522" transform="translate(25.417 38.35)">
            <path id="path4524" d="M0,0H4.093" fill="none" stroke="#000" stroke-linecap="round" stroke-linejoin="round" stroke-miterlimit="10" stroke-width="1.5"/>
          </g>
          <g id="g4526" transform="translate(20.634 38.35)">
            <path id="path4528" d="M0,0H1.3" fill="none" stroke="#000" stroke-linecap="round" stroke-linejoin="round" stroke-miterlimit="10" stroke-width="1.5"/>
          </g>
          <g id="g4530" transform="translate(20.634 41.263)">
            <path id="path4532" d="M0,0H8.876" fill="none" stroke="#000" stroke-linecap="round" stroke-linejoin="round" stroke-miterlimit="10" stroke-width="1.5"/>
          </g>
          <g id="g4534" transform="translate(19.393 20.601)">
            <path id="path4536" d="M0-86.913,2.537-93.8" transform="translate(0 93.801)" fill="none" stroke="#000" stroke-linecap="round" stroke-linejoin="round" stroke-miterlimit="10" stroke-width="1.5"/>
          </g>
          <g id="g4538" transform="translate(28.201 20.601)">
            <path id="path4540" d="M-32.007-86.913-34.544-93.8" transform="translate(34.544 93.801)" fill="none" stroke="#000" stroke-linecap="round" stroke-linejoin="round" stroke-miterlimit="10" stroke-width="1.5"/>
          </g>
          <g id="g4542" transform="translate(2.263 36.68)">
            <path id="path4544" d="M-59.106-160.454h-2.005a2.679,2.679,0,0,1-2.679-2.679V-173.17h1.606a1.174,1.174,0,0,1,1.057.663l1.9,3.937a1.175,1.175,0,0,1,.117.511Z" transform="translate(63.791 173.17)" fill="none" stroke="#000" stroke-linecap="round" stroke-linejoin="round" stroke-miterlimit="10" stroke-width="1.5"/>
          </g>
          <g id="g4546" transform="translate(2.263 30.669)">
            <path id="path4548" d="M-150.968-158v3.527a2.68,2.68,0,0,1-2.68,2.679h-6.606a2.679,2.679,0,0,1-2.679-2.679v-12.447a1.176,1.176,0,0,1,.559-1l3.949-2.427a1.179,1.179,0,0,1,.616-.174h2.008a1.175,1.175,0,0,1,1.084.721l1.473,3.515" transform="translate(162.933 170.52)" fill="none" stroke="#000" stroke-linecap="round" stroke-linejoin="round" stroke-miterlimit="10" stroke-width="1.5"/>
          </g>
          <g id="g4550" transform="translate(10.377 41.118)">
            <path id="path4552" d="M0,0V4.842" fill="none" stroke="#000" stroke-linecap="round" stroke-linejoin="round" stroke-miterlimit="10" stroke-width="1.5"/>
          </g>
          <g id="g4554" transform="translate(10.377 34.905)">
            <path id="path4556" d="M-48.589,0h-3.069a.782.782,0,0,0-.782.782v7.5h6.689" transform="translate(52.44)" fill="none" stroke="#000" stroke-linecap="round" stroke-linejoin="round" stroke-miterlimit="10" stroke-width="1.5"/>
          </g>
          <g id="g4558" transform="translate(43.184 36.68)">
            <path id="path4560" d="M-59.106,0h-1.606a1.174,1.174,0,0,0-1.057.663l-1.9,3.937a1.175,1.175,0,0,0-.117.511v7.605h2.005" transform="translate(63.791)" fill="none" stroke="#000" stroke-linecap="round" stroke-linejoin="round" stroke-miterlimit="10" stroke-width="1.5"/>
          </g>
          <g id="g4562" transform="translate(35.903 43.191)">
            <path id="path4564" d="M-150.968-23.638v1.653a2.679,2.679,0,0,1-2.679,2.679h-6.606a2.68,2.68,0,0,1-2.68-2.68v-3.526" transform="translate(162.933 25.512)" fill="none" stroke="#000" stroke-linecap="round" stroke-linejoin="round" stroke-miterlimit="10" stroke-width="1.5"/>
          </g>
          <g id="g4566" transform="translate(38.18 30.669)">
            <path id="path4568" d="M0-53.444l1.473-3.515a1.175,1.175,0,0,1,1.084-.721H4.565a1.179,1.179,0,0,1,.616.174l3.949,2.427a1.176,1.176,0,0,1,.559,1v7.323" transform="translate(0 57.68)" fill="none" stroke="#000" stroke-linecap="round" stroke-linejoin="round" stroke-miterlimit="10" stroke-width="1.5"/>
          </g>
          <g id="g4570" transform="translate(39.754 41.118)">
            <path id="path4572" d="M0,0V4.842" fill="none" stroke="#000" stroke-linecap="round" stroke-linejoin="round" stroke-miterlimit="10" stroke-width="1.5"/>
          </g>
          <g id="g4574" transform="translate(33.065 34.905)">
            <path id="path4576" d="M-35.815,0h3.069a.782.782,0,0,1,.782.782v7.5h-6.689" transform="translate(38.653)" fill="none" stroke="#000" stroke-linecap="round" stroke-linejoin="round" stroke-miterlimit="10" stroke-width="1.5"/>
          </g>
          <g id="g4578" transform="translate(9.815 21.387)">
            <path id="path4580" d="M-91.489-170.565l-7.15-10.728a.607.607,0,0,1,.168-.84l2.773-1.848a.6.6,0,0,1,.84.168l5.049,7.576" transform="translate(98.74 184.083)" fill="none" stroke="#000" stroke-linecap="round" stroke-linejoin="round" stroke-miterlimit="10" stroke-width="1.5"/>
          </g>
          <g id="g4582" transform="translate(8.608 18.911)">
            <path id="path4584" d="M-10.611-3l-.21.14A1.415,1.415,0,0,0-11.215-.9l1.343,2.015,2.566-1.71L-8.648-2.607A1.415,1.415,0,0,0-10.611-3Z" transform="translate(11.452 3.238)" fill="none" stroke="#000" stroke-linecap="round" stroke-linejoin="round" stroke-miterlimit="10" stroke-width="1.5"/>
          </g>
          <g id="g4586" transform="translate(31.384 21.387)">
            <path id="path4588" d="M0-99l5.048-7.575a.606.606,0,0,1,.841-.168l2.773,1.848a.605.605,0,0,1,.167.84L1.681-93.325" transform="translate(0 106.843)" fill="none" stroke="#000" stroke-linecap="round" stroke-linejoin="round" stroke-miterlimit="10" stroke-width="1.5"/>
          </g>
          <g id="g4590" transform="translate(37.376 18.911)">
            <path id="path4592" d="M-41.711-3l.21.14A1.415,1.415,0,0,1-41.108-.9l-1.343,2.015-2.566-1.71,1.343-2.015A1.415,1.415,0,0,1-41.711-3Z" transform="translate(45.017 3.238)" fill="none" stroke="#000" stroke-linecap="round" stroke-linejoin="round" stroke-miterlimit="10" stroke-width="1.5"/>
          </g>
          <g id="g4594" transform="translate(35.257 2.77)">
            <path id="path4596" d="M0,0A5.691,5.691,0,0,1,5.2,5.671V16.281" fill="none" stroke="#000" stroke-linecap="round" stroke-linejoin="round" stroke-miterlimit="10" stroke-width="1.5"/>
          </g>
          <g id="g4598" transform="translate(9.344 2.749)">
            <path id="path4600" d="M0-207.81v-10.778a5.692,5.692,0,0,1,5.692-5.692H9" transform="translate(0 224.279)" fill="none" stroke="#000" stroke-linecap="round" stroke-linejoin="round" stroke-miterlimit="10" stroke-width="1.5"/>
          </g>
          <g id="g4602" transform="translate(18.341 0.734)">
            <path id="path4604" d="M-154.762-52.037h-11.083a1.183,1.183,0,0,1-1.183-1.183v-1.759a1.183,1.183,0,0,1,1.183-1.183h11.083a1.183,1.183,0,0,1,1.183,1.183v1.759A1.183,1.183,0,0,1-154.762-52.037Z" transform="translate(167.028 56.161)" fill="none" stroke="#000" stroke-linecap="round" stroke-linejoin="round" stroke-miterlimit="10" stroke-width="1.5"/>
          </g>
        </g>
      </g>
    </g>
  </g>
</svg>
