<svg xmlns="http://www.w3.org/2000/svg" xmlns:xlink="http://www.w3.org/1999/xlink" width="110" height="110" viewBox="0 0 110 110">
  <defs>
    <clipPath id="clip-path">
      <rect id="Rectángulo_407425" data-name="Rectángulo 407425" width="110" height="110" transform="translate(800.781 1960)" fill="#37a2e4" opacity="0.47"/>
    </clipPath>
    <filter id="Trazado_1048836" x="5" y="-4.866" width="90.453" height="115.636" filterUnits="userSpaceOnUse">
      <feOffset dy="3" input="SourceAlpha"/>
      <feGaussianBlur stdDeviation="3" result="blur"/>
      <feFlood flood-opacity="0.161"/>
      <feComposite operator="in" in2="blur"/>
      <feComposite in="SourceGraphic"/>
    </filter>
  </defs>
  <g id="Enmascarar_grupo_1098953" data-name="Enmascarar grupo 1098953" transform="translate(-800.781 -1960)" clip-path="url(#clip-path)">
    <g id="Grupo_1181749" data-name="Grupo 1181749" transform="translate(-1 -1)">
      <g id="Grupo_1181747" data-name="Grupo 1181747" transform="translate(815.781 1961)">
        <g id="Grupo_1181746" data-name="Grupo 1181746" transform="translate(0 0)">
          <path id="Trazado_1048835" data-name="Trazado 1048835" d="M127.429,109.916c-22.489,0-40.784-16.31-40.784-36.359S124.352,2.836,125.959.662a1.964,1.964,0,0,1,2.941,0c1.607,2.173,39.31,53.434,39.31,72.895s-18.3,36.359-40.784,36.359Z" transform="translate(-86.645 0)" fill="#2da8f9"/>
          <g transform="matrix(1, 0, 0, 1, -14, 0)" filter="url(#Trazado_1048836)">
            <path id="Trazado_1048836-2" data-name="Trazado 1048836" d="M122.873,97.636c-19.977,0-36.228-14.488-36.228-32.3S120.139,2.519,121.567.588a1.745,1.745,0,0,1,2.613,0C125.607,2.519,159.1,48.053,159.1,65.34s-16.252,32.3-36.228,32.3Z" transform="translate(-72.64 1.13)" fill="#2cfefa" opacity="0.9"/>
          </g>
        </g>
      </g>
      <g id="water-level_11531056" transform="translate(752.574 1988.468)">
        <path id="Trazado_1048907" data-name="Trazado 1048907" d="M122.824,51.29V8.6a1.1,1.1,0,0,0-1.1-1.1H86.258a1.1,1.1,0,0,0-1.1,1.1V51.29l18.834,2.439Z" transform="translate(-0.001 0)" fill="#c8effe"/>
        <path id="Trazado_1048908" data-name="Trazado 1048908" d="M407.946,7.5h-1.1V51.576l2.2-.286V8.6A1.1,1.1,0,0,0,407.946,7.5Z" transform="translate(-286.226 0)" fill="#99e6fc"/>
        <path id="Trazado_1048909" data-name="Trazado 1048909" d="M110.839,396.883c-3.424,0-3.424-1.1-6.849-1.1s-3.424,1.1-6.849,1.1-3.424-1.1-6.849-1.1c-2.733,0-3.285.7-5.137.986v9.9a1.1,1.1,0,0,0,1.1,1.1h35.463a1.1,1.1,0,0,0,1.1-1.1v-9.9c-1.852-.284-2.4-.986-5.137-.986C114.263,395.781,114.263,396.883,110.839,396.883Z" transform="translate(-0.001 -345.476)" fill="#62dbfb"/>
        <path id="Trazado_1048910" data-name="Trazado 1048910" d="M120.619,399.376v8.282a1.1,1.1,0,0,1-1.1,1.1H85.156v1.1a1.1,1.1,0,0,0,1.1,1.1h35.463a1.1,1.1,0,0,0,1.1-1.1v-9.9A14.158,14.158,0,0,1,120.619,399.376Z" transform="translate(-0.001 -348.675)" fill="#01d0fb"/>
        <path id="Trazado_1048911" data-name="Trazado 1048911" d="M187.99,169.958l-7.2,12.478a1.1,1.1,0,0,0,.955,1.654h14.408a1.1,1.1,0,0,0,.955-1.654l-7.2-12.478A1.1,1.1,0,0,0,187.99,169.958Z" transform="translate(-84.955 -144.058)" fill="#ffe177"/>
        <path id="Trazado_1048912" data-name="Trazado 1048912" d="M197.1,182.435l-7.2-12.478a1.1,1.1,0,0,0-1.878-.052l6.216,10.766a1.1,1.1,0,0,1-.955,1.654H180.849l-.064.11a1.1,1.1,0,0,0,.955,1.654h14.408A1.1,1.1,0,0,0,197.1,182.435Z" transform="translate(-84.955 -144.057)" fill="#ffd15b"/>
        <line id="Línea_599" data-name="Línea 599" x2="3.424" transform="translate(88.58 14.349)" fill="none" stroke="#000" stroke-linecap="round" stroke-linejoin="round" stroke-miterlimit="10" stroke-width="2"/>
        <line id="Línea_600" data-name="Línea 600" x2="1.712" transform="translate(88.58 19.485)" fill="none" stroke="#000" stroke-linecap="round" stroke-linejoin="round" stroke-miterlimit="10" stroke-width="2"/>
        <line id="Línea_601" data-name="Línea 601" x2="3.424" transform="translate(88.58 24.622)" fill="none" stroke="#000" stroke-linecap="round" stroke-linejoin="round" stroke-miterlimit="10" stroke-width="2"/>
        <line id="Línea_602" data-name="Línea 602" x2="1.712" transform="translate(88.58 29.758)" fill="none" stroke="#000" stroke-linecap="round" stroke-linejoin="round" stroke-miterlimit="10" stroke-width="2"/>
        <line id="Línea_603" data-name="Línea 603" x2="3.424" transform="translate(88.58 34.895)" fill="none" stroke="#000" stroke-linecap="round" stroke-linejoin="round" stroke-miterlimit="10" stroke-width="2"/>
        <line id="Línea_604" data-name="Línea 604" x2="1.712" transform="translate(88.58 40.032)" fill="none" stroke="#000" stroke-linecap="round" stroke-linejoin="round" stroke-miterlimit="10" stroke-width="2"/>
        <line id="Línea_605" data-name="Línea 605" x2="3.424" transform="translate(88.58 45.168)" fill="none" stroke="#000" stroke-linecap="round" stroke-linejoin="round" stroke-miterlimit="10" stroke-width="2"/>
        <line id="Línea_606" data-name="Línea 606" x2="3.424" transform="translate(88.58 55.441)" fill="none" stroke="#000" stroke-linecap="round" stroke-linejoin="round" stroke-miterlimit="10" stroke-width="2"/>
        <line id="Línea_607" data-name="Línea 607" y2="28.057" transform="translate(85.155 23.234)" fill="none" stroke="#000" stroke-linecap="round" stroke-linejoin="round" stroke-miterlimit="10" stroke-width="2"/>
        <path id="Trazado_1048913" data-name="Trazado 1048913" d="M122.824,51.29V8.6a1.1,1.1,0,0,0-1.1-1.1H86.258a1.1,1.1,0,0,0-1.1,1.1V19.485" transform="translate(-0.001 0)" fill="none" stroke="#000" stroke-linecap="round" stroke-linejoin="round" stroke-miterlimit="10" stroke-width="2"/>
        <path id="Trazado_1048914" data-name="Trazado 1048914" d="M97.574,407.766h24.146a1.1,1.1,0,0,0,1.1-1.1v-9.9c-1.852-.284-2.4-.986-5.137-.986-3.424,0-3.424,1.1-6.848,1.1s-3.424-1.1-6.849-1.1-3.424,1.1-6.849,1.1-3.424-1.1-6.849-1.1c-2.733,0-3.285.7-5.137.986v9.9a1.1,1.1,0,0,0,1.1,1.1h7.458" transform="translate(0 -345.476)" fill="none" stroke="#000" stroke-linecap="round" stroke-linejoin="round" stroke-miterlimit="10" stroke-width="2"/>
        <path id="Trazado_1048915" data-name="Trazado 1048915" d="M193.671,176.492l-3.773-6.535a1.1,1.1,0,0,0-1.909,0l-7.2,12.478a1.1,1.1,0,0,0,.955,1.654h14.408a1.1,1.1,0,0,0,.955-1.654l-1.489-2.579" transform="translate(-84.954 -144.057)" fill="none" stroke="#000" stroke-linecap="round" stroke-linejoin="round" stroke-miterlimit="10" stroke-width="2"/>
        <g id="Grupo_1181772" data-name="Grupo 1181772" transform="translate(103.989 36.607)">
          <g id="Grupo_1181771" data-name="Grupo 1181771">
            <line id="Línea_608" data-name="Línea 608" fill="none" stroke="#000" stroke-linecap="round" stroke-linejoin="round" stroke-miterlimit="10" stroke-width="2"/>
          </g>
        </g>
        <line id="Línea_609" data-name="Línea 609" y1="1.712" transform="translate(103.989 31.471)" fill="none" stroke="#000" stroke-linecap="round" stroke-linejoin="round" stroke-miterlimit="10" stroke-width="2"/>
        <path id="Trazado_1048916" data-name="Trazado 1048916" d="M269.7,442.375c-3.424,0-3.424,1.1-6.848,1.1s-3.424-1.1-6.849-1.1" transform="translate(-152.014 -386.934)" fill="none" stroke="#000" stroke-linecap="round" stroke-linejoin="round" stroke-miterlimit="10" stroke-width="2"/>
      </g>
    </g>
  </g>
</svg>
