<svg xmlns="http://www.w3.org/2000/svg" xmlns:xlink="http://www.w3.org/1999/xlink" width="98" height="98" viewBox="0 0 98 98">
  <defs>
    <filter id="Trazado_874925" x="0" y="0" width="98" height="98" filterUnits="userSpaceOnUse">
      <feOffset dy="3" input="SourceAlpha"/>
      <feGaussianBlur stdDeviation="3" result="blur"/>
      <feFlood flood-opacity="0.161"/>
      <feComposite operator="in" in2="blur"/>
      <feComposite in="SourceGraphic"/>
    </filter>
  </defs>
  <g id="Grupo_1181886" data-name="Grupo 1181886" transform="translate(-276 -6091.407)">
    <g id="Grupo_1111314" data-name="Grupo 1111314" transform="translate(-734.73 3020.407)">
      <g transform="matrix(1, 0, 0, 1, 1010.73, 3071)" filter="url(#Trazado_874925)">
        <g id="Trazado_874925-2" data-name="Trazado 874925" transform="translate(9 6)" fill="#ffd63c">
          <path d="M 39.99997329711914 78.50040435791016 C 34.80184936523438 78.50040435791016 29.76000595092773 77.48268127441406 25.01450729370117 75.47550201416016 C 20.43013954162598 73.53648376464844 16.3126392364502 70.76027679443359 12.7763843536377 67.22402191162109 C 9.240128517150879 63.68776702880859 6.463928699493408 59.57027053833008 4.524906635284424 54.98590087890625 C 2.517728805541992 50.24040222167969 1.500006675720215 45.19855880737305 1.500006675720215 40.00043487548828 C 1.500006675720215 34.80185699462891 2.517728805541992 29.76001358032227 4.524906635284424 25.01451301574707 C 6.463928699493408 20.43013572692871 9.240128517150879 16.31263542175293 12.7763843536377 12.77637958526611 C 16.3126392364502 9.240124702453613 20.43013954162598 6.463935375213623 25.01450729370117 4.52490234375 C 29.76000595092773 2.517724514007568 34.80184936523438 1.500002145767212 39.99997329711914 1.500002145767212 C 45.19809722900391 1.500002145767212 50.23994064331055 2.517724514007568 54.98543930053711 4.52490234375 C 59.56981658935547 6.463935375213623 63.68731689453125 9.240124702453613 67.22357177734375 12.77637958526611 C 70.75982666015625 16.31263542175293 73.53601837158203 20.43013572692871 75.47505187988281 25.01451301574707 C 77.48223114013672 29.76001358032227 78.49995422363281 34.80185699462891 78.49995422363281 39.99998092651367 C 78.49995422363281 45.19855880737305 77.48223114013672 50.24040222167969 75.47505187988281 54.98590087890625 C 73.53601837158203 59.57027053833008 70.75982666015625 63.68776702880859 67.22357177734375 67.22402191162109 C 63.68731689453125 70.76027679443359 59.56981658935547 73.53648376464844 54.98543930053711 75.47550201416016 C 50.23994064331055 77.48268127441406 45.19809722900391 78.50040435791016 39.99997329711914 78.50040435791016 Z" stroke="none"/>
          <path d="M 39.99997329711914 3 C 35.00369262695312 3 30.15843963623047 3.977851867675781 25.59883880615234 5.906417846679688 C 21.19326782226562 7.769813537597656 17.23602676391602 10.43805694580078 13.83704376220703 13.83704376220703 C 10.43805694580078 17.23601531982422 7.769813537597656 21.19325637817383 5.906410217285156 25.59882736206055 C 3.977851867675781 30.15844345092773 3 35.00368118286133 3 40.00042724609375 C 3 44.99672317504883 3.977851867675781 49.84196472167969 5.906410217285156 54.40157318115234 C 7.769813537597656 58.80714797973633 10.43805694580078 62.76438903808594 13.83704376220703 66.16336059570312 C 17.23602676391602 69.56234741210938 21.19326782226562 72.2305908203125 25.59883880615234 74.09398651123047 C 30.15843963623047 76.02255249023438 35.00369262695312 77.00040435791016 39.99997329711914 77.00040435791016 C 44.99625396728516 77.00040435791016 49.84150695800781 76.02255249023438 54.40110778808594 74.09398651123047 C 58.80667877197266 72.2305908203125 62.76391983032227 69.56234741210938 66.16290283203125 66.16336059570312 C 69.5618896484375 62.76438903808594 72.23013305664062 58.80714797973633 74.09353637695312 54.40157318115234 C 76.0220947265625 49.84196472167969 76.99994659423828 44.99672317504883 76.99994659423828 39.99997711181641 C 76.99994659423828 35.00368118286133 76.0220947265625 30.15844345092773 74.09353637695312 25.59882736206055 C 72.23013305664062 21.19325637817383 69.5618896484375 17.23601531982422 66.16290283203125 13.83704376220703 C 62.76391983032227 10.43805694580078 58.80667877197266 7.769813537597656 54.40110778808594 5.906417846679688 C 49.84150695800781 3.977851867675781 44.99625396728516 3 39.99997329711914 3 M 39.99997329711914 0 C 62.09134674072266 0 79.99994659423828 17.90858840942383 79.99994659423828 39.99997711181641 L 79.99994659423828 40.00042724609375 C 79.99994659423828 62.09181594848633 62.09134674072266 80.00040435791016 39.99997329711914 80.00040435791016 C 17.90859985351562 80.00040435791016 0 62.09181594848633 0 40.00042724609375 L 0 39.99997711181641 C 0 17.90858840942383 17.90859985351562 0 39.99997329711914 0 Z" stroke="none" fill="#fff"/>
        </g>
      </g>
    </g>
    <g id="guantes-de-limpieza" transform="translate(279.76 6112.227)">
      <path id="Trazado_1049176" data-name="Trazado 1049176" d="M285.45,31.385,291.4,21.074a.807.807,0,0,0-.3-1.1,3.009,3.009,0,0,0-4.109,1.1l-.641,1.11V11.736a1.949,1.949,0,0,0-1.944-1.957,1.908,1.908,0,0,0-1.871,1.907V9.458A1.948,1.948,0,0,0,280.6,7.5a1.908,1.908,0,0,0-1.871,1.907v2.278a1.908,1.908,0,0,0-1.871-1.907,1.948,1.948,0,0,0-1.944,1.957v2.5a1.908,1.908,0,0,0-1.871-1.907,1.949,1.949,0,0,0-1.944,1.957V27.774a7.6,7.6,0,0,0,1.22,4.14,2.476,2.476,0,0,1,.394,1.595l-2,19.715a.4.4,0,0,0,.4.445h3.243a2.129,2.129,0,0,1,1.926,1.178,2.718,2.718,0,0,0,4.9,0A2.129,2.129,0,0,1,283.1,53.67h3.243a.4.4,0,0,0,.4-.445l-2-19.724a2.42,2.42,0,0,1,.377-1.566q.174-.267.326-.549Z" transform="translate(-224.017 -6.763)" fill="#37a2e4"/>
      <path id="Trazado_1049177" data-name="Trazado 1049177" d="M35.812,31.385,29.859,21.073a.807.807,0,0,1,.3-1.1,3.009,3.009,0,0,1,4.11,1.1l.641,1.11V11.735a1.948,1.948,0,0,1,1.944-1.957,1.908,1.908,0,0,1,1.871,1.907V9.457A1.948,1.948,0,0,1,40.665,7.5a1.908,1.908,0,0,1,1.871,1.907v2.278a1.908,1.908,0,0,1,1.871-1.907,1.948,1.948,0,0,1,1.944,1.957v2.5a1.908,1.908,0,0,1,1.871-1.907,1.949,1.949,0,0,1,1.944,1.957V27.773a7.6,7.6,0,0,1-1.22,4.14,2.476,2.476,0,0,0-.394,1.595l2,19.715a.4.4,0,0,1-.4.445H46.911a2.129,2.129,0,0,0-1.926,1.178,2.718,2.718,0,0,1-4.9,0,2.129,2.129,0,0,0-1.926-1.178H34.917a.4.4,0,0,1-.4-.445l2-19.724a2.42,2.42,0,0,0-.377-1.566q-.174-.267-.326-.549Z" transform="translate(-6.765 -6.762)" fill="#37a2e4"/>
      <path id="Trazado_1049178" data-name="Trazado 1049178" d="M333.623,142.009l5.953-10.312a.807.807,0,0,0-.3-1.1,3.009,3.009,0,0,0-4.077,1.047l-4.849,8.4q-.147.272-.314.531a2.436,2.436,0,0,0-.39,1.57l1.721,16.974a2.916,2.916,0,0,1-2.9,3.21h-.464a2.128,2.128,0,0,0-1.926,1.178A2.721,2.721,0,0,1,324.132,165a2.011,2.011,0,0,1,.319.475,2.718,2.718,0,0,0,4.9,0,2.129,2.129,0,0,1,1.926-1.178h3.243a.4.4,0,0,0,.4-.445l-2-19.724a2.421,2.421,0,0,1,.377-1.566Q333.471,142.291,333.623,142.009Z" transform="translate(-272.191 -117.386)" fill="#2c82b7"/>
      <path id="Trazado_1049179" data-name="Trazado 1049179" d="M137.114,70.053a7.6,7.6,0,0,1-1.22,4.14,2.476,2.476,0,0,0-.394,1.595l1.723,16.95a2.916,2.916,0,0,1-2.9,3.211h-.464a2.128,2.128,0,0,0-1.926,1.178,2.725,2.725,0,0,1-1.515,1.374,2.018,2.018,0,0,1,.435.593,2.718,2.718,0,0,0,4.9,0,2.129,2.129,0,0,1,1.926-1.178h3.243a.4.4,0,0,0,.4-.445l-2-19.715a2.476,2.476,0,0,1,.394-1.595,7.6,7.6,0,0,0,1.22-4.14V58.531a1.948,1.948,0,0,0-1.944-1.957,1.908,1.908,0,0,0-1.871,1.907Z" transform="translate(-97.53 -51.009)" fill="#2c82b7"/>
      <circle id="Elipse_12064" data-name="Elipse 12064" cx="0.738" cy="0.738" r="0.738" transform="translate(53.971 46.204)"/>
      <path id="Trazado_1049180" data-name="Trazado 1049180" d="M279.334,24.982l5.948-10.3a1.545,1.545,0,0,0-.566-2.11,3.754,3.754,0,0,0-4.381.462V4.974a2.686,2.686,0,0,0-2.7-2.695,2.613,2.613,0,0,0-1.124.277,2.737,2.737,0,0,0-.813-1.8A2.6,2.6,0,0,0,273.823,0a2.659,2.659,0,0,0-2.593,2.554,2.612,2.612,0,0,0-1.169-.277,2.688,2.688,0,0,0-2.648,2.7V5.1a2.613,2.613,0,0,0-1.166-.275,2.688,2.688,0,0,0-2.649,2.7v7.9a.738.738,0,1,0,1.475,0v-7.9a1.211,1.211,0,0,1,1.193-1.22,1.175,1.175,0,0,1,1.147,1.17V11.5a.738.738,0,1,0,1.475,0V4.974a1.211,1.211,0,0,1,1.193-1.22,1.175,1.175,0,0,1,1.147,1.17V11.5a.738.738,0,0,0,1.475,0V2.646a1.176,1.176,0,0,1,1.147-1.17,1.211,1.211,0,0,1,1.193,1.22V11.5a.738.738,0,1,0,1.475,0V4.924a1.175,1.175,0,0,1,1.147-1.17,1.211,1.211,0,0,1,1.193,1.22V15.221l-.527.912A3.978,3.978,0,0,0,274.2,22.7a.738.738,0,1,0,1.043-1.043,2.5,2.5,0,0,1,3.022-3.935.738.738,0,0,0,1.009-.269l1.6-2.77a2.274,2.274,0,0,1,3.1-.832.068.068,0,0,1,.032.042.066.066,0,0,1-.007.052c-.006.01-6.158,10.677-6.263,10.833a6.969,6.969,0,0,1-2.2,2.132.738.738,0,1,0,.766,1.261,8.367,8.367,0,0,0,1.011-.724l1.9,18.724h-2.874a2.876,2.876,0,0,0-2.591,1.6,1.98,1.98,0,0,1-3.568,0,2.876,2.876,0,0,0-2.591-1.6h-2.874l1.9-18.719a8.485,8.485,0,0,0,.7.52.738.738,0,1,0,.821-1.226,6.885,6.885,0,0,1-3.064-5.733V18.862a.738.738,0,1,0-1.475,0v2.151a8.339,8.339,0,0,0,1.338,4.541,1.747,1.747,0,0,1,.28,1.119l-2,19.715a1.142,1.142,0,0,0,1.136,1.257h3.243a1.393,1.393,0,0,1,1.262.76,3.455,3.455,0,0,0,6.227,0,1.393,1.393,0,0,1,1.262-.76h3.243a1.142,1.142,0,0,0,1.136-1.257l-2-19.724a1.688,1.688,0,0,1,.261-1.089c.125-.192.244-.392.352-.592Z" transform="translate(-217.257)"/>
      <circle id="Elipse_12065" data-name="Elipse 12065" cx="0.738" cy="0.738" r="0.738" transform="translate(35.033 46.204)"/>
      <path id="Trazado_1049181" data-name="Trazado 1049181" d="M29.02,33.938a.738.738,0,0,0-.808.66l-1.2,11.792a1.142,1.142,0,0,0,1.136,1.257H31.4a1.393,1.393,0,0,1,1.262.76,3.455,3.455,0,0,0,6.227,0,1.393,1.393,0,0,1,1.262-.76h3.243a1.142,1.142,0,0,0,1.136-1.257l-2-19.715a1.746,1.746,0,0,1,.28-1.119l0-.005a8.339,8.339,0,0,0,1.335-4.535V7.524a2.686,2.686,0,0,0-2.7-2.695,2.611,2.611,0,0,0-1.12.275V4.975a2.686,2.686,0,0,0-2.7-2.695,2.612,2.612,0,0,0-1.121.276,2.644,2.644,0,0,0-5.286,0A2.613,2.613,0,0,0,30.1,2.281a2.686,2.686,0,0,0-2.7,2.695v8.059a3.754,3.754,0,0,0-4.381-.462,1.545,1.545,0,0,0-.566,2.11l5.948,10.3c.108.2.227.4.352.592a1.688,1.688,0,0,1,.261,1.089l-.453,4.469a.738.738,0,0,0,1.468.149l.389-3.836a8.351,8.351,0,0,0,1.011.724.738.738,0,0,0,.766-1.261,6.952,6.952,0,0,1-2.5-2.634L23.733,13.944a.066.066,0,0,1-.007-.052.068.068,0,0,1,.032-.042,2.274,2.274,0,0,1,3.1.832l.641,1.11.022.035.939,1.625a.738.738,0,0,0,1.009.269,2.5,2.5,0,0,1,3.022,3.935A.738.738,0,1,0,33.536,22.7a3.978,3.978,0,0,0-4.131-6.565l-.527-.912V4.975a1.213,1.213,0,0,1,1.172-1.22,1.175,1.175,0,0,1,1.168,1.17V11.5a.738.738,0,0,0,1.475,0V2.7a1.211,1.211,0,0,1,1.193-1.22,1.176,1.176,0,0,1,1.147,1.17V11.5a.738.738,0,0,0,1.475,0V4.925a1.175,1.175,0,0,1,1.147-1.17,1.211,1.211,0,0,1,1.193,1.22V11.5a.738.738,0,1,0,1.475,0V7.474A1.175,1.175,0,0,1,41.472,6.3a1.211,1.211,0,0,1,1.193,1.22V21.013A6.886,6.886,0,0,1,39.6,26.746a.738.738,0,1,0,.821,1.226,8.467,8.467,0,0,0,.7-.52l1.9,18.719H40.146a2.876,2.876,0,0,0-2.591,1.6,1.98,1.98,0,0,1-3.568,0,2.876,2.876,0,0,0-2.591-1.6H28.521L29.68,34.746a.738.738,0,0,0-.66-.808Z" transform="translate(0 -0.001)"/>
    </g>
  </g>
</svg>
