<svg xmlns="http://www.w3.org/2000/svg" xmlns:xlink="http://www.w3.org/1999/xlink" width="98" height="98" viewBox="0 0 98 98">
  <defs>
    <filter id="Trazado_874925" x="0" y="0" width="98" height="98" filterUnits="userSpaceOnUse">
      <feOffset dy="3" input="SourceAlpha"/>
      <feGaussianBlur stdDeviation="3" result="blur"/>
      <feFlood flood-opacity="0.161"/>
      <feComposite operator="in" in2="blur"/>
      <feComposite in="SourceGraphic"/>
    </filter>
  </defs>
  <g id="Grupo_1181887" data-name="Grupo 1181887" transform="translate(-276 -6091.407)">
    <g id="Grupo_1111314" data-name="Grupo 1111314" transform="translate(-734.73 3020.407)">
      <g transform="matrix(1, 0, 0, 1, 1010.73, 3071)" filter="url(#Trazado_874925)">
        <g id="Trazado_874925-2" data-name="Trazado 874925" transform="translate(9 6)" fill="#ffd63c">
          <path d="M 39.99997329711914 78.50040435791016 C 34.80184936523438 78.50040435791016 29.76000595092773 77.48268127441406 25.01450729370117 75.47550201416016 C 20.43013954162598 73.53648376464844 16.3126392364502 70.76027679443359 12.7763843536377 67.22402191162109 C 9.240128517150879 63.68776702880859 6.463928699493408 59.57027053833008 4.524906635284424 54.98590087890625 C 2.517728805541992 50.24040222167969 1.500006675720215 45.19855880737305 1.500006675720215 40.00043487548828 C 1.500006675720215 34.80185699462891 2.517728805541992 29.76001358032227 4.524906635284424 25.01451301574707 C 6.463928699493408 20.43013572692871 9.240128517150879 16.31263542175293 12.7763843536377 12.77637958526611 C 16.3126392364502 9.240124702453613 20.43013954162598 6.463935375213623 25.01450729370117 4.52490234375 C 29.76000595092773 2.517724514007568 34.80184936523438 1.500002145767212 39.99997329711914 1.500002145767212 C 45.19809722900391 1.500002145767212 50.23994064331055 2.517724514007568 54.98543930053711 4.52490234375 C 59.56981658935547 6.463935375213623 63.68731689453125 9.240124702453613 67.22357177734375 12.77637958526611 C 70.75982666015625 16.31263542175293 73.53601837158203 20.43013572692871 75.47505187988281 25.01451301574707 C 77.48223114013672 29.76001358032227 78.49995422363281 34.80185699462891 78.49995422363281 39.99998092651367 C 78.49995422363281 45.19855880737305 77.48223114013672 50.24040222167969 75.47505187988281 54.98590087890625 C 73.53601837158203 59.57027053833008 70.75982666015625 63.68776702880859 67.22357177734375 67.22402191162109 C 63.68731689453125 70.76027679443359 59.56981658935547 73.53648376464844 54.98543930053711 75.47550201416016 C 50.23994064331055 77.48268127441406 45.19809722900391 78.50040435791016 39.99997329711914 78.50040435791016 Z" stroke="none"/>
          <path d="M 39.99997329711914 3 C 35.00369262695312 3 30.15843963623047 3.977851867675781 25.59883880615234 5.906417846679688 C 21.19326782226562 7.769813537597656 17.23602676391602 10.43805694580078 13.83704376220703 13.83704376220703 C 10.43805694580078 17.23601531982422 7.769813537597656 21.19325637817383 5.906410217285156 25.59882736206055 C 3.977851867675781 30.15844345092773 3 35.00368118286133 3 40.00042724609375 C 3 44.99672317504883 3.977851867675781 49.84196472167969 5.906410217285156 54.40157318115234 C 7.769813537597656 58.80714797973633 10.43805694580078 62.76438903808594 13.83704376220703 66.16336059570312 C 17.23602676391602 69.56234741210938 21.19326782226562 72.2305908203125 25.59883880615234 74.09398651123047 C 30.15843963623047 76.02255249023438 35.00369262695312 77.00040435791016 39.99997329711914 77.00040435791016 C 44.99625396728516 77.00040435791016 49.84150695800781 76.02255249023438 54.40110778808594 74.09398651123047 C 58.80667877197266 72.2305908203125 62.76391983032227 69.56234741210938 66.16290283203125 66.16336059570312 C 69.5618896484375 62.76438903808594 72.23013305664062 58.80714797973633 74.09353637695312 54.40157318115234 C 76.0220947265625 49.84196472167969 76.99994659423828 44.99672317504883 76.99994659423828 39.99997711181641 C 76.99994659423828 35.00368118286133 76.0220947265625 30.15844345092773 74.09353637695312 25.59882736206055 C 72.23013305664062 21.19325637817383 69.5618896484375 17.23601531982422 66.16290283203125 13.83704376220703 C 62.76391983032227 10.43805694580078 58.80667877197266 7.769813537597656 54.40110778808594 5.906417846679688 C 49.84150695800781 3.977851867675781 44.99625396728516 3 39.99997329711914 3 M 39.99997329711914 0 C 62.09134674072266 0 79.99994659423828 17.90858840942383 79.99994659423828 39.99997711181641 L 79.99994659423828 40.00042724609375 C 79.99994659423828 62.09181594848633 62.09134674072266 80.00040435791016 39.99997329711914 80.00040435791016 C 17.90859985351562 80.00040435791016 0 62.09181594848633 0 40.00042724609375 L 0 39.99997711181641 C 0 17.90858840942383 17.90859985351562 0 39.99997329711914 0 Z" stroke="none" fill="#fff"/>
        </g>
      </g>
    </g>
    <g id="bota" transform="translate(299.448 6110.966)">
      <path id="Trazado_1049182" data-name="Trazado 1049182" d="M3,18.666v-5.11A2.555,2.555,0,0,1,5.555,11h9.369v8.517H3.852Z" transform="translate(-0.445 -0.742)" fill="#596466"/>
      <path id="Trazado_1049183" data-name="Trazado 1049183" d="M49.688,38.2s-1.695,4.574-14.471,4.574H2V38.514c0-3.407.852-7.666.852-11.924V18.072h9.369a1.708,1.708,0,0,0,1.7-1.7V8.618a1.307,1.307,0,0,1,.86-1.235A7.4,7.4,0,0,1,17.331,7a7.4,7.4,0,0,1,2.547.383,1.307,1.307,0,0,1,.86,1.235V8.7a22.647,22.647,0,0,0,.17,2.76c.06.571.153,1.133.264,1.686.119.622.264,1.235.443,1.84.145.554.324,1.09.52,1.618v.009c.221.6.46,1.184.732,1.755.238.52.494,1.031.775,1.525.307.562.647,1.1,1.005,1.627.307.468.647.928,1.005,1.371a16.338,16.338,0,0,0,1.235,1.448A16.2,16.2,0,0,0,28.1,25.551a16.338,16.338,0,0,0,1.448,1.235c.443.358.9.7,1.371,1.014.528.349,1.065.69,1.627,1,.494.281,1.005.537,1.525.775.571.273,1.158.511,1.755.732.528.2,1.073.375,1.627.52a22.823,22.823,0,0,0,6.286.877h.6a5.017,5.017,0,0,1,4.736,3.262,10.321,10.321,0,0,1,.613,3.237Z" transform="translate(-0.297 -0.148)" fill="#b2790d"/>
      <path id="Trazado_1049184" data-name="Trazado 1049184" d="M50.4,44.129V46.7a1.243,1.243,0,0,1-.55,1.037C48.261,48.792,43.21,51.6,34.217,51.6c-6.814,0-11.924-2.555-17.886-2.555v1.7a.852.852,0,0,1-.852.852H1.852A.852.852,0,0,1,1,50.746V44.784a.852.852,0,0,1,.852-.852H16.331c6.814,0,10.221,2.555,17.886,2.555,8.943,0,13.568-1.916,15.331-2.87A.578.578,0,0,1,50.4,44.129Z" transform="translate(-0.148 -5.567)" fill="#596466"/>
      <path id="Trazado_1049185" data-name="Trazado 1049185" d="M50.395,37.325a1.444,1.444,0,0,0-.205-.088,11.2,11.2,0,0,0-.61-2.712A5.879,5.879,0,0,0,44.043,30.7h-.6A22.169,22.169,0,0,1,21.293,8.555V8.467a2.172,2.172,0,0,0-1.415-2.033A8.313,8.313,0,0,0,17.035,6a8.321,8.321,0,0,0-2.845.435,2.173,2.173,0,0,0-1.414,2.033v.939H5.11A3.41,3.41,0,0,0,1.7,12.814V26.441a62.221,62.221,0,0,1-.457,6.529c-.178,1.688-.34,3.286-.379,4.771A1.7,1.7,0,0,0,0,39.217v5.962a1.705,1.705,0,0,0,1.7,1.7H4.259a.852.852,0,1,0,0-1.7H1.7V39.217H16.183a32.561,32.561,0,0,1,8.189,1.2,38.069,38.069,0,0,0,9.7,1.358c8.36,0,13.077-1.64,15.331-2.763v2.123a.391.391,0,0,1-.169.328c-1.686,1.117-6.536,3.719-15.162,3.719A41.879,41.879,0,0,1,24.7,43.858a38.4,38.4,0,0,0-8.522-1.234.851.851,0,0,0-.852.852v1.7H7.666a.852.852,0,1,0,0,1.7h7.666a1.705,1.705,0,0,0,1.7-1.7v-.834a41.093,41.093,0,0,1,7.3,1.176,43.208,43.208,0,0,0,9.735,1.362c9.09,0,14.289-2.8,16.1-4a2.087,2.087,0,0,0,.931-1.747V38.562a1.439,1.439,0,0,0-.709-1.237ZM5.11,11.11h7.666v5.11a.852.852,0,0,1-.852.852H3.407V12.814A1.705,1.705,0,0,1,5.11,11.11Zm19.66,27.649a34.391,34.391,0,0,0-8.588-1.245H2.578c.049-1.347.2-2.817.363-4.364a63.631,63.631,0,0,0,.466-6.708V18.776h8.517a2.558,2.558,0,0,0,2.555-2.555V8.467a.457.457,0,0,1,.3-.434,6.586,6.586,0,0,1,2.256-.33,6.576,6.576,0,0,1,2.255.33.456.456,0,0,1,.3.434v.088a24,24,0,0,0,.181,2.891l-2.639.416a.852.852,0,0,0,.131,1.694.872.872,0,0,0,.133-.01l2.639-.416c.13.669.291,1.328.477,1.976l-2.539.825a.852.852,0,1,0,.526,1.62l2.534-.824c.234.64.5,1.267.787,1.881L19.44,19.823a.852.852,0,0,0,.775,1.518l2.378-1.215c.333.6.687,1.182,1.069,1.747L21.5,23.445a.851.851,0,0,0,1,1.377l2.17-1.577q.63.8,1.324,1.549l-1.9,1.9a.852.852,0,1,0,1.2,1.2L27.2,26q.745.7,1.549,1.324l-1.577,2.17a.852.852,0,0,0,1.378,1l1.572-2.164c.565.382,1.149.736,1.747,1.069l-1.215,2.378a.852.852,0,0,0,1.518.775l1.215-2.379c.614.287,1.239.552,1.881.787l-.824,2.534a.852.852,0,0,0,1.621.526l.825-2.539a23.76,23.76,0,0,0,6.551.922h.6a4.17,4.17,0,0,1,3.935,2.7,9.438,9.438,0,0,1,.526,2.444c-1.9.916-6.367,2.52-14.435,2.52a36.625,36.625,0,0,1-9.3-1.31Z" fill="#1e1e1e"/>
    </g>
  </g>
</svg>
