<svg xmlns="http://www.w3.org/2000/svg" xmlns:xlink="http://www.w3.org/1999/xlink" width="76" height="76" viewBox="0 0 76 76">
  <defs>
    <clipPath id="clip-path">
      <rect id="Rectángulo_407380" data-name="Rectángulo 407380" width="76" height="76" transform="translate(800.781 1959.725)" fill="#37a2e4" opacity="0.47"/>
    </clipPath>
    <filter id="Trazado_1048768" x="0.638" y="-4.944" width="67.877" height="85.213" filterUnits="userSpaceOnUse">
      <feOffset dy="3" input="SourceAlpha"/>
      <feGaussianBlur stdDeviation="3" result="blur"/>
      <feFlood flood-opacity="0.161"/>
      <feComposite operator="in" in2="blur"/>
      <feComposite in="SourceGraphic"/>
    </filter>
  </defs>
  <g id="Enmascarar_grupo_1098950" data-name="Enmascarar grupo 1098950" transform="translate(-800.781 -1959.725)" clip-path="url(#clip-path)">
    <g id="Grupo_1181708" data-name="Grupo 1181708" transform="translate(810.419 1960)">
      <g id="Grupo_1181706" data-name="Grupo 1181706" transform="translate(0 0)">
        <g id="Grupo_1181705" data-name="Grupo 1181705" transform="translate(0 0)">
          <path id="Trazado_1048767" data-name="Trazado 1048767" d="M114.721,75.667c-15.482,0-28.076-11.228-28.076-25.03S112.6,1.952,113.709.456a1.352,1.352,0,0,1,2.025,0C116.84,1.952,142.8,37.24,142.8,50.637s-12.595,25.03-28.076,25.03Z" transform="translate(-86.645 0)" fill="#2da8f9"/>
          <g transform="matrix(1, 0, 0, 1, -9.64, -0.28)" filter="url(#Trazado_1048768)">
            <path id="Trazado_1048768-2" data-name="Trazado 1048768" d="M111.585,67.214c-13.752,0-24.94-9.974-24.94-22.233S109.7,1.734,110.685.405a1.2,1.2,0,0,1,1.8,0c.982,1.329,24.038,32.675,24.038,44.575s-11.188,22.233-24.94,22.233Z" transform="translate(-77.01 1.06)" fill="#2cfefa" opacity="0.9"/>
          </g>
        </g>
      </g>
      <g id="biochemist_2317919" transform="translate(6.948 20.147)">
        <path id="Trazado_1048769" data-name="Trazado 1048769" d="M33.872,43.084V42.06A4.152,4.152,0,0,0,31.094,41H29.7s-.695,4.168-2.084,6.253l-4.168-2.779-4.168,2.779C17.895,45.168,17.2,41,17.2,41H15.116a3.474,3.474,0,0,0-3.474,3.474v5.558L10.253,41H4L6.084,54.895H31.093a1.389,1.389,0,0,1-1.282-1.924Z" transform="translate(-2.611 -14.151)" fill="#fff"/>
        <path id="Trazado_1048770" data-name="Trazado 1048770" d="M9,26h4.168v9.031H9Z" transform="translate(-4.137 -9.572)" fill="#71caf0"/>
        <g id="Grupo_1181707" data-name="Grupo 1181707" transform="translate(10.421 5.312)">
          <path id="Trazado_1048771" data-name="Trazado 1048771" d="M44.042,23.474a1.737,1.737,0,1,0,0-3.474H43v3.474Z" transform="translate(-24.937 -13.052)" fill="#fce0b9"/>
          <path id="Trazado_1048772" data-name="Trazado 1048772" d="M18.737,20a1.737,1.737,0,1,0,0,3.474h1.042V20Z" transform="translate(-17 -13.052)" fill="#fce0b9"/>
          <path id="Trazado_1048773" data-name="Trazado 1048773" d="M34.961,11.935a3.076,3.076,0,0,0-4.644-1.361,3.076,3.076,0,0,1-3.419.106l-.3-.19a3.076,3.076,0,0,0-4.6,1.8l-1,4.658V21.81h.035a7.639,7.639,0,0,0,15.215,0h.035V16.947Z" transform="translate(-18.221 -10)" fill="#fce0b9"/>
        </g>
        <path id="Trazado_1048774" data-name="Trazado 1048774" d="M9,39v2.779a2.084,2.084,0,1,0,4.168,0V39Z" transform="translate(-4.137 -13.54)" fill="#78af4f"/>
        <path id="Trazado_1048775" data-name="Trazado 1048775" d="M54.785,49.308l-1.6-3.888-2.462-6V31.084h.347a1.042,1.042,0,1,0,0-2.084H44.818a1.042,1.042,0,0,0,0,2.084h.347v8.337L41.1,49.308a1.389,1.389,0,0,0,1.282,1.924H53.5A1.389,1.389,0,0,0,54.785,49.308Z" transform="translate(-13.904 -10.488)" fill="#71caf0"/>
        <path id="Trazado_1048776" data-name="Trazado 1048776" d="M7.168,38.286V33.779h.695a1.389,1.389,0,0,0,0-2.779H3.695A.7.7,0,0,0,3,31.695l.909,6.591Z" transform="translate(-2.305 -11.098)" fill="#fce0b9"/>
        <path id="Trazado_1048777" data-name="Trazado 1048777" d="M26.289,8.461l.3.19a3.076,3.076,0,0,0,3.419-.106,3.076,3.076,0,0,1,4.644,1.361l1.323,5.012-.29-6.931A5.485,5.485,0,0,0,28.11,3.8L24.863,5.192A4.863,4.863,0,0,0,20,10.055l.695,4.863,1-4.658A3.076,3.076,0,0,1,26.289,8.461Z" transform="translate(-7.495 -2.659)" fill="#665642"/>
        <path id="Trazado_1048778" data-name="Trazado 1048778" d="M32,22.084a2.779,2.779,0,0,0,2.779,2.779h3.474a1.389,1.389,0,0,0,1.389-1.389V20H32Zm3.474-.695a.695.695,0,1,1-.695.695A.695.695,0,0,1,35.474,21.389Z" transform="translate(-11.158 -7.74)" fill="#71caf0"/>
        <circle id="Elipse_12030" data-name="Elipse 12030" cx="0.695" cy="0.695" r="0.695" transform="translate(23.621 13.649)" fill="#fff"/>
        <path id="Trazado_1048779" data-name="Trazado 1048779" d="M22.389,24.863h3.474a2.779,2.779,0,0,0,2.779-2.779V20H21v3.474A1.389,1.389,0,0,0,22.389,24.863Zm2.779-3.474a.695.695,0,1,1-.695.695A.695.695,0,0,1,25.168,21.389Z" transform="translate(-7.8 -7.74)" fill="#71caf0"/>
        <circle id="Elipse_12031" data-name="Elipse 12031" cx="0.695" cy="0.695" r="0.695" transform="translate(16.673 13.649)" fill="#fff"/>
        <path id="Trazado_1048780" data-name="Trazado 1048780" d="M51,37.389v2.779a1.389,1.389,0,0,0,1.389,1.389h2.78a.7.7,0,0,0,.695-.695V36.695A.7.7,0,0,0,55.168,36h-2.78A1.389,1.389,0,0,0,51,37.389Z" transform="translate(-16.958 -12.625)" fill="#fce0b9"/>
        <path id="Trazado_1048781" data-name="Trazado 1048781" d="M12,32.389a1.389,1.389,0,0,0,1.389,1.389h2.084a.7.7,0,0,0,.695-.695V31.695A.7.7,0,0,0,15.474,31H13.389A1.389,1.389,0,0,0,12,32.389Z" transform="translate(-5.053 -11.098)" fill="#fce0b9"/>
        <path id="Trazado_1048782" data-name="Trazado 1048782" d="M48.168,36.389A1.389,1.389,0,0,0,46.779,35H44.695a.7.7,0,0,0-.695.695v1.389a.7.7,0,0,0,.695.695h2.084A1.389,1.389,0,0,0,48.168,36.389Z" transform="translate(-14.822 -12.319)" fill="#fce0b9"/>
        <circle id="Elipse_12032" data-name="Elipse 12032" cx="1.389" cy="1.389" r="1.389" transform="translate(35.431 10.87)" fill="#fca947"/>
        <circle id="Elipse_12033" data-name="Elipse 12033" cx="1.389" cy="1.389" r="1.389" transform="translate(33.347 3.228)" fill="#fca947"/>
        <path id="Trazado_1048783" data-name="Trazado 1048783" d="M48.247,52.293A4.467,4.467,0,0,0,44.6,51.7l-1.856.506L41.1,56.189a1.39,1.39,0,0,0,1.283,1.924H53.5a1.389,1.389,0,0,0,1.282-1.924l-1.6-3.888A4.465,4.465,0,0,1,48.247,52.293Z" transform="translate(-13.904 -17.37)" fill="#fca947"/>
        <path id="Trazado_1048784" data-name="Trazado 1048784" d="M42.387,58.386H50.7l-.386-.152a16.561,16.561,0,0,1-7.415-5.8l-.156.042L41.1,56.461A1.39,1.39,0,0,0,42.387,58.386Z" transform="translate(-13.904 -17.642)" fill="#e68f29"/>
        <path id="Trazado_1048785" data-name="Trazado 1048785" d="M30.474,36.633A7.6,7.6,0,0,1,27,35.8v2.919l3.474,4.168,3.474-4.168V35.8A7.6,7.6,0,0,1,30.474,36.633Z" transform="translate(-9.632 -12.563)" fill="#fce0b9"/>
        <path id="Trazado_1048786" data-name="Trazado 1048786" d="M24.863,6.336,28.11,4.944a5.485,5.485,0,0,1,7.579,4.186l.233,5.572.056.216-.29-6.931A5.485,5.485,0,0,0,28.11,3.8L24.863,5.192A4.863,4.863,0,0,0,20,10.055l.06.419A4.86,4.86,0,0,1,24.863,6.336Z" transform="translate(-7.495 -2.659)" fill="#735f47"/>
        <path id="Trazado_1048787" data-name="Trazado 1048787" d="M28.842,36.3l4.321,4.033,1.346-1.615V35.8a7.542,7.542,0,0,1-5.668.5Z" transform="translate(-10.194 -12.563)" fill="#f5cba1"/>
        <path id="Trazado_1048788" data-name="Trazado 1048788" d="M35.018,41s-.695,4.168-2.084,6.253l-.051-.034c-.007.01-.013.024-.02.034L28.73,44.5h0s-4.145,2.731-4.152,2.721l-.05.033-.08-.247a21.214,21.214,0,0,1-1.927-5.968c0-.023-.006-.038-.006-.038H21.4c.4,2.047,1.07,5.652,2.207,7.69a.7.7,0,0,0,1,.243l4.085-2.723,4.085,2.723a.7.7,0,0,0,1-.244A33.306,33.306,0,0,0,36.258,41H35.018Z" transform="translate(-7.924 -14.151)" fill="#ccc"/>
        <path id="Trazado_1048789" data-name="Trazado 1048789" d="M38.253,40.084,35.474,38v1.389L32,43.558l4.168,2.779C37.558,44.253,38.253,40.084,38.253,40.084Z" transform="translate(-11.158 -13.235)" fill="#fff"/>
        <path id="Trazado_1048790" data-name="Trazado 1048790" d="M25.779,38,23,40.084s.695,4.168,2.084,6.253l4.168-2.779-3.474-4.168Z" transform="translate(-8.411 -13.235)" fill="#fff"/>
        <path id="Trazado_1048791" data-name="Trazado 1048791" d="M11.084,43.084A2.084,2.084,0,0,1,9,41v1.389a2.084,2.084,0,1,0,4.168,0V41A2.084,2.084,0,0,1,11.084,43.084Z" transform="translate(-4.137 -14.151)" fill="#619c35"/>
        <path id="Trazado_1048792" data-name="Trazado 1048792" d="M26.466,23.682a1.216,1.216,0,1,1,1.216-1.216A1.217,1.217,0,0,1,26.466,23.682Zm0-1.389a.174.174,0,0,0-.174.174c0,.191.347.191.347,0A.174.174,0,0,0,26.466,22.292Z" transform="translate(-9.098 -8.122)"/>
        <path id="Trazado_1048793" data-name="Trazado 1048793" d="M36.466,23.682a1.216,1.216,0,1,1,1.216-1.216A1.217,1.217,0,0,1,36.466,23.682Zm0-1.389a.174.174,0,0,0-.174.174c0,.191.347.191.347,0A.174.174,0,0,0,36.466,22.292Z" transform="translate(-12.15 -8.122)"/>
        <path id="Trazado_1048794" data-name="Trazado 1048794" d="M30.855,32.605A2.609,2.609,0,0,1,28.25,30h1.042a1.563,1.563,0,0,0,3.126,0H33.46A2.609,2.609,0,0,1,30.855,32.605Z" transform="translate(-10.013 -10.793)"/>
        <path id="Trazado_1048795" data-name="Trazado 1048795" d="M4.786,43.192a.694.694,0,0,0,.688.6H41.6a2.084,2.084,0,0,0,1.924-2.882l-3.665-8.928h.352A1.391,1.391,0,0,0,41.6,30.592V26.423a1.391,1.391,0,0,0-1.389-1.389h-.693V23.61a1.737,1.737,0,0,0-.347-3.439H32.914a1.737,1.737,0,0,0-.347,3.439v.729h-.693a1.391,1.391,0,0,0-1.389,1.389v1.389a1.391,1.391,0,0,0,1.389,1.389h.693v.471a4.855,4.855,0,0,0-2.083-.471H29.326L27.01,26.771V25.99a8.334,8.334,0,0,0,4.168-7.209h.347a2.431,2.431,0,1,0,0-4.862H31.15l-.262-6.266a.612.612,0,0,0-.008-.079,6.181,6.181,0,0,0-8.539-4.716l-3.12,1.337A5.564,5.564,0,0,0,13.81,9.75a.673.673,0,0,0,.007.1l.581,4.07h-.241a2.432,2.432,0,0,0,0,4.863h.347a8.335,8.335,0,0,0,4.168,7.209v.78l-2.316,1.737H15.2a4.845,4.845,0,0,0-3.474,1.467V25.728h.695a1.391,1.391,0,0,0,1.389-1.389V22.95a1.391,1.391,0,0,0-1.389-1.389h-.695V18.781a.694.694,0,0,0-.695-.695H6.863a.694.694,0,0,0-.695.695V21.56H3.389A1.391,1.391,0,0,0,2,22.95a.62.62,0,0,0,.007.1Zm37.389-1.1a.682.682,0,0,1-.577.309H30.482a.7.7,0,0,1-.641-.965l1.506-3.666,1.526-.416a3.771,3.771,0,0,1,3.083.5,5.127,5.127,0,0,0,4.977.409l1.3,3.176a.68.68,0,0,1-.063.652Zm-1.964-11.5H37.43a.7.7,0,0,1-.695-.695V27.118a.7.7,0,0,1,.695-.695h2.78Zm-6.95-8.337h-.347a.347.347,0,0,1,0-.695h6.255a.347.347,0,0,1,0,.695H36.042v1.389h2.086v1.389h-.7a2.074,2.074,0,0,0-1.524.672,2.08,2.08,0,0,0-1.949-1.367h0V22.95A.694.694,0,0,0,33.261,22.255Zm-1.388,3.474h2.084a.695.695,0,0,1,0,1.389H31.873Zm2.084,2.779a2.068,2.068,0,0,0,1.388-.541V29.9a2.087,2.087,0,0,0,2.084,2.084h.927l2.052,5a3.765,3.765,0,0,1-3.68-.281,5.169,5.169,0,0,0-4.22-.685l-.495.135,1.889-4.6a.688.688,0,0,0,.052-.264V28.507Zm-1.391,2.1v.54l-4.009,9.756a2.081,2.081,0,0,0-.042,1.5h-4.98V33.973l3.088,2.059a.7.7,0,0,0,.964-.192A19.023,19.023,0,0,0,29.671,29.9h.813A3.456,3.456,0,0,1,32.567,30.609ZM28.332,29.5a21.157,21.157,0,0,1-1.549,4.969l-2.912-1.941,2.978-3.574a.7.7,0,0,0,.161-.445ZM15.895,15.308h6.253V16.7a2.087,2.087,0,0,1-2.084,2.084H16.589a.7.7,0,0,1-.695-.695Zm.164-1.389.807-3.78a2.382,2.382,0,0,1,3.56-1.394l.3.19A3.76,3.76,0,0,0,24.92,8.8,2.381,2.381,0,0,1,28.5,9.821l1.082,4.1H16.058Zm7.478,1.389h6.253v2.779a.7.7,0,0,1-.695.695H25.621A2.087,2.087,0,0,1,23.537,16.7Zm9.031,1.042a1.043,1.043,0,0,1-1.042,1.042h-.347V15.308h.347A1.043,1.043,0,0,1,32.568,16.35ZM19.368,5.581a.685.685,0,0,0,.274-.056l3.246-1.392A4.792,4.792,0,0,1,29.5,7.752l.044,1.063a3.773,3.773,0,0,0-5.434-1.141,2.376,2.376,0,0,1-2.647.082l-.3-.19A3.769,3.769,0,0,0,15.516,9.81l-.181.843L15.2,9.7A4.174,4.174,0,0,1,19.368,5.581Zm-5.21,11.81a1.042,1.042,0,0,1,0-2.084h.347v2.084Zm1.863,2.69a2.054,2.054,0,0,0,.568.089h3.474a3.461,3.461,0,0,0,2.779-1.411,3.461,3.461,0,0,0,2.779,1.411h3.474a2.054,2.054,0,0,0,.568-.089,6.943,6.943,0,0,1-13.642,0Zm6.821,7.036a8.282,8.282,0,0,0,2.779-.486v1.624l-2.779,3.335-2.779-3.335V26.632A8.282,8.282,0,0,0,22.842,27.118Zm-4.168,1.389a.7.7,0,0,0,.16.445l2.978,3.574L18.9,34.468A21.134,21.134,0,0,1,17.351,29.5ZM11.031,38.928a.694.694,0,0,0,.695-.695V33.37A3.478,3.478,0,0,1,15.2,29.9h.813A19.023,19.023,0,0,0,18.1,35.84a.7.7,0,0,0,.964.192l3.088-2.059V42.4H16.589V39.623H15.2V42.4H6.079L4.4,30.235H6.168v.356A2.782,2.782,0,0,0,8.947,33.37a2.746,2.746,0,0,0,1.41-.4c-.01.131-.02.263-.02.4v4.168H8.947v1.389ZM7.558,28.507h2.779v2.084a1.389,1.389,0,1,1-2.779,0Zm2.779-1.389H7.558V25.728a2.071,2.071,0,0,0,1.389-.542,2.067,2.067,0,0,0,1.389.542Zm2.086-2.779H10.337a.695.695,0,1,1,0-1.389h2.084ZM7.558,19.476h2.779V21.56a2.071,2.071,0,0,0-1.389.542,2.067,2.067,0,0,0-1.389-.542Zm0,3.474a.695.695,0,0,1,0,1.389H5.474v1.389h.695v3.117H4.209L3.4,22.95Z" transform="translate(-2 -2.353)"/>
        <path id="Trazado_1048796" data-name="Trazado 1048796" d="M54.084,21.168A2.084,2.084,0,1,0,52,19.084,2.087,2.087,0,0,0,54.084,21.168Zm0-2.779a.695.695,0,1,1-.695.695A.695.695,0,0,1,54.084,18.389Z" transform="translate(-17.264 -6.824)"/>
        <path id="Trazado_1048797" data-name="Trazado 1048797" d="M53.168,8.084a2.084,2.084,0,1,0-2.084,2.084A2.087,2.087,0,0,0,53.168,8.084Zm-2.084.695a.695.695,0,1,1,.695-.695A.695.695,0,0,1,51.084,8.779Z" transform="translate(-16.348 -3.466)"/>
      </g>
    </g>
  </g>
</svg>
