<svg xmlns="http://www.w3.org/2000/svg" xmlns:xlink="http://www.w3.org/1999/xlink" width="58.891" height="61.192" viewBox="0 0 58.891 61.192">
  <defs>
    <clipPath id="clip-path">
      <path id="path3474" d="M0-682.665H58.891v61.192H0Z" transform="translate(0 682.665)"/>
    </clipPath>
  </defs>
  <g id="Grupo_1181623" data-name="Grupo 1181623" transform="translate(-826.118 -1998.003)">
    <g id="Grupo_1181593" data-name="Grupo 1181593" transform="translate(-5.044 0.798)">
      <g id="g3468" transform="translate(831.162 1997.205)">
        <g id="g3470" transform="translate(0 0)">
          <g id="g3472" clip-path="url(#clip-path)">
            <g id="g3478" transform="translate(37.621 1.195)">
              <path id="path3480" d="M-22.151-166.574h0a7.634,7.634,0,0,1-.524-9.883l4.68-6.072a1.117,1.117,0,0,1,1.785,0l4.68,6.072a7.634,7.634,0,0,1-.524,9.883,6.951,6.951,0,0,1-10.1,0" transform="translate(24.242 182.975)" fill="#00d7f7"/>
            </g>
            <g id="g3482" transform="translate(31.519 25.337)">
              <path id="path3484" d="M-241.118-352.006h-19.306l-3.458-34.659h26.222Z" transform="translate(263.882 386.666)" fill="#baf5fc"/>
            </g>
            <g id="g3486" transform="translate(32.698 34.547)">
              <path id="path3488" d="M-252.853-25.641l-.089.026a8.159,8.159,0,0,1-11.851,0,8.159,8.159,0,0,0-11.851,0,.2.2,0,0,0-.081.06l2.279,22.84h19.306Z" transform="translate(276.725 28.165)" fill="#00d7f7"/>
            </g>
            <g id="g3490" transform="translate(8.125 1.195)">
              <path id="path3492" d="M-105.358,0h-9a.967.967,0,0,0-.948.985V5.471a.967.967,0,0,0,.948.985h9a.967.967,0,0,0,.948-.985V.985A.967.967,0,0,0-105.358,0" transform="translate(115.305)" fill="#00e1f8"/>
            </g>
            <g id="g3494" transform="translate(1.15 7.652)">
              <path id="path3496" d="M-182.186-28.122v-2.769h-9.556v2.769a8.339,8.339,0,0,0-7.644,8.452V18.055a3.337,3.337,0,0,0,3.271,3.4h18.3a3.337,3.337,0,0,0,3.271-3.4V-19.669a8.339,8.339,0,0,0-7.644-8.452" transform="translate(199.386 30.891)" fill="#baf5fc"/>
            </g>
            <g id="g3498" transform="translate(1.15 24.553)">
              <path id="path3500" d="M-262.856-25.6a8.516,8.516,0,0,1-12.37,0c-3.416-3.549-8.623-3.168-12.37,0l-.077.067V3.921a3.337,3.337,0,0,0,3.272,3.4h18.3a3.337,3.337,0,0,0,3.271-3.4V-25.63Z" transform="translate(287.673 28.124)" fill="#00d7f7"/>
            </g>
            <g id="g3502" transform="translate(8.125 1.195)">
              <path id="path3504" d="M-105.358,0h-9a.967.967,0,0,0-.948.985V5.471a.967.967,0,0,0,.948.985h9a.967.967,0,0,0,.948-.985V.985A.967.967,0,0,0-105.358,0Z" transform="translate(115.305)" fill="none" stroke="#000" stroke-linecap="round" stroke-linejoin="round" stroke-miterlimit="10" stroke-width="2"/>
            </g>
            <g id="g3506" transform="translate(1.15 7.652)">
              <path id="path3508" d="M-263.155-297.017v-18.024a8.339,8.339,0,0,0-7.644-8.452v-2.769h-9.556v2.769A8.339,8.339,0,0,0-288-315.041v37.725a3.337,3.337,0,0,0,3.271,3.4h18.3a3.337,3.337,0,0,0,3.271-3.4v-8.944" transform="translate(287.999 326.262)" fill="none" stroke="#000" stroke-linecap="round" stroke-linejoin="round" stroke-miterlimit="10" stroke-width="2"/>
            </g>
            <g id="g3510" transform="translate(1.227 24.412)">
              <path id="path3512" d="M-262.045-27.035a8.516,8.516,0,0,1-12.37,0,8.516,8.516,0,0,0-12.37,0" transform="translate(286.785 29.697)" fill="none" stroke="#000" stroke-linecap="round" stroke-linejoin="round" stroke-miterlimit="10" stroke-width="2"/>
            </g>
            <g id="g3514" transform="translate(32.779 34.547)">
              <path id="path3516" d="M-251.05-25.9a8.159,8.159,0,0,1-11.851,0,8.159,8.159,0,0,0-11.851,0" transform="translate(274.751 28.452)" fill="none" stroke="#000" stroke-linecap="round" stroke-linejoin="round" stroke-miterlimit="10" stroke-width="2"/>
            </g>
            <g id="g3518" transform="translate(31.519 25.337)">
              <path id="path3520" d="M-241.118-352.006h-19.306l-3.458-34.659h26.222Z" transform="translate(263.882 386.666)" fill="none" stroke="#000" stroke-linecap="round" stroke-linejoin="round" stroke-miterlimit="10" stroke-width="2"/>
            </g>
            <g id="g3522" transform="translate(37.621 1.195)">
              <path id="path3524" d="M-22.151-166.574h0a7.634,7.634,0,0,1-.524-9.883l4.68-6.072a1.117,1.117,0,0,1,1.785,0l4.68,6.072a7.634,7.634,0,0,1-.524,9.883A6.951,6.951,0,0,1-22.151-166.574Z" transform="translate(24.242 182.975)" fill="none" stroke="#000" stroke-linecap="round" stroke-linejoin="round" stroke-miterlimit="10" stroke-width="2"/>
            </g>
            <g id="g3526" transform="translate(42.623 10.882)">
              <path id="path3528" d="M0-14.349l1.57,1.631L4.5-15.761" transform="translate(0 15.761)" fill="none" stroke="#000" stroke-linecap="round" stroke-linejoin="round" stroke-miterlimit="10" stroke-width="2"/>
            </g>
            <g id="g3530" transform="translate(25.995 42.275)">
              <path id="path3532" d="M0,0H0" fill="none" stroke="#000" stroke-linecap="round" stroke-linejoin="round" stroke-miterlimit="10" stroke-width="2"/>
            </g>
          </g>
        </g>
      </g>
    </g>
  </g>
</svg>
