<svg xmlns="http://www.w3.org/2000/svg" xmlns:xlink="http://www.w3.org/1999/xlink" width="110" height="110" viewBox="0 0 110 110">
  <defs>
    <clipPath id="clip-path">
      <rect id="Rectángulo_407321" data-name="Rectángulo 407321" width="110" height="110" transform="translate(800.781 1960)" fill="#37a2e4" opacity="0.47"/>
    </clipPath>
    <filter id="Trazado_1047750" x="5" y="-4.866" width="90.453" height="115.636" filterUnits="userSpaceOnUse">
      <feOffset dy="3" input="SourceAlpha"/>
      <feGaussianBlur stdDeviation="3" result="blur"/>
      <feFlood flood-opacity="0.161"/>
      <feComposite operator="in" in2="blur"/>
      <feComposite in="SourceGraphic"/>
    </filter>
  </defs>
  <g id="Enmascarar_grupo_1098924" data-name="Enmascarar grupo 1098924" transform="translate(-800.781 -1960)" clip-path="url(#clip-path)">
    <g id="Grupo_1181490" data-name="Grupo 1181490" transform="translate(-1 -1)">
      <g id="Grupo_1181468" data-name="Grupo 1181468" transform="translate(815.781 1961)">
        <g id="Grupo_1181464" data-name="Grupo 1181464" transform="translate(0 0)">
          <path id="Trazado_1047748" data-name="Trazado 1047748" d="M127.429,109.916c-22.489,0-40.784-16.31-40.784-36.359S124.352,2.836,125.959.662a1.964,1.964,0,0,1,2.941,0c1.607,2.173,39.31,53.434,39.31,72.895s-18.3,36.359-40.784,36.359Z" transform="translate(-86.645 0)" fill="#54eabd"/>
          <g transform="matrix(1, 0, 0, 1, -14, 0)" filter="url(#Trazado_1047750)">
            <path id="Trazado_1047750-2" data-name="Trazado 1047750" d="M122.873,97.636c-19.977,0-36.228-14.488-36.228-32.3S120.139,2.519,121.567.588a1.745,1.745,0,0,1,2.613,0C125.607,2.519,159.1,48.053,159.1,65.34s-16.252,32.3-36.228,32.3Z" transform="translate(-72.64 1.13)" fill="#54eabd" opacity="0.9"/>
          </g>
        </g>
      </g>
      <g id="Linear" transform="translate(825.852 1996.792)">
        <path id="Trazado_1049078" data-name="Trazado 1049078" d="M60.125,60.213a.887.887,0,0,1-.778.456H37.894a.894.894,0,0,1-.769-1.35L47.852,41.441a.927.927,0,0,1,1.538,0L60.116,59.319A.888.888,0,0,1,60.125,60.213Z" transform="translate(-3.82 -4.244)" fill="#ffc81a"/>
        <path id="Trazado_1049079" data-name="Trazado 1049079" d="M39.767,59.19l9.147-15.246L58.062,59.19Z" transform="translate(-4.113 -4.553)" fill="#f7941d" opacity="0.3"/>
        <path id="Trazado_1049080" data-name="Trazado 1049080" d="M53.047,19.114c-.438.483-10.825,11.916-23.912,11.916S5.662,19.6,5.224,19.114a.922.922,0,0,1,0-1.2C5.662,17.433,16.049,6,29.136,6S52.609,17.433,53.047,17.916a.922.922,0,0,1,0,1.2Z" transform="translate(-0.425 -0.527)" fill="#eeefef"/>
        <path id="Trazado_1049081" data-name="Trazado 1049081" d="M44.6,16.727A14.3,14.3,0,0,1,31.089,31.011c-.259.009-.527.018-.787.018s-.527-.009-.787-.018A14.3,14.3,0,0,1,18.038,9.37a.949.949,0,0,1,.4-.393A26.875,26.875,0,0,1,30.3,6,26.906,26.906,0,0,1,42.146,8.968a.971.971,0,0,1,.438.429,14.247,14.247,0,0,1,2.02,7.33Z" transform="translate(-1.591 -0.527)" fill="#706463"/>
        <circle id="Elipse_12052" data-name="Elipse 12052" cx="8.045" cy="8.045" r="8.045" transform="translate(20.666 9.049)" fill="#4f4c4d" opacity="0.6"/>
        <circle id="Elipse_12053" data-name="Elipse 12053" cx="2.682" cy="2.682" r="2.682" transform="translate(26.029 14.412)" fill="#231f20" opacity="0.6"/>
        <circle id="Elipse_12054" data-name="Elipse 12054" cx="3.576" cy="3.576" r="3.576" transform="translate(28.711 10.837)" fill="#fff" opacity="0.3"/>
        <path id="Trazado_1049082" data-name="Trazado 1049082" d="M53.271,20a.894.894,0,0,1-.223.6c-.438.483-10.825,11.916-23.912,11.916S5.661,21.082,5.223,20.6A.894.894,0,0,1,5,20c5.238,3.477,14.025,8.045,24.135,8.045S48.032,23.477,53.271,20Z" transform="translate(-0.424 -2.012)" fill="#231f20" opacity="0.05"/>
        <path id="Trazado_1049083" data-name="Trazado 1049083" d="M53.263,18.425C49.07,14.984,39.935,8.682,29.136,8.682S9.2,14.984,5.01,18.425a.793.793,0,0,1,.215-.51C5.663,17.433,16.05,6,29.136,6S52.61,17.433,53.048,17.916a.793.793,0,0,1,.215.51Z" transform="translate(-0.425 -0.527)" fill="#231f20" opacity="0.05"/>
        <path id="Trazado_1049084" data-name="Trazado 1049084" d="M13.257,32.129v10.28a.894.894,0,0,1-.894.894H7.894A.894.894,0,0,1,7,42.409V32.129a3.129,3.129,0,0,1,6.257,0Z" transform="translate(-0.637 -2.967)" fill="#f49a8e"/>
        <path id="Trazado_1049085" data-name="Trazado 1049085" d="M30.5,40.475a2.759,2.759,0,0,1-.813,1.967L13.255,58.925a.906.906,0,0,1-1.269,0L1.259,48.2a.906.906,0,0,1,0-1.269L20.407,27.817a2.86,2.86,0,0,1,3.933,0A2.778,2.778,0,0,1,25,30.7a2.7,2.7,0,0,1,1.117.688,2.778,2.778,0,0,1,.661,2.878,2.867,2.867,0,0,1,1.126.679,2.815,2.815,0,0,1,.661,2.878,2.816,2.816,0,0,1,1.117.688,2.759,2.759,0,0,1,.813,1.967Z" transform="translate(0 -2.759)" fill="#f49a8e"/>
        <g id="Grupo_1181818" data-name="Grupo 1181818" transform="translate(1 1.034)">
          <path id="Trazado_1049086" data-name="Trazado 1049086" d="M59.348,60.669H37.894a.894.894,0,0,1-.766-1.354L47.855,41.437a.929.929,0,0,1,1.533,0L60.114,59.315a.894.894,0,0,1-.767,1.354ZM39.473,58.881h18.3L48.621,43.635Z" transform="translate(-4.82 -5.278)" fill="#231f20"/>
          <path id="Trazado_1049087" data-name="Trazado 1049087" d="M49.894,55.151A.894.894,0,0,1,49,54.257V48.894a.894.894,0,1,1,1.788,0v5.363A.894.894,0,0,1,49.894,55.151Z" transform="translate(-6.093 -6.017)" fill="#231f20"/>
          <circle id="Elipse_12055" data-name="Elipse 12055" cx="0.894" cy="0.894" r="0.894" transform="translate(42.907 50.028)" fill="#231f20"/>
          <path id="Trazado_1049088" data-name="Trazado 1049088" d="M53.164,13.488a.894.894,0,0,1-.6-.229C48.232,9.361,39.411,2.822,29.029,2.822S9.826,9.361,5.491,13.258a.894.894,0,1,1-1.2-1.329C8.822,7.86,18.051,1.034,29.029,1.034S49.237,7.86,53.762,11.929a.894.894,0,0,1-.6,1.559Z" transform="translate(-1.318 -1.034)" fill="#231f20"/>
          <path id="Trazado_1049089" data-name="Trazado 1049089" d="M31.045,26.09a8.045,8.045,0,1,1,8.045-8.045A8.045,8.045,0,0,1,31.045,26.09Zm0-14.3A6.257,6.257,0,1,0,37.3,18.045,6.257,6.257,0,0,0,31.045,11.788Z" transform="translate(-3.334 -1.985)" fill="#231f20"/>
          <path id="Trazado_1049090" data-name="Trazado 1049090" d="M31.576,22.17A3.569,3.569,0,0,1,30.4,15.228a.894.894,0,1,1,.577,1.692,1.766,1.766,0,0,0-1.192,1.674,1.788,1.788,0,0,0,1.788,1.788,1.766,1.766,0,0,0,1.675-1.192.894.894,0,1,1,1.692.577,3.555,3.555,0,0,1-3.367,2.4Z" transform="translate(-3.865 -2.535)" fill="#231f20"/>
          <path id="Trazado_1049091" data-name="Trazado 1049091" d="M21.756,28.3a.889.889,0,0,1-.569-.206A14.29,14.29,0,0,1,18.056,9.7a.894.894,0,0,1,1.676.425v.009a.894.894,0,0,1-.131.466,12.5,12.5,0,0,0,2.726,16.116.894.894,0,0,1-.57,1.582Z" transform="translate(-2.592 -1.904)" fill="#231f20"/>
          <path id="Trazado_1049092" data-name="Trazado 1049092" d="M31.533,31.377c-.3,0-.583-.009-.88-.029A13.832,13.832,0,0,1,28.288,31a.894.894,0,0,1,.413-1.74,12,12,0,0,0,2.063.3,11.838,11.838,0,0,0,1.534,0A12.5,12.5,0,0,0,42.239,10.6a.894.894,0,0,1,1.57-.858,14.293,14.293,0,0,1-11.4,21.6c-.292.02-.578.029-.875.029Z" transform="translate(-3.823 -1.909)" fill="#231f20"/>
          <path id="Trazado_1049093" data-name="Trazado 1049093" d="M29.135,31.029c-.3,0-.583-.009-.88-.029a18.844,18.844,0,0,1-2.177-.186.894.894,0,1,1,.249-1.77,17.477,17.477,0,0,0,2.007.171,11.843,11.843,0,0,0,1.564,0c10.3-.384,18.978-8.424,21.239-10.7a42.413,42.413,0,0,0-10.927-7.92.914.914,0,0,1-.106-.062,25.051,25.051,0,0,0-10.97-2.743,25.052,25.052,0,0,0-10.972,2.745.829.829,0,0,1-.1.061A42.392,42.392,0,0,0,7.131,18.515a41.477,41.477,0,0,0,12.763,8.76.894.894,0,1,1-.683,1.653A42.605,42.605,0,0,1,5.228,19.111a.894.894,0,0,1,0-1.192A43.13,43.13,0,0,1,17.17,9.039a.877.877,0,0,1,.1-.059A26.876,26.876,0,0,1,29.135,6,26.876,26.876,0,0,1,41,8.979a.871.871,0,0,1,.1.06,43.146,43.146,0,0,1,11.94,8.879.894.894,0,0,1,0,1.192C52.624,19.577,42.673,30.529,29.99,31,29.718,31.02,29.432,31.029,29.135,31.029Z" transform="translate(-1.425 -1.561)" fill="#231f20"/>
          <path id="Trazado_1049094" data-name="Trazado 1049094" d="M34.469,19.939a2.12,2.12,0,0,1-.241-.012,4.434,4.434,0,0,1-4.217-4.217,2.12,2.12,0,0,1-.011-.24A4.475,4.475,0,0,1,34.469,11a4.281,4.281,0,0,1,1.293.195.9.9,0,0,1,.656.86.886.886,0,0,1-.885.894h-.018a.894.894,0,0,1-.276-.044,2.457,2.457,0,0,0-.77-.117,2.682,2.682,0,0,0-2.682,2.682,1.134,1.134,0,0,1,.008.122,2.656,2.656,0,0,0,2.551,2.551.843.843,0,0,1,.1.008,2.693,2.693,0,0,0,2.7-2.682,2.458,2.458,0,0,0-.117-.77.894.894,0,1,1,1.726-.464,4.3,4.3,0,0,1,.179,1.234,4.475,4.475,0,0,1-4.47,4.47Z" transform="translate(-4.077 -2.091)" fill="#231f20"/>
          <path id="Trazado_1049095" data-name="Trazado 1049095" d="M1.894,50.151a.894.894,0,0,1-.632-1.526l5.363-5.363a.894.894,0,1,1,1.264,1.264L2.526,49.889a.894.894,0,0,1-.632.262Z" transform="translate(-1 -5.487)" fill="#231f20"/>
          <path id="Trazado_1049096" data-name="Trazado 1049096" d="M17.894,39.928a.894.894,0,0,1-.632-1.526l6.808-6.8c.022-.021.089-.082.113-.1a2.854,2.854,0,0,1,3.729.2,2.787,2.787,0,0,1,0,3.946l-.746.756a.894.894,0,1,1-1.272-1.256l.751-.76a1,1,0,0,0,0-1.421.983.983,0,0,0-.705-.293,1.008,1.008,0,0,0-.618.207l-.048.046-6.747,6.744a.894.894,0,0,1-.632.262Z" transform="translate(-2.698 -4.203)" fill="#231f20"/>
          <path id="Trazado_1049097" data-name="Trazado 1049097" d="M20.894,43.034a.894.894,0,0,1-.632-1.526L26.176,35.6c.022-.021.089-.082.113-.1a2.853,2.853,0,0,1,3.729.2,2.787,2.787,0,0,1,0,3.946l-.746.756A.894.894,0,1,1,28,39.144l.751-.76a1,1,0,0,0,0-1.421.983.983,0,0,0-.705-.293,1.008,1.008,0,0,0-.618.207l-.048.046-5.853,5.85A.894.894,0,0,1,20.894,43.034Z" transform="translate(-3.016 -4.627)" fill="#231f20"/>
          <path id="Trazado_1049098" data-name="Trazado 1049098" d="M13.894,60.443a.894.894,0,0,1-.632-1.526L29.8,42.38a1,1,0,0,0,0-1.418.983.983,0,0,0-.709-.292,1.008,1.008,0,0,0-.618.207l-.048.046-4.959,4.956A.894.894,0,1,1,22.2,44.615l5.02-5.015c.022-.021.089-.082.113-.1a2.854,2.854,0,0,1,3.729.2,2.793,2.793,0,0,1,0,3.946L14.526,60.181a.894.894,0,0,1-.632.262Z" transform="translate(-2.273 -5.052)" fill="#231f20"/>
          <path id="Trazado_1049099" data-name="Trazado 1049099" d="M7.894,43.081A.894.894,0,0,1,7,42.187V31.907a3.129,3.129,0,0,1,6.257,0v3.652l7.86-7.86a2.86,2.86,0,0,1,3.946,0,2.793,2.793,0,0,1,0,3.946l-.746.756a.894.894,0,1,1-1.272-1.256l.751-.76a1,1,0,0,0-1.418-1.421L12.992,38.35a.894.894,0,0,1-1.522-.633v-5.81a1.341,1.341,0,1,0-2.682,0v10.28a.894.894,0,0,1-.894.894Z" transform="translate(-1.637 -3.779)" fill="#231f20"/>
        </g>
      </g>
    </g>
  </g>
</svg>
