<svg xmlns="http://www.w3.org/2000/svg" width="75.414" height="75.376" viewBox="0 0 75.414 75.376">
  <g id="Grupo_1181622" data-name="Grupo 1181622" transform="translate(-819.827 -1989.266)">
    <g id="Grupo_1181498" data-name="Grupo 1181498" transform="translate(819.827 1989.266)">
      <g id="water_17973702" transform="translate(0 0)">
        <path id="Trazado_1048619" data-name="Trazado 1048619" d="M84.022,377.727v7.75a7.423,7.423,0,0,1-4.517-1.74,7.1,7.1,0,0,0-8.984,0,7.09,7.09,0,0,1-9.307,0,7.1,7.1,0,0,0-8.984,0,7.09,7.09,0,0,1-9.307,0,7.1,7.1,0,0,0-8.984,0,7.09,7.09,0,0,1-9.307,0,7.1,7.1,0,0,0-8.984,0,7.39,7.39,0,0,1-4.654,1.741v-7.75a7.39,7.39,0,0,0,4.654-1.741,7.1,7.1,0,0,1,8.984,0,7.09,7.09,0,0,0,9.307,0,7.1,7.1,0,0,1,8.984,0,7.09,7.09,0,0,0,9.307,0,7.1,7.1,0,0,1,8.984,0,7.09,7.09,0,0,0,9.307,0,7.1,7.1,0,0,1,8.984,0,7.423,7.423,0,0,0,4.517,1.74Z" transform="translate(-9.801 -319.054)" fill="#78eaff" fill-rule="evenodd"/>
        <path id="Trazado_1048620" data-name="Trazado 1048620" d="M300.244,59.525l10.234,17.726a11.817,11.817,0,1,1-20.468,0Z" transform="translate(-245.85 -51.119)" fill="#2dcffc" fill-rule="evenodd"/>
        <path id="Trazado_1048621" data-name="Trazado 1048621" d="M76.294,59.525,66.06,77.251a11.817,11.817,0,1,0,20.468,0Z" transform="translate(-55.277 -51.119)" fill="#2dcffc" fill-rule="evenodd"/>
        <path id="Trazado_1048622" data-name="Trazado 1048622" d="M160.708,11.12l14.4,24.94a16.627,16.627,0,1,1-28.8,0Z" transform="translate(-123.002 -9.929)" fill="#78eaff" fill-rule="evenodd"/>
        <path id="Trazado_1048623" data-name="Trazado 1048623" d="M84.022,429.726v7.75a7.423,7.423,0,0,1-4.517-1.74,7.1,7.1,0,0,0-8.984,0,7.09,7.09,0,0,1-9.307,0,7.1,7.1,0,0,0-8.984,0,7.09,7.09,0,0,1-9.307,0,7.1,7.1,0,0,0-8.984,0,7.09,7.09,0,0,1-9.307,0,7.1,7.1,0,0,0-8.984,0,7.391,7.391,0,0,1-4.654,1.741v-7.75a7.39,7.39,0,0,0,4.654-1.741,7.1,7.1,0,0,1,8.984,0,7.09,7.09,0,0,0,9.307,0,7.1,7.1,0,0,1,8.984,0,7.09,7.09,0,0,0,9.307,0,7.1,7.1,0,0,1,8.984,0,7.09,7.09,0,0,0,9.307,0,7.1,7.1,0,0,1,8.984,0,7.423,7.423,0,0,0,4.517,1.74Z" transform="translate(-9.801 -363.303)" fill="#2dcffc" fill-rule="evenodd"/>
        <path id="Trazado_1048624" data-name="Trazado 1048624" d="M78.412,77.324A1.194,1.194,0,0,1,77.2,78.492a8.625,8.625,0,0,1-5.24-2,5.93,5.93,0,0,0-7.489,0,8.254,8.254,0,0,1-10.8,0,5.931,5.931,0,0,0-7.49,0,8.252,8.252,0,0,1-10.8,0,5.931,5.931,0,0,0-7.49,0,8.254,8.254,0,0,1-10.8,0,5.93,5.93,0,0,0-7.489,0,8.585,8.585,0,0,1-5.4,2,1.192,1.192,0,0,1,0-2.384A6.234,6.234,0,0,0,8.1,74.632a8.3,8.3,0,0,1,10.479,0,5.9,5.9,0,0,0,7.812,0,8.3,8.3,0,0,1,10.479,0,5.9,5.9,0,0,0,7.813,0,8.3,8.3,0,0,1,10.479,0,5.9,5.9,0,0,0,7.812,0,8.3,8.3,0,0,1,10.479,0,6.271,6.271,0,0,0,3.794,1.477,1.193,1.193,0,0,1,1.168,1.216ZM3,61.8A1.191,1.191,0,0,1,4.19,60.61,6.234,6.234,0,0,0,8.1,59.132a8.3,8.3,0,0,1,10.479,0,5.9,5.9,0,0,0,7.812,0,8.3,8.3,0,0,1,10.479,0,5.9,5.9,0,0,0,7.813,0,8.3,8.3,0,0,1,10.479,0,5.9,5.9,0,0,0,7.812,0,8.3,8.3,0,0,1,10.479,0,6.274,6.274,0,0,0,3.794,1.476,1.192,1.192,0,0,1-.049,2.384,8.63,8.63,0,0,1-5.24-2,5.932,5.932,0,0,0-7.489,0,8.254,8.254,0,0,1-10.8,0,5.933,5.933,0,0,0-7.49,0,8.252,8.252,0,0,1-10.8,0,5.933,5.933,0,0,0-7.49,0,8.253,8.253,0,0,1-10.8,0,5.932,5.932,0,0,0-7.489,0,8.584,8.584,0,0,1-5.4,2A1.191,1.191,0,0,1,3,61.8Zm75.414,7.773A1.191,1.191,0,0,1,77.2,70.743a8.63,8.63,0,0,1-5.24-2,5.931,5.931,0,0,0-7.489,0,8.255,8.255,0,0,1-10.8,0,5.931,5.931,0,0,0-7.49,0,8.252,8.252,0,0,1-10.8,0,5.931,5.931,0,0,0-7.49,0,8.253,8.253,0,0,1-10.8,0,5.932,5.932,0,0,0-7.489,0,8.585,8.585,0,0,1-5.4,2,1.192,1.192,0,0,1,0-2.384A6.235,6.235,0,0,0,8.1,66.882a8.3,8.3,0,0,1,10.479,0,5.9,5.9,0,0,0,7.812,0,8.3,8.3,0,0,1,10.479,0,5.9,5.9,0,0,0,7.813,0,8.3,8.3,0,0,1,10.479,0,5.9,5.9,0,0,0,7.812,0,8.3,8.3,0,0,1,10.479,0,6.274,6.274,0,0,0,3.794,1.476,1.193,1.193,0,0,1,1.168,1.217Zm-37.512-20a1.193,1.193,0,0,1,.988-1.366,10.72,10.72,0,0,0,7.743-5.481,11.17,11.17,0,0,0,1.595-5.764A1.192,1.192,0,0,1,52.4,35.76h.015a1.193,1.193,0,0,1,1.192,1.177,13.535,13.535,0,0,1-1.915,6.987,13.031,13.031,0,0,1-9.428,6.643,1.144,1.144,0,0,1-.191.016,1.194,1.194,0,0,1-1.176-1ZM14.815,29.855l9.2-15.938L28.9,22.378l-3.627,6.284a17.379,17.379,0,0,0-.4,17.1c-.285.021-.572.033-.863.033a10.625,10.625,0,0,1-9.2-15.937ZM40.7,6.7,27.339,29.855A15.434,15.434,0,0,0,40.7,53.006,15.434,15.434,0,0,0,54.072,29.855Zm16.689,7.214-4.885,8.461,3.628,6.284a17.379,17.379,0,0,1,.4,17.1c.285.021.573.033.863.033a10.625,10.625,0,0,0,9.2-15.937l-9.2-15.938ZM24.015,48.176a13.79,13.79,0,0,0,2.23-.18A17.352,17.352,0,0,0,40.7,55.39,17.357,17.357,0,0,0,55.166,48a13.772,13.772,0,0,0,2.228.18A13.01,13.01,0,0,0,68.66,28.662L58.426,10.936a1.191,1.191,0,0,0-2.064,0l-5.23,9.057L41.737,3.722a1.193,1.193,0,0,0-2.066,0L30.278,19.993l-5.23-9.057a1.191,1.191,0,0,0-2.064,0L12.749,28.662A13.01,13.01,0,0,0,24.015,48.176Z" transform="translate(-2.998 -3.126)" fill-rule="evenodd"/>
      </g>
    </g>
  </g>
</svg>
